<?xml version="1.0" encoding="UTF-8"?> <svg xmlns="http://www.w3.org/2000/svg" xmlns:xlink="http://www.w3.org/1999/xlink" version="1.1" id="Camada_1" x="0px" y="0px" viewBox="0 0 100.4 100.4" style="enable-background:new 0 0 100.4 100.4;" xml:space="preserve"> <style type="text/css"> .st0{fill:#20A4DC;} </style> <g> <g> <g> <rect x="48.9" y="24.7" class="st0" width="2.6" height="5.3"></rect> </g> <g> <rect x="37.4" y="28" transform="matrix(0.8944 -0.4472 0.4472 0.8944 -9.3078 20.4945)" class="st0" width="2.6" height="3.9"></rect> </g> <g> <rect x="59.6" y="28.6" transform="matrix(0.4467 -0.8947 0.8947 0.4467 7.2858 71.704)" class="st0" width="3.9" height="2.6"></rect> </g> <g> <g> <path class="st0" d="M50.2,82.3C33,82.3,19,67.9,19,50.2s14-32.1,31.2-32.1s31.2,14.4,31.2,32.1S67.4,82.3,50.2,82.3z M50.2,20.7c-15.8,0-28.6,13.2-28.6,29.5s12.8,29.5,28.6,29.5s28.6-13.2,28.6-29.5S65.9,20.7,50.2,20.7z"></path> </g> <g> <rect x="29.5" y="36.3" transform="matrix(0.7073 -0.7069 0.7069 0.7073 -18.3695 33.1468)" class="st0" width="2.6" height="5"></rect> </g> <g> <rect x="25.6" y="48" class="st0" width="5.3" height="2.6"></rect> </g> <g> <rect x="28.9" y="59.4" transform="matrix(0.8947 -0.4467 0.4467 0.8947 -23.8823 20.1726)" class="st0" width="3.9" height="2.6"></rect> </g> <g> <rect x="36" y="68.2" transform="matrix(0.3162 -0.9487 0.9487 0.3162 -39.4613 84.3069)" class="st0" width="5.6" height="2.6"></rect> </g> <g> <rect x="48.9" y="70.4" class="st0" width="2.6" height="3.5"></rect> </g> <g> <rect x="60.3" y="66.7" transform="matrix(0.9487 -0.3162 0.3162 0.9487 -18.8249 23.0523)" class="st0" width="2.6" height="5.6"></rect> </g> <g> <rect x="68.2" y="58.8" transform="matrix(0.4472 -0.8944 0.8944 0.4472 -15.8893 95.7619)" class="st0" width="2.6" height="3.9"></rect> </g> <g> <rect x="71.3" y="48" class="st0" width="3.5" height="2.6"></rect> </g> <g> <rect x="67" y="37.4" transform="matrix(0.7071 -0.7071 0.7071 0.7071 -7.0395 60.515)" class="st0" width="5" height="2.6"></rect> </g> <g> <path class="st0" d="M50,54.1c-0.4,0-0.7-0.2-1-0.5L38.6,41.4l2-1.7L50.2,51l7.9-6.1l1.6,2.1l-8.9,6.8 C50.6,54.1,50.3,54.1,50,54.1z"></path> </g> </g> </g> </g> </svg> 