<?xml version="1.0" encoding="UTF-8"?> <svg xmlns="http://www.w3.org/2000/svg" xmlns:xlink="http://www.w3.org/1999/xlink" version="1.1" id="Camada_1" x="0px" y="0px" viewBox="0 0 90 90" style="enable-background:new 0 0 90 90;" xml:space="preserve"> <style type="text/css"> .st0{fill:none;stroke:#FFFFFF;stroke-width:1.95;stroke-miterlimit:8;} </style> <g> <g> <defs> <path id="SVGID_1_" d="M2.1,16.4c0-7.9,6.4-14.3,14.3-14.3h57.2c7.9,0,14.3,6.4,14.3,14.3v57.2c0,7.9-6.4,14.3-14.3,14.3H16.4 c-7.9,0-14.3-6.4-14.3-14.3V16.4z"></path> </defs> <linearGradient id="SVGID_00000088814101797344632980000006784710708818961338_" gradientUnits="userSpaceOnUse" x1="11.5434" y1="11.5434" x2="85.3221" y2="85.3221"> <stop offset="0" style="stop-color:#20A4DC"></stop> <stop offset="6.893140e-02" style="stop-color:#30ACE0"></stop> <stop offset="0.2299" style="stop-color:#51BCE7"></stop> <stop offset="0.3966" style="stop-color:#6AC9ED"></stop> <stop offset="0.5692" style="stop-color:#7CD2F1"></stop> <stop offset="0.7515" style="stop-color:#87D7F3"></stop> <stop offset="0.9595" style="stop-color:#8AD9F4"></stop> </linearGradient> <use xlink:href="#SVGID_1_" style="overflow:visible;fill-rule:evenodd;clip-rule:evenodd;fill:url(#SVGID_00000088814101797344632980000006784710708818961338_);"></use> <clipPath id="SVGID_00000039815165109709881850000010120411476699080859_"> <use xlink:href="#SVGID_1_" style="overflow:visible;"></use> </clipPath> </g> <path class="st0" d="M30.7,67.1c0.5-0.5,1.1-1.4,2.9-1.4h21.2c1.6,0,10.4-8.8,11.5-10.1c1.1-1.2,5.9-8.4,7.2-11.5 c-0.8-1.1-3.1-2.1-5.8-1.4c-2.6,0.6-4.1,2.4-5.8,5.8l-6.6,3.4"></path> <path class="st0" d="M38.5,56.7h12.7c5.6,0,5.6-6.5,0-6.5h-8.4c-1.2,0-3.4-2.6-5.2-2.6h-7c-1.9,0-4.3,1.4-5.6,2.6 c-2.1,2-5.8,5.2-5.8,5.2"></path> <rect x="17.1" y="52.5" transform="matrix(0.7071 -0.7071 0.7071 0.7071 -38.8403 33.607)" class="st0" width="8.2" height="22.4"></rect> <path class="st0" d="M48.9,26.8c2.3,0,3.9-2.2,3.9-5v-1.7c0-2.8-1.6-5-3.9-5c-2.3,0-3.9,2.2-3.9,5v1.7C45,24.5,46.6,26.8,48.9,26.8 z"></path> <path class="st0" d="M63.2,29.4c2.3,0,3.9-2.2,3.9-5v-1.7c0-2.8-1.6-5-3.9-5c-2.3,0-3.9,2.2-3.9,5v1.7 C59.3,27.1,60.9,29.4,63.2,29.4z"></path> <path class="st0" d="M34.6,29.4c2.3,0,3.9-2.2,3.9-5v-1.7c0-2.8-1.6-5-3.9-5c-2.3,0-3.9,2.2-3.9,5v1.7 C30.7,27.1,32.3,29.4,34.6,29.4z"></path> <path class="st0" d="M58,46.3V35.4c0-3.9-5.9-4.7-9.1-4.7c-3.2,0-9.1,0.8-9.1,4.7v9.4"></path> <path class="st0" d="M71,39.8v-1.3c0-3.2-5.7-3.9-8.7-3.9c-1.2,0-2.8,0.1-4.3,0.4"></path> <path class="st0" d="M26.8,43.7v-5.2c0-3.2,5.7-3.9,8.7-3.9c1.2,0,2.8,0.1,4.3,0.4"></path> </g> </svg> 