<?xml version="1.0" encoding="UTF-8"?> <svg xmlns="http://www.w3.org/2000/svg" xmlns:xlink="http://www.w3.org/1999/xlink" version="1.1" id="Camada_1" x="0px" y="0px" viewBox="0 0 100.4 100.4" style="enable-background:new 0 0 100.4 100.4;" xml:space="preserve"> <style type="text/css"> .st0{fill:#20A4DC;} </style> <g> <g> <g> <path class="st0" d="M60.9,55.9H43.1v-2.6h17.8l2-9.6l-19.8,0V41h19.6c0.9,0,1.7,0.4,2.2,1c0.5,0.6,0.7,1.4,0.5,2.2l-1.9,9.6 C63.3,55,62.2,55.9,60.9,55.9z"></path> </g> <g> <path class="st0" d="M62.5,61.2H45.7c-1.3,0-2.4-0.8-2.7-2l-5.4-19c0,0-0.1-0.1-0.2-0.1h-4.8v-2.6h4.8c1.3,0,2.4,0.8,2.7,2 l5.4,19c0,0,0.1,0.1,0.2,0.1h16.8V61.2z"></path> </g> <g> <rect x="43.1" y="63.8" class="st0" width="3.5" height="2.6"></rect> </g> <g> <rect x="58.9" y="63.8" class="st0" width="3.5" height="2.6"></rect> </g> <g> <polygon class="st0" points="78.3,56.4 72.1,50.2 73.9,48.4 78.3,52.7 82.6,48.4 84.5,50.2 "></polygon> </g> <g> <polygon class="st0" points="28.2,52.1 22.9,47.5 17.6,52.1 15.9,50.1 22.9,44.1 29.9,50.1 "></polygon> </g> <g> <path class="st0" d="M50,78.8c-16.2,0-29.3-12.9-29.3-28.7v-4.3h2.6v4.3c0,14.3,12,26,26.7,26c11.5,0,21.6-7.1,25.3-17.7l2.5,0.9 C73.7,70.9,62.6,78.8,50,78.8z"></path> </g> <g> <path class="st0" d="M79.6,54.6H77v-4.3c0-14.3-12-26-26.7-26c-11.4,0-21.6,7.1-25.3,17.7l-2.5-0.9c4-11.6,15.2-19.4,27.8-19.4 c16.2,0,29.3,12.9,29.3,28.7V54.6z"></path> </g> </g> </g> </svg> 