<?xml version="1.0" encoding="UTF-8"?> <svg xmlns="http://www.w3.org/2000/svg" xmlns:xlink="http://www.w3.org/1999/xlink" version="1.1" id="Camada_1" x="0px" y="0px" viewBox="0 0 90 90" style="enable-background:new 0 0 90 90;" xml:space="preserve"> <style type="text/css"> .st0{fill-rule:evenodd;clip-rule:evenodd;fill:url(#SVGID_00000163039282432433656500000014607677495077886615_);} .st1{fill:none;stroke:#FFFFFF;stroke-width:1.95;stroke-miterlimit:8;} </style> <g> <g> <linearGradient id="SVGID_00000081638775721917376760000017009339788055207860_" gradientUnits="userSpaceOnUse" x1="11.5434" y1="80.4566" x2="85.3221" y2="6.6779" gradientTransform="matrix(1 0 0 -1 0 92)"> <stop offset="0" style="stop-color:#20A4DC"></stop> <stop offset="6.893140e-02" style="stop-color:#30ACE0"></stop> <stop offset="0.2299" style="stop-color:#51BCE7"></stop> <stop offset="0.3966" style="stop-color:#6AC9ED"></stop> <stop offset="0.5692" style="stop-color:#7CD2F1"></stop> <stop offset="0.7515" style="stop-color:#87D7F3"></stop> <stop offset="0.9595" style="stop-color:#8AD9F4"></stop> </linearGradient> <path id="SVGID_1_" style="fill-rule:evenodd;clip-rule:evenodd;fill:url(#SVGID_00000081638775721917376760000017009339788055207860_);" d=" M2.1,16.4c0-7.9,6.4-14.3,14.3-14.3h57.2c7.9,0,14.3,6.4,14.3,14.3v57.2c0,7.9-6.4,14.3-14.3,14.3H16.4c-7.9,0-14.3-6.4-14.3-14.3 C2.1,73.6,2.1,16.4,2.1,16.4z"></path> </g> </g> <g> <line class="st1" x1="56" y1="26.8" x2="56" y2="32"></line> <rect x="45.7" y="21.6" class="st1" width="18.2" height="5.2"></rect> <line class="st1" x1="45.7" y1="46.3" x2="49.5" y2="46.3"></line> <line class="st1" x1="50.8" y1="46.3" x2="54.8" y2="46.3"></line> <line class="st1" x1="57.3" y1="46.3" x2="60" y2="46.3"></line> <line class="st1" x1="45.7" y1="50.2" x2="49.5" y2="50.2"></line> <line class="st1" x1="50.8" y1="50.2" x2="54.8" y2="50.2"></line> <line class="st1" x1="57.3" y1="50.2" x2="60" y2="50.2"></line> <rect x="45.7" y="35.9" class="st1" width="14.3" height="5.2"></rect> <line class="st1" x1="30" y1="41.1" x2="43" y2="41.1"></line> <rect x="32.7" y="26.8" class="st1" width="7.8" height="14.3"></rect> <rect x="21" y="54.1" class="st1" width="49.4" height="15.6"></rect> <polyline class="st1" points="24.9,65.8 24.9,58 65.2,58 65.2,65.8 "></polyline> <line class="st1" x1="43" y1="63.2" x2="47" y2="63.2"></line> <polyline class="st1" points="31.4,32 26.9,32 26.9,44.6 23.5,48.8 23.5,54.1 "></polyline> <polyline class="st1" points="67.8,54.1 67.8,48.8 64.5,44.6 64.5,32 40.5,32 "></polyline> </g> </svg> 