<?xml version="1.0" encoding="UTF-8"?> <svg xmlns="http://www.w3.org/2000/svg" xmlns:xlink="http://www.w3.org/1999/xlink" version="1.1" id="Camada_1" x="0px" y="0px" viewBox="0 0 87 87" style="enable-background:new 0 0 87 87;" xml:space="preserve"> <style type="text/css"> .st0{fill:none;stroke:#21A5DC;stroke-width:1.9589;stroke-miterlimit:8;} </style> <g> <path class="st0" d="M27,31.7c2.7,0,4.7-2.4,4.7-5.4v-1.8c0-3-2-5.4-4.7-5.4c-2.7,0-4.7,2.4-4.7,5.4v1.8 C22.3,29.3,24.3,31.7,27,31.7z"></path> <path class="st0" d="M32,71V39.5h4.6c3.5,0,4.6-2.1,4.6-4.7H21.7c-4.1,0-5.7,1.8-5.7,7V50c0,2.5,1,4.7,3.4,4.7h1.1"></path> <line class="st0" x1="27" y1="52.1" x2="27" y2="71"></line> <line class="st0" x1="20.7" y1="42.7" x2="20.7" y2="71"></line> <path class="st0" d="M36.4,21.9C39.9,18.2,44.7,16,50,16c10.7,0,19.4,9.1,19.4,20.4S60.8,56.9,50,56.9c-4.8,0-9.1-1.8-12.5-4.8"></path> <line class="st0" x1="50.6" y1="19.1" x2="50.6" y2="22.3"></line> <line class="st0" x1="66.3" y1="36.4" x2="64.7" y2="36.4"></line> <line class="st0" x1="50.6" y1="52.1" x2="50.6" y2="50.6"></line> <polyline class="st0" points="45.9,30.9 50.6,38 60,28.6 "></polyline> </g> </svg> 