<?xml version="1.0" encoding="utf-8"?>
<!-- Generator: Adobe Illustrator 27.1.1, SVG Export Plug-In . SVG Version: 6.00 Build 0)  -->
<svg version="1.1" id="Camada_1" xmlns="http://www.w3.org/2000/svg" xmlns:xlink="http://www.w3.org/1999/xlink" x="0px" y="0px"
	 viewBox="0 0 100.5 71.5" style="enable-background:new 0 0 100.5 71.5;" xml:space="preserve">
<style type="text/css">
	.st0{fill:#4C4C4C;}
</style>
<g>
	<path class="st0" d="M32.7,29.2c0,1,0.1,1.8,0.3,2.4c0.2,0.6,0.5,1.2,0.9,1.9c0.1,0.2,0.2,0.4,0.2,0.6c0,0.3-0.2,0.5-0.5,0.8
		L31.9,36c-0.2,0.2-0.5,0.2-0.7,0.2c-0.3,0-0.5-0.1-0.8-0.4c-0.4-0.4-0.7-0.8-1-1.3c-0.3-0.5-0.5-1-0.8-1.6
		c-2.1,2.5-4.7,3.7-7.9,3.7c-2.2,0-4-0.6-5.3-1.9c-1.3-1.3-2-3-2-5.1c0-2.3,0.8-4.1,2.4-5.5s3.8-2.1,6.5-2.1c0.9,0,1.8,0.1,2.8,0.2
		c1,0.1,2,0.3,3.1,0.6V21c0-2-0.4-3.4-1.3-4.3c-0.9-0.8-2.3-1.2-4.4-1.2c-0.9,0-1.9,0.1-2.9,0.3c-1,0.2-1.9,0.5-2.9,0.9
		c-0.4,0.2-0.7,0.3-0.9,0.3c-0.2,0.1-0.3,0.1-0.4,0.1c-0.4,0-0.6-0.3-0.6-0.8V15c0-0.4,0.1-0.7,0.2-0.9c0.1-0.2,0.4-0.4,0.7-0.6
		c0.9-0.5,2.1-0.9,3.4-1.2c1.3-0.3,2.7-0.5,4.2-0.5c3.2,0,5.5,0.7,7,2.2c1.5,1.4,2.2,3.6,2.2,6.6L32.7,29.2L32.7,29.2z M21.9,33.2
		c0.9,0,1.8-0.2,2.8-0.5c1-0.3,1.8-0.9,2.5-1.7c0.4-0.5,0.7-1.1,0.9-1.7c0.2-0.6,0.3-1.4,0.3-2.3v-1.1c-0.8-0.2-1.6-0.3-2.5-0.5
		c-0.9-0.1-1.7-0.2-2.5-0.2c-1.8,0-3.1,0.3-4,1.1c-0.9,0.7-1.3,1.7-1.3,3.1c0,1.3,0.3,2.2,1,2.8C19.7,32.9,20.7,33.2,21.9,33.2z
		 M43.3,36.1c-0.5,0-0.8-0.1-1-0.3c-0.2-0.2-0.4-0.5-0.6-1l-6.3-20.6c-0.2-0.5-0.2-0.9-0.2-1.1c0-0.4,0.2-0.7,0.6-0.7h2.6
		c0.5,0,0.9,0.1,1,0.3c0.2,0.2,0.4,0.5,0.5,1l4.5,17.7l4.2-17.7c0.1-0.5,0.3-0.9,0.5-1c0.2-0.2,0.6-0.3,1.1-0.3h2.1
		c0.5,0,0.9,0.1,1.1,0.3c0.2,0.2,0.4,0.5,0.5,1l4.2,17.9l4.6-17.9c0.2-0.5,0.3-0.9,0.5-1c0.2-0.2,0.6-0.3,1-0.3h2.5
		c0.4,0,0.7,0.2,0.7,0.7c0,0.1,0,0.3-0.1,0.4c0,0.2-0.1,0.4-0.2,0.7l-6.4,20.6c-0.2,0.5-0.3,0.9-0.6,1c-0.2,0.2-0.6,0.3-1,0.3H57
		c-0.5,0-0.9-0.1-1.1-0.3c-0.2-0.2-0.4-0.5-0.5-1.1l-4.1-17.2l-4.1,17.2c-0.1,0.5-0.3,0.9-0.5,1.1c-0.2,0.2-0.6,0.3-1.1,0.3H43.3z
		 M77.6,36.8c-1.4,0-2.8-0.2-4.1-0.5c-1.3-0.3-2.4-0.7-3.1-1.1c-0.4-0.2-0.7-0.5-0.8-0.7c-0.1-0.2-0.2-0.5-0.2-0.7v-1.4
		c0-0.6,0.2-0.8,0.6-0.8c0.2,0,0.3,0,0.5,0.1c0.2,0.1,0.4,0.2,0.7,0.3c0.9,0.4,1.9,0.7,2.9,0.9c1.1,0.2,2.1,0.3,3.2,0.3
		c1.7,0,3-0.3,3.9-0.9c0.9-0.6,1.4-1.4,1.4-2.5c0-0.7-0.2-1.4-0.7-1.9c-0.5-0.5-1.4-1-2.7-1.4l-3.9-1.2c-1.9-0.6-3.4-1.5-4.3-2.7
		c-0.9-1.2-1.3-2.5-1.3-3.9c0-1.1,0.2-2.1,0.7-3c0.5-0.9,1.1-1.6,1.9-2.2c0.8-0.6,1.7-1.1,2.8-1.4s2.2-0.5,3.4-0.5
		c0.6,0,1.2,0,1.8,0.1c0.6,0.1,1.2,0.2,1.7,0.3c0.5,0.1,1,0.3,1.5,0.4c0.5,0.2,0.9,0.3,1.1,0.5c0.4,0.2,0.6,0.4,0.8,0.7
		c0.2,0.2,0.2,0.5,0.2,0.9v1.3c0,0.6-0.2,0.9-0.6,0.9c-0.2,0-0.6-0.1-1-0.3c-1.5-0.7-3.2-1-5.1-1c-1.5,0-2.7,0.2-3.6,0.7
		c-0.8,0.5-1.3,1.3-1.3,2.4c0,0.7,0.3,1.4,0.8,1.9s1.5,1,2.9,1.5l3.8,1.2c1.9,0.6,3.3,1.5,4.1,2.6s1.2,2.4,1.2,3.7
		c0,1.1-0.2,2.2-0.7,3.1c-0.5,0.9-1.1,1.7-1.9,2.4c-0.8,0.7-1.8,1.1-3,1.5C80.3,36.7,79,36.8,77.6,36.8z"/>
	<path class="st0" d="M82.7,49.8c-8.8,6.5-21.6,9.9-32.5,9.9c-15.4,0-29.2-5.7-39.7-15.1c-0.8-0.7-0.1-1.8,0.9-1.2
		C22.7,50,36.7,54,51.1,54c9.7,0,20.5-2,30.3-6.2C82.9,47.1,84.1,48.8,82.7,49.8z M86.4,45.7c-1.1-1.4-7.4-0.7-10.3-0.3
		c-0.9,0.1-1-0.6-0.2-1.2c5-3.5,13.3-2.5,14.2-1.3c1,1.2-0.3,9.5-5,13.4c-0.7,0.6-1.4,0.3-1.1-0.5C85.1,53,87.5,47.1,86.4,45.7z"/>
</g>
</svg>
