<?xml version="1.0" encoding="utf-8"?>
<!-- Generator: Adobe Illustrator 27.0.1, SVG Export Plug-In . SVG Version: 6.00 Build 0)  -->
<svg version="1.1" id="Camada_1" xmlns="http://www.w3.org/2000/svg" xmlns:xlink="http://www.w3.org/1999/xlink" x="0px" y="0px"
	 viewBox="0 0 870 870" style="enable-background:new 0 0 870 870;" xml:space="preserve">
<style type="text/css">
	.st0{fill-rule:evenodd;clip-rule:evenodd;fill:url(#SVGID_1_);}
	.st1{fill-rule:evenodd;clip-rule:evenodd;fill:none;stroke:#3FBEE6;stroke-width:2.5873;stroke-miterlimit:10;}
</style>
<g>
	<linearGradient id="SVGID_1_" gradientUnits="userSpaceOnUse" x1="547.5084" y1="95.0476" x2="167.189" y2="1042.0618">
		<stop  offset="0" style="stop-color:#21A5DC"/>
		<stop  offset="0.9599" style="stop-color:#202043"/>
	</linearGradient>
	<path class="st0" d="M759.7,728.7L196.1,828.9c-39.7,7.1-77.7-19.4-84.8-59.2L11.1,206.1c-7.1-39.7,19.4-77.7,59.2-84.8L633.9,21.1
		c39.7-7.1,77.7,19.4,84.8,59.2l100.2,563.7C826,683.7,799.5,721.6,759.7,728.7z"/>
	<path class="st1" d="M812.6,696.7L264.4,861.6c-38.7,11.6-79.4-10.3-91.1-48.9L8.4,264.4c-11.6-38.7,10.3-79.4,48.9-91.1L605.6,8.4
		c38.7-11.6,79.4,10.3,91.1,48.9l164.9,548.2C873.2,644.3,851.3,685,812.6,696.7z"/>
</g>
</svg>
