<?xml version="1.0" encoding="utf-8"?>
<!-- Generator: Adobe Illustrator 27.1.1, SVG Export Plug-In . SVG Version: 6.00 Build 0)  -->
<svg version="1.1" id="Camada_1" xmlns="http://www.w3.org/2000/svg" xmlns:xlink="http://www.w3.org/1999/xlink" x="0px" y="0px"
	 viewBox="0 0 196.8 71.5" style="enable-background:new 0 0 196.8 71.5;" xml:space="preserve">
<style type="text/css">
	.st0{fill:#4C4C4C;}
</style>
<g id="LvcywM_00000031175901598242112480000005304395062429920897_">
	<g>
		<path class="st0" d="M37.1,2.1c0.2,0.1,0.3,0,0.5,0.1c1.9,0.1,3.7,0.6,5.4,1.7c2.4,1.6,3.8,3.8,4.2,6.6c0.1,0.6,0,0.6,0.6,0.6
			c1.6,0.1,3.3,0.4,4.8,0.9c1.7,0.6,3.3,1.5,4.6,2.8c2.1,1.9,3.3,4.3,3.7,7.1c0.3,2.6-0.2,5-1.4,7.2c-1.7,2.9-4.2,4.8-7.4,5.7
			c-0.2,0-0.4,0.1-0.5,0.2c0,0.1,0.1,0.1,0.2,0.1c0.9,0.4,1.9,0.7,2.8,1c2.3,0.9,4.3,2.2,6,3.9c0.1,0.1,0.1,0.1,0.2,0.1
			c0.1-0.1,0.1-0.2,0.1-0.3c0.2-1.7,0.7-3.3,1.7-4.8c1.1-1.8,2.6-3,4.6-3.8c1.3-0.6,2.7-0.9,4.2-1c2-0.1,4,0.2,5.8,1.1
			c2.4,1.1,4,3,4.9,5.4c0.4,1.1,0.6,2.3,0.7,3.5c0.1,1.9-0.1,3.7-0.8,5.4c-0.7,1.8-1.8,3.2-3.4,4.3c-1.8,1.3-3.8,1.9-5.9,2.1
			c-2.3,0.2-4.4-0.2-6.4-1.3c-0.2-0.1-0.4-0.2-0.6-0.3c-0.1,0-0.1,0.1-0.1,0.1c0.2,2.9-0.2,5.7-1.3,8.3c-0.7,1.7-1.7,3.2-2.9,4.6
			c-2.7,3-6,4.8-10,5.6c-0.5,0.1-1,0.2-1.5,0.2c-1,0-2.1,0-3.1,0c-0.4-0.1-0.9-0.1-1.3-0.2c-3.4-0.6-6.3-2-8.7-4.6
			c-1.1-1.2-2-2.6-2.6-4.2c-0.4-1.2-0.8-2.4-0.9-3.6c0-0.3-0.2-0.6-0.4-0.8c-0.7-0.6-1.3-1.3-2-2.1c-1.4-1.7-2.6-3.6-3.5-5.6
			C27.1,48,27,48,26.8,48.3c-0.5,0.6-1.1,1.2-1.7,1.7c-2,1.5-4.2,2.2-6.7,2.3c-1.3,0-2.6-0.1-3.8-0.5c-2.1-0.6-3.8-1.8-5.1-3.5
			c-1.1-1.5-1.8-3.3-2.1-5.2c0-0.2,0-0.3-0.1-0.5c0-0.8,0-1.7,0-2.5c0.1-0.1,0.1-0.3,0.1-0.4c0.1-1,0.4-1.9,0.7-2.8
			c0.8-1.9,2-3.6,3.8-4.7c2.6-1.6,5.4-2.1,8.5-1.7c1.6,0.2,3.1,0.8,4.5,1.7c0.3,0.2,0.3,0.2,0.4-0.2c0,0,0,0,0,0
			c0.3-1.7,0.7-3.3,1.2-4.9c0.1-0.2,0.1-0.5,0-0.7c-0.4-0.9-0.8-1.8-1.2-2.8c-1-2.7-1.5-5.4-1.3-8.2c0.1-2,0.6-3.9,1.5-5.7
			c0.9-1.9,2.2-3.4,3.8-4.7c2.2-1.7,4.7-2.6,7.5-2.7c0.1,0,0.2,0,0.3,0C37,2.1,37,2.1,37.1,2.1z M39.2,35.3
			C39.2,35.3,39.1,35.3,39.2,35.3c0,1.9,0,3.8,0,5.8c0,0.8,0,1.6,0.2,2.4c0.2,1.4,0.6,2.7,1.3,3.9c0.8,1.4,1.9,2.4,3.5,2.9
			c1.8,0.6,3.6,0.5,5.4-0.1c1.9-0.6,3-1.9,3.5-3.8c0.4-1.5,0.4-3,0.1-4.5c-0.2-1.1-0.7-2.1-1.4-2.9c-1.2-1.3-2.7-1.8-4.4-2
			c-0.7-0.1-1.4-0.1-2-0.1c-0.9,0-1.9,0-2.8,0c-0.3,0-0.4,0-0.4-0.3c0-0.8,0-1.7,0-2.5c0-0.3,0.1-0.3,0.3-0.3c0.1,0,0.2,0,0.3,0
			c1.1,0,2.2,0,3.3,0c0.7,0,1.4-0.1,2-0.3c1.1-0.3,2-0.9,2.5-1.9c0.9-1.6,1.2-3.3,0.8-5.1c-0.3-1.2-1-2.2-2.1-2.8
			c-0.9-0.5-1.8-0.8-2.8-0.9c-0.8-0.1-1.6-0.2-2.4-0.2c-2.5,0-5.1,0-7.6,0c-0.5,0-0.9-0.1-1.3-0.3c-0.8-0.4-1.3-1.5-1.1-2.3
			c0-0.2,0.1-0.3,0.3-0.3c0.1,0,0.2,0,0.3,0c1.3,0,2.5,0,3.8,0c0.2,0,0.3,0,0.5,0c0.9-0.2,1.9-0.4,2.7-0.7c1.1-0.4,2-0.9,2.8-1.7
			c1.5-1.5,2.1-3.3,2.2-5.4c0-0.3,0-0.3-0.4-0.3c-0.6,0-1.3,0-1.9,0.1C42.1,12,40,12.6,38,13.7c-2.4,1.2-4.5,2.9-6.2,5
			c-1.9,2.3-3.4,4.8-4.5,7.6c-0.1,0.3-0.1,0.5,0.1,0.7c0.6,0.9,1.2,1.7,1.9,2.5c1.3,1.4,2.9,2.6,4.6,3.4c0.4,0.2,0.5,0.2,0.5-0.3
			c0-2.3,0-4.5,0-6.8c0-0.1,0-0.2,0-0.3c0-0.3,0-0.3,0.3-0.4c0.6-0.1,1.3-0.1,1.9,0c0.4,0.1,0.8,0.2,1.1,0.4c0.8,0.5,1.1,1.2,1.3,2
			c0.1,0.6,0.2,1.1,0.2,1.7C39.2,31.2,39.2,33.2,39.2,35.3z M57.4,39.6C57.4,39.6,57.4,39.6,57.4,39.6c0,0.1,0,0.2,0.1,0.2
			c0.9,1.7,1.1,3.6,0.8,5.5c-0.3,2-1.1,3.7-2.6,5c-1.3,1.1-2.8,1.9-4.4,2.4c-1.7,0.6-3.5,0.8-5.3,0.7c-1.9,0-3.7-0.4-5.4-1.1
			c-1.6-0.7-2.9-1.6-4-3c-0.9-1.2-1.4-2.5-1.8-3.9c-0.3-1.5-0.5-2.9-0.5-4.4c0-2.3,0-4.6,0-7c0-0.3-0.1-0.5-0.4-0.7
			c-2.9-1.3-5.2-3.2-6.9-5.9c0-0.1-0.1-0.1-0.2-0.1c-0.1,0.1-0.1,0.2-0.1,0.2c-0.5,1.6-0.9,3.2-1.1,4.8c0,0.2,0,0.4,0.2,0.5
			c0.6,0.6,1.2,1.2,1.6,1.9c1,1.7,1.5,3.5,1.6,5.4c0.1,2.4-0.2,4.7-1.5,6.9c-0.1,0.2-0.1,0.3,0,0.5c0.1,0.2,0.2,0.4,0.3,0.7
			c1.2,2.6,2.7,4.9,4.8,6.9c0.1,0.1,0.1,0.2,0.3,0.2c0.1-0.1,0-0.2,0-0.3c0-0.5,0-1.1,0-1.6c0-0.5,0.1-0.9,0.1-1.4
			c0-0.3,0.1-0.5,0.3-0.7c0.2-0.2,0.3-0.3,0.6-0.2c0.3,0.1,0.4,0.3,0.4,0.5c0.1,0.3,0.1,0.7,0,1C34.1,53.8,34,55,34,56.2
			c0,0.3,0.1,0.5,0.3,0.6c0.7,0.5,1.4,0.9,2.1,1.3c2.3,1.2,4.7,1.9,7.3,2.1c2,0.1,3.9,0,5.9-0.5c2.1-0.6,4-1.4,5.6-2.8
			c1.8-1.5,3-3.4,3.6-5.7c0.6-2,0.7-4,0.5-6.1c-0.1-0.9-0.2-1.8-0.5-2.7c-0.3-1-0.7-1.9-1.3-2.7C57.5,39.8,57.5,39.6,57.4,39.6z
			 M34.1,57.3c0,0.1,0,0.2,0,0.2c0,0.4,0.1,0.7,0.1,1.1c0.4,2.2,1.3,4.1,2.8,5.7c1.6,1.7,3.5,2.9,5.7,3.7c2.7,0.9,5.4,1.2,8.2,0.6
			c2.2-0.4,4.3-1.2,6.2-2.3c1-0.5,1.9-1.2,2.7-2c1.7-1.7,3.1-3.7,4-5.9c0.8-2,1.3-4.1,1.3-6.3c0-0.6,0-1.1-0.1-1.7
			c0-0.3-0.1-0.5-0.3-0.6c-0.6-0.5-1.2-1-1.6-1.7c-1.5-2-2.2-4.2-2.2-6.7c0-0.3-0.1-0.5-0.3-0.8c-1.2-1.2-2.5-2.2-3.9-3.1
			c-0.1-0.1-0.3-0.2-0.5-0.3c0.1,0.2,0.2,0.2,0.2,0.3c0.5,0.4,0.9,0.9,1.3,1.4c1.5,1.9,2.3,4.2,2.4,6.6c0.1,1.1,0,2.2-0.1,3.3
			c-0.3,1.7-0.7,3.4-1.6,5c-1.6,2.9-4,4.9-7.2,6c-1.4,0.5-2.8,0.7-4.3,0.9c-1.6,0.1-3.2,0.1-4.8-0.2c-2.8-0.5-5.3-1.6-7.7-3.2
			C34.3,57.4,34.2,57.3,34.1,57.3z M26.7,25.9c0.1-0.1,0.1-0.2,0.2-0.3c0.8-1.9,1.8-3.8,3.1-5.5c1.8-2.6,4.1-4.7,6.8-6.3
			c2.3-1.3,4.7-2.1,7.3-2.5c0.7-0.1,1.5-0.2,2.2-0.2c0.3,0,0.3-0.1,0.3-0.4c0-0.1,0-0.3-0.1-0.4c-0.3-2.4-1.5-4.3-3.5-5.7
			c-2.4-1.7-5.2-2.3-8.1-1.7c-3.3,0.6-5.9,2.3-8,4.9c-1.7,2.3-2.6,4.9-2.8,7.7c-0.1,1.5,0,3,0.3,4.5c0.4,1.9,1.1,3.8,1.9,5.5
			C26.6,25.7,26.6,25.8,26.7,25.9z M24.3,41.3c0-0.4,0-0.8-0.1-1.3c-0.1-1.2-0.3-2.4-0.8-3.5c-0.5-1.2-1.3-2.1-2.3-2.8
			c-1.1-0.6-2.2-0.9-3.4-0.8c-1.4,0.1-2.5,0.6-3.6,1.5c-0.9,0.8-1.4,1.8-1.7,3c-0.5,1.8-0.7,3.7-0.4,5.6c0.3,1.7,0.9,3.3,2,4.6
			c1.6,1.9,4.3,2.5,6.5,1.5c1.7-0.8,2.7-2.1,3.3-3.9C24.2,44,24.3,42.7,24.3,41.3z M77.9,41.3c0-1.2-0.1-2.5-0.5-3.7
			c-0.3-1.1-0.8-2.1-1.6-2.9c-1.5-1.6-3.4-2-5.5-1.6C69.1,33.3,68,34,67.2,35c-0.6,0.8-1,1.7-1.3,2.6c-0.4,1.3-0.5,2.7-0.4,4.1
			c0,1.4,0.3,2.7,0.9,4c0.4,0.9,0.9,1.7,1.6,2.4c1.7,1.6,4.2,2.1,6.3,1c1.7-0.9,2.7-2.2,3.2-4.1C77.8,43.8,77.9,42.6,77.9,41.3z
			 M53.5,33.8c0.1,0,0.1,0,0.1,0c2.1-1,3.9-2.4,5.1-4.4c1.6-2.6,2.1-5.4,1.4-8.4c-0.5-2.6-1.8-4.7-3.9-6.3c-1.8-1.4-3.8-2.3-6-2.7
			c-0.9-0.2-1.8-0.3-2.6-0.3c-0.3,0-0.3,0-0.3,0.3c0,0.3,0,0.7-0.1,1c-0.1,1.2-0.5,2.3-1.1,3.3c-0.9,1.5-2.2,2.5-3.8,3.2
			c-0.3,0.1-0.6,0.2-0.9,0.4c0.3,0,0.6,0,0.8,0c1.6,0,3.3-0.1,4.9,0.1c1.5,0.1,3,0.5,4.4,1.1c1.2,0.5,2.3,1.3,3.1,2.3
			c1.4,1.8,1.9,3.8,1.5,6c-0.3,1.8-1.1,3.2-2.5,4.4C53.6,33.7,53.5,33.7,53.5,33.8z"/>
		<path class="st0" d="M189.6,42.1c-0.1,0.4-0.1,0.8-0.1,1.2c-0.2,1.3-0.6,2.6-1.3,3.8c-1,1.6-2.4,2.9-4,3.7c-1.5,0.8-3,1.2-4.6,1.3
			c-2,0.2-4-0.2-5.9-1c-2.3-1.1-3.9-2.7-4.9-5c-0.6-1.3-0.9-2.7-1-4.1c-0.1-2.4,0.4-4.7,1.7-6.8c1.3-2,3.1-3.4,5.3-4.2
			c1.1-0.4,2.3-0.6,3.5-0.7c2.2-0.1,4.2,0.3,6.1,1.3c2,1,3.4,2.6,4.3,4.7c0.5,1.1,0.7,2.2,0.9,3.3c0,0.3,0,0.6,0.1,0.9
			C189.6,41,189.6,41.6,189.6,42.1z M184.9,41.1c0-0.3,0-0.9-0.1-1.4c-0.1-1.3-0.4-2.5-1-3.7c-1.4-2.7-4.4-3.7-7-2.8
			c-1.8,0.6-3,1.8-3.6,3.5c-0.8,2.2-0.9,4.5-0.5,6.7c0.3,1.5,0.9,2.9,1.9,4.1c1.4,1.7,3.7,2.5,5.9,1.7c2.1-0.7,3.4-2.2,4-4.3
			C184.8,43.9,184.9,42.6,184.9,41.1z"/>
		<path class="st0" d="M134.9,30.3c0.7,0.1,1.5,0.1,2.2,0.3c1,0.2,2,0.5,2.9,0.9c1.7,0.9,2.7,2.3,3.1,4.1c0.2,0.7,0.3,1.5,0.3,2.3
			c0,4.5,0,8.9,0,13.4c0,0.1,0,0.1,0,0.2c0,0.1-0.1,0.2-0.2,0.2c0,0-0.1,0-0.1,0c-0.7,0-1.5,0-2.2-0.2c-1-0.3-1.6-0.9-1.8-1.9
			c0,0,0-0.1,0-0.1c-0.2,0-0.2,0.1-0.3,0.2c-0.7,0.6-1.4,1.2-2.2,1.6c-1.1,0.5-2.2,0.8-3.4,0.9c-1.2,0.1-2.4-0.1-3.6-0.4
			c-2.4-0.7-4-2.5-4.2-5c-0.2-1.7,0.2-3.2,1.2-4.6c0.5-0.7,1.2-1.3,2-1.7c1.4-0.8,3-1.3,4.6-1.5c0.8-0.1,1.5-0.1,2.3-0.1
			c1,0,2,0,3.1,0c0.4,0,0.4,0,0.4-0.4c0-0.6,0.1-1.1-0.1-1.7c-0.4-1.9-1.5-3.1-3.4-3.6c-0.9-0.2-1.8-0.3-2.7-0.2
			c-1.7,0.1-3.3,0.5-4.9,1.1c-0.5,0.2-0.5,0.1-0.5-0.4c0-0.6,0-1.3,0-1.9c0-0.4,0-0.4,0.4-0.5c1.3-0.4,2.6-0.9,3.9-1.5
			c2-0.9,3.8-2.1,5.4-3.6c0.5-0.5,1-1,1.4-1.6c0.2-0.3,0.4-0.3,0.7-0.3c1,0,1.9,0,2.9,0c0.1,0,0.3-0.1,0.3,0.1
			c0.1,0.1-0.1,0.2-0.1,0.3c-0.8,1.2-1.8,2.2-3,3.1c-1.1,0.9-2.4,1.6-3.6,2.2C135.4,30.1,135.2,30.2,134.9,30.3z M138.9,43.4
			C138.9,43.4,138.9,43.4,138.9,43.4c0-0.5,0-1,0-1.6c0-0.3,0-0.4-0.3-0.4c-1.3,0-2.6-0.1-4,0.1c-0.9,0.1-1.8,0.3-2.6,0.6
			c-1,0.5-1.8,1.2-2,2.4c-0.2,0.9-0.2,1.7,0,2.6c0.3,1.1,1,1.9,2.1,2.3c0.7,0.2,1.4,0.2,2.1,0.1c1.1-0.2,2.1-0.7,3-1.5
			c1-0.9,1.6-2.1,1.6-3.5C138.9,44.2,138.9,43.8,138.9,43.4z"/>
		<path class="st0" d="M90.6,40.3c0,1.9,0,3.8,0,5.8c0,0.5,0,0.9,0.2,1.3c0.3,1.1,1,1.8,2.1,2.1c0.8,0.2,1.6,0.2,2.4,0.1
			c0.4,0,0.8-0.1,1.3-0.2c0.3-0.1,0.3,0,0.4,0.2c0.2,0.6,0.3,1.2,0.4,1.7c0.1,0.3,0,0.3-0.3,0.4c-0.7,0.2-1.4,0.3-2.2,0.4
			c-0.7,0.1-1.4,0.1-2.1,0.1c-0.9,0-1.9-0.2-2.8-0.5c-1.9-0.7-3.1-2.1-3.8-4c-0.3-0.9-0.4-1.8-0.4-2.7c0-6.8,0-13.6,0-20.4
			c0,0,0-0.1,0-0.1c0-0.3,0-0.3,0.3-0.3c0.3-0.1,0.6,0,0.9,0c0.4,0,0.9,0.1,1.3,0.2c1.3,0.3,2.1,1.2,2.1,2.6c0.1,1.1,0,2.3,0,3.4
			c0,0.7,0,0.6,0.6,0.6c1.8,0,3.6,0,5.4,0c0.5,0,0.6,0,0.6,0.5c0,0.6,0,1.2,0,1.8c0,0.4,0,0.5-0.5,0.5c-1.8,0-3.7,0-5.5,0
			c-0.6,0-0.6,0-0.6,0.6C90.6,36.2,90.6,38.3,90.6,40.3C90.6,40.3,90.6,40.3,90.6,40.3z"/>
		<path class="st0" d="M123.7,32.5c0,0.4,0,0.8,0,1.1c0,0.3-0.1,0.3-0.3,0.2c-0.9-0.4-1.8-0.7-2.8-0.8c-1.5-0.2-3,0-4.4,0.6
			c-1.7,0.8-2.8,2.1-3.3,3.9c-0.3,0.9-0.4,1.9-0.5,2.9c-0.1,1.2,0.1,2.5,0.3,3.7c0.2,1,0.6,2,1.2,2.9c0.7,1.1,1.7,1.8,2.9,2.1
			c1.8,0.6,3.7,0.5,5.5-0.1c0.3-0.1,0.6-0.2,0.8-0.4c0.3-0.1,0.3-0.1,0.4,0.1c0.2,0.7,0.4,1.4,0.6,2.1c0.1,0.2,0,0.3-0.2,0.4
			c-0.9,0.3-1.8,0.6-2.7,0.7c-2.5,0.4-5,0.3-7.4-0.5c-0.7-0.2-1.5-0.5-2.1-1c-1.4-0.9-2.4-2.1-3.1-3.6c-0.6-1.3-0.9-2.7-1-4.1
			c-0.1-1.4-0.1-2.8,0.2-4.2c0.6-2.5,1.9-4.6,4-6.2c1.4-1,2.9-1.6,4.5-1.9c2.3-0.4,4.6-0.3,6.8,0.4c0.5,0.2,0.5,0.2,0.5,0.7
			C123.7,31.9,123.7,32.2,123.7,32.5C123.7,32.5,123.7,32.5,123.7,32.5z"/>
		<path class="st0" d="M151.6,43.8c0,2.4,0,4.7,0,7.1c0,0.1,0,0.2,0,0.3c0,0.4,0,0.4-0.4,0.4c-1.3,0-2.6,0-3.9,0
			c-0.3,0-0.4,0-0.4-0.4c0-0.1,0-0.1,0-0.2c0-4.3,0-8.6,0-12.8c0-0.9,0.1-1.9,0.4-2.8c0.5-1.8,1.6-3.2,3.3-4.1
			c0.8-0.4,1.7-0.6,2.6-0.7c1.4-0.2,2.8,0,4.2,0.1c0.4,0.1,0.4,0.1,0.5,0.5c0,0.6,0,1.2,0,1.8c0,0.4,0,0.4-0.4,0.4
			c-0.8-0.2-1.7-0.3-2.6-0.2c-0.4,0-0.7,0.1-1.1,0.2c-1,0.3-1.7,1-2,2.1c-0.1,0.5-0.2,0.9-0.2,1.4C151.6,39.1,151.6,41.5,151.6,43.8
			C151.6,43.8,151.6,43.8,151.6,43.8z"/>
		<path class="st0" d="M99.8,41.2c0-3.3,0-6.5,0-9.8c0-0.6,0-0.6,0.6-0.6c1.2,0,2.5,0,3.7,0c0.4,0,0.4,0,0.4,0.4c0,0.1,0,0.1,0,0.2
			c0,6.5,0,13,0,19.5c0,0.6,0,0.6-0.6,0.6c-1.2,0-2.3,0-3.5,0c-0.1,0-0.2,0-0.3,0c-0.1,0-0.2-0.1-0.2-0.2c0-0.1,0-0.3,0-0.4
			C99.8,47.7,99.8,44.4,99.8,41.2z"/>
		<path class="st0" d="M159.9,41.2c0-3.3,0-6.5,0-9.8c0-0.6,0-0.6,0.6-0.6c1.2,0,2.5,0,3.7,0c0.4,0,0.4,0,0.4,0.4c0,0.1,0,0.2,0,0.3
			c0,6.5,0,12.9,0,19.4c0,0.2,0,0.3,0,0.5c0,0.1-0.1,0.2-0.2,0.2c-0.1,0-0.2,0-0.3,0c-1.2,0-2.5,0-3.7,0c-0.1,0-0.2,0-0.3,0
			c-0.1,0-0.2-0.1-0.2-0.2c0-0.1,0-0.3,0-0.4C159.9,47.7,159.9,44.4,159.9,41.2z"/>
	</g>
</g>
</svg>
