<?xml version="1.0" encoding="utf-8"?>
<!-- Generator: Adobe Illustrator 27.1.1, SVG Export Plug-In . SVG Version: 6.00 Build 0)  -->
<svg version="1.1" id="Camada_1" xmlns="http://www.w3.org/2000/svg" xmlns:xlink="http://www.w3.org/1999/xlink" x="0px" y="0px"
	 viewBox="0 0 147.3 71.5" style="enable-background:new 0 0 147.3 71.5;" xml:space="preserve">
<style type="text/css">
	.st0{fill:#4C4C4C;}
</style>
<g id="MKFeYd_00000023962991646515440320000011985364735562425241_">
	<g>
		<g>
			<path class="st0" d="M8.7,21c2.1,0.9,2.8,2.6,2.7,4.8c-0.1,1.9,0,3.9,0,5.9c0.2,0,0.3,0,0.4-0.1c4-3.9,12.8-3,14.8,5.1
				c0.9,3.6,0.5,7.1-1.7,10.1c-3.1,4.3-9.3,4.9-13.1,1.3c-0.1-0.1-0.2-0.2-0.3-0.3c0,0.1-0.1,0.2-0.1,0.3c0.1,2.1-0.1,1.9-2.1,1.9
				c-2.8,0-2.8,0-2.8-2.8c0-8.3,0-16.6,0-24.8c0-0.5,0-1,0-1.4C7.2,21,8,21,8.7,21z M21.8,40c0-0.5,0-1-0.1-1.4
				c-0.3-2.5-1.9-4.3-4.2-4.8c-2.2-0.4-4.4,0.5-5.4,2.6c-1.3,2.6-1.2,5.2,0.3,7.7c1.1,1.7,2.8,2.4,4.8,2.2c2-0.2,3.3-1.3,4-3.1
				C21.7,42,21.8,41,21.8,40z"/>
			<path class="st0" d="M140.9,45.1c-1.1,4.1-4.5,5.4-7.9,5.4c-3,0-5.8-0.7-8.4-2.4c-0.7-0.5-0.9-0.9-0.3-1.6c0.5-0.6,1-1.3,1.4-2
				c0.3-0.5,0.6-0.5,1.1-0.2c1.4,1.1,3,1.8,4.8,2c1,0.1,2,0.1,2.9-0.2c0.8-0.3,1.4-0.8,1.5-1.8c0-1-0.5-1.5-1.3-1.7
				c-1.7-0.5-3.4-0.8-5-1.3c-1.9-0.5-3.5-1.5-4.4-3.4c-1.4-3,0.1-6.6,3.4-7.8c4.2-1.6,8-0.6,11.5,1.8c0.4,0.3,0.4,0.6,0.3,1
				c-0.5,1.5-2,2.2-3.7,1.8c-1.2-0.3-2.3-1-3.6-1.1c-0.8-0.1-1.7-0.1-2.5,0.2c-0.7,0.3-1.3,0.7-1.3,1.6c0,0.9,0.4,1.4,1.2,1.6
				c1.2,0.4,2.5,0.6,3.7,0.9c0.8,0.2,1.5,0.4,2.3,0.6c2,0.7,3.5,1.9,4.1,4.1C140.9,43.4,140.9,44.3,140.9,45.1z"/>
			<path class="st0" d="M106.7,21c2,0.8,2.8,2.3,2.8,4.4c-0.1,7.7,0,15.4,0,23.1c0,1.4-0.2,1.6-1.5,1.4c-1.9-0.2-3.1-1.3-3.4-3.2
				c-0.1-0.5-0.1-1-0.1-1.5c0-7.6,0-15.2,0-22.7c0-0.5-0.1-1,0.2-1.5C105.3,21,106,21,106.7,21z"/>
			<path class="st0" d="M117.3,21c2.1,0.7,2.9,2.2,2.9,4.4c0,7.7,0,15.4,0,23.1c0,1.4-0.2,1.6-1.5,1.4c-2.2-0.2-3.5-1.6-3.5-3.9
				c0-3,0-6.1,0-9.1c0-5.3,0-10.6,0-16C115.9,21,116.6,21,117.3,21z"/>
			<path class="st0" d="M61.8,42.4c1.3-3.3,2.5-6.5,3.8-9.6c1-2.5,2-5,2.9-7.6c0.7-2,2.2-3,4.2-3.3c0.9-0.1,1.8-0.1,2.8,0.1
				c0.7,0.1,0.9,0.4,0.9,1.1c0,3.6,0,7.3,0,10.9c0,4.8,0,9.6,0,14.4c0,1.5,0,1.5-1.6,1.6c-0.7,0-1.3,0-2,0c-1.4,0-1.4-0.1-1.4-1.4
				c0-4.5,0-8.9,0-13.4c0-1.6,0-3.2,0-5c-0.7,1.7-1.3,3.2-1.9,4.7c-1.9,4.7-3.7,9.4-5.5,14.1c-0.3,0.8-0.7,1-1.6,1
				c-2.6,0-2.6,0-3.5-2.4c-2.2-5.7-4.5-11.3-6.9-17c0,0.3,0,0.6,0,1c0,5.7,0,11.3,0,17c0,1.2-0.1,1.3-1.3,1.3c-0.8,0-1.6,0-2.4,0
				c-0.9,0.1-1.2-0.3-1.2-1.2c0-3,0-5.9,0-8.9c0-5.5,0-11.1,0-16.6c0-0.9,0.3-1.3,1.2-1.4c2.3-0.2,4.4,0,6,1.9
				c0.3,0.4,0.5,0.9,0.7,1.4c2.1,5.4,4.3,10.9,6.4,16.3C61.5,41.8,61.6,42,61.8,42.4z"/>
			<path class="st0" d="M94.4,47.5c-3,2.9-6.6,3.7-9.9,2.3c-2-0.9-3.2-2.5-3.4-4.6c-0.2-2.2,0.6-3.9,2.4-5.2
				c1.2-0.9,2.7-1.4,4.1-1.7c1.9-0.5,3.8-1,5.7-1.4c0.8-0.2,0.9-0.6,0.6-1.3c-0.5-1.2-1.4-1.7-2.6-1.9c-1.8-0.2-3.4,0.2-4.9,1.2
				c-0.6,0.4-1.2,0.8-2,1c-0.7,0.2-1.3,0.1-2-0.2c-1.5-0.7-1.7-1.6-0.5-2.7c3-2.8,6.5-4.1,10.6-3.4c4.2,0.7,6.5,3.3,6.6,7.5
				c0.1,4,0,8,0,11.9c0,0.8-0.3,1.1-1.1,1.1c-0.9,0-1.7,0-2.6,0c-0.9,0.1-1.2-0.4-1.1-1.2C94.4,48.5,94.4,48.1,94.4,47.5z
				 M88.8,46.4c2.8,0,5.3-2.4,5.4-5.1c0-0.3,0.1-0.8-0.5-0.7c-2.1,0.5-4.3,0.8-6.3,1.7c-0.7,0.3-1.2,0.9-1.3,1.8
				C86.1,45.5,87,46.4,88.8,46.4z"/>
			<path class="st0" d="M36,33c0.6-0.9,1.3-1.7,2.1-2.3c1.5-1.1,3.1-1.2,4.9-1c0.5,0,0.7,0.3,0.6,0.8c-0.1,1.1-0.2,2.1-0.3,3.2
				c0,0.4-0.3,0.6-0.7,0.5c-4-0.1-6.1,1.9-6.2,6c-0.1,2.8-0.1,5.7,0,8.5c0,1-0.3,1.3-1.3,1.3c-1-0.1-1.9,0-2.9,0
				c-0.7,0-0.9-0.3-0.9-1c0-6.1,0-12.2,0-18.2c0-0.9,0.4-1.1,1.2-1.1C34.2,29.7,35.2,30.6,36,33z"/>
		</g>
	</g>
</g>
</svg>
