<?xml version="1.0" encoding="utf-8"?>
<!-- Generator: Adobe Illustrator 27.1.1, SVG Export Plug-In . SVG Version: 6.00 Build 0)  -->
<svg version="1.1" id="Camada_1" xmlns="http://www.w3.org/2000/svg" xmlns:xlink="http://www.w3.org/1999/xlink" x="0px" y="0px"
	 viewBox="0 0 184.5 71.5" style="enable-background:new 0 0 184.5 71.5;" xml:space="preserve">
<style type="text/css">
	.st0{fill:#FFFFFF;}
	.st1{fill:#009E59;}
	.st2{fill:#777777;}
	.st3{fill:#D92031;}
	.st4{fill:#4C4C4C;}
</style>
<g>
	<g id="g364">
		<g id="g370" transform="translate(441.5488,865.5096)">
			<path id="path372" class="st0" d="M-318.4-839.2c-0.8-0.9-2.2-1.4-4.3-1.4c-2,0-3.6,0.5-4.8,1.5c-1.2,1-2,2.4-2.4,4.3l-3.3,15.7
				h4.3l2.4-11.5h3.4l-2.4,11.5h4.3l3.3-15.7C-317.5-836.8-317.6-838.3-318.4-839.2 M-322-835.7l-0.5,2.3h-3.4l0.5-2.3
				c0.2-0.9,0.4-1.5,0.8-1.9c0.3-0.3,0.8-0.6,1.5-0.6c0.6,0,1,0.2,1.2,0.6C-321.8-837.2-321.8-836.6-322-835.7"/>
		</g>
		<g id="g374" transform="translate(473.0671,868.9274)">
			<path id="path376" class="st0" d="M-336.5-844.1l-3.3,15.4c-0.3,1.2-0.6,2.1-0.9,2.5c-0.3,0.5-0.8,0.7-1.4,0.7
				c-0.6,0-1-0.3-1.1-0.7c-0.1-0.5-0.1-1.3,0.2-2.5l3.3-15.4h-4.3l-3.3,15.5c-0.4,2.1-0.3,3.6,0.5,4.6c0.8,1.1,2.2,1.6,4.1,1.6
				c2,0,3.6-0.5,4.8-1.5c1.2-1,2-2.6,2.4-4.7l3.3-15.5H-336.5z"/>
		</g>
		<g id="g378" transform="translate(554.1477,864.5522)">
			<path id="path380" class="st0" d="M-383.1-837.9c-0.8-1.3-2.2-2-4.3-2c-2.1,0-3.8,0.7-5.2,2.2c-1.3,1.5-2.5,4.4-3.4,8.8
				c-0.9,4.3-1,7.2-0.3,8.7c0.8,1.5,2.2,2.2,4.3,2.2c2.1,0,3.8-0.8,5.2-2.2c1.4-1.5,2.5-4.4,3.4-8.7
				C-382.5-833.5-382.4-836.5-383.1-837.9 M-386.9-834.8c-0.1,1.4-0.4,3.3-1,5.9c-0.6,2.6-1,4.6-1.5,5.9c-0.5,1.4-1.1,2.1-2,2.1
				c-0.9,0-1.3-0.6-1.2-1.8c0.1-1.2,0.4-3.3,1-6.2c0.5-2.6,1-4.5,1.5-5.9c0.5-1.4,1.2-2.1,2.1-2.1
				C-387.2-836.9-386.8-836.2-386.9-834.8"/>
		</g>
		<g id="g382" transform="translate(294.7666,845.2723)">
			<path id="path384" class="st0" d="M-233.9-810.4l0.6-2.8l0.4-1.9c0.2-1,0.6-1.7,1-2.1c0.4-0.4,1.1-0.6,2.1-0.6h3.1l0.5-2.4h-4.2
				c-2.2,0-3.7,0.4-4.7,1.1c-1,0.8-1.7,2.2-2.1,4.4l-2.2,10.4c-0.4,1.8-0.2,3.2,0.5,4.1c0.7,0.9,2,1.4,3.8,1.4h4.9l0.5-2.4h-3.2
				c-1.1,0-1.8-0.3-2.1-0.8c-0.3-0.6-0.3-1.5-0.1-2.7L-233.9-810.4z"/>
		</g>
		<g id="g386" transform="translate(517.7102,865.5776)">
			<path id="path388" class="st0" d="M-362.2-839.3c-0.6-0.8-1.9-1.2-3.7-1.2h-6.6l-4.5,21.4h4.3l2.1-9.9h1.8c0.5,0,0.9,0.1,1.1,0.4
				c0.2,0.3,0.3,0.7,0.2,1.2l-1.7,8.2h4.1l1.7-8.1c0.2-0.9,0.1-1.7-0.3-2.4c-0.4-0.6-1.2-1-2.1-1.1c1.1-0.3,1.9-0.9,2.6-1.7
				c0.7-0.8,1.2-1.8,1.4-3.1C-361.3-837.3-361.5-838.5-362.2-839.3 M-366.2-834.9c-0.3,1.2-0.6,2-1,2.5c-0.4,0.5-0.9,0.7-1.6,0.7
				h-1.2l1.4-6.6h1.1c0.8,0,1.2,0.2,1.4,0.7C-365.9-837.1-365.9-836.2-366.2-834.9"/>
		</g>
		<g id="g390" transform="translate(267.3386,882.6508)">
			<path id="path392" class="st1" d="M-218.2-863.7h123.3c2.7,0,4.9,2.2,4.9,4.9v23.5c0,2.7-2.2,4.9-4.9,4.9h-123.3V-863.7z"/>
		</g>
		<g id="g394" transform="translate(267.3386,882.6508)">
			<path id="path396" class="st2" d="M-218.2-863.7h123.3c2.7,0,4.9,2.2,4.9,4.9v23.5c0,2.7-2.2,4.9-4.9,4.9h-123.3V-863.7z"/>
		</g>
		<g id="g398" transform="translate(179.4414,882.76)">
			<path id="path400" class="st3" d="M-167.6-863.8h36.1v33.6h-36.1c-2.6,0-4.7-2.1-4.7-4.7v-24.3
				C-172.3-861.7-170.2-863.8-167.6-863.8"/>
		</g>
	</g>
	<g id="g408">
		<g id="g414" transform="translate(214.6365,848.939)">
			<path id="path416" class="st0" d="M-187.9-815.6c-4.5,4.6-1,8.4,7.9,8.6l-0.9,1.5c-11.3-0.1-16-4.5-10.7-9.8c3.9-3.9,13-8,21-9.1
				l-0.7,1.3C-177.8-821.9-184.6-819-187.9-815.6"/>
		</g>
		<g id="g418" transform="translate(203.4172,848.257)">
			<path id="path420" class="st0" d="M-181.4-814.7c-5.8,5.7-0.7,10.4,11.4,10.5l-1.2,2.1c-0.4,0-0.9,0-1.3,0
				c-13.8,0-19.1-6.1-12.6-12.7c5.1-5.3,16.8-9.8,26.6-10.3l-0.6,1C-167.9-823-177.2-818.8-181.4-814.7"/>
		</g>
		<g id="g422" transform="translate(182.9636,848.3141)">
			<path id="path424" class="st0" d="M-169.6-814.7c6.1-6.2,19.9-11,32.2-11.5l-0.4,0.7c-10.6,0.5-22.4,5-27.8,10.6
				c-6.8,7-1.3,13.5,13.2,13.5c0.5,0,0.9,0,1.3,0l-1.3,2.2c-1.6,0.1-7.1,0.4-12.3-1.2C-173.3-803-175.4-808.9-169.6-814.7"/>
		</g>
		<g id="g426" transform="translate(238.5842,825.3331)">
			<path id="path428" class="st0" d="M-201.6-782c-0.8,0-1.7,0.1-2.3,0.1l0.8-1.5c0.6,0,1.4,0,2,0L-201.6-782z"/>
		</g>
		<g id="g430" transform="translate(233.7837,812.4088)">
			<path id="path432" class="st0" d="M-198.9-763.6c-1,0.1-2.3,0.2-3.1,0.3l1.1-2.2c0.7,0,1.9-0.1,2.8-0.2L-198.9-763.6z"/>
		</g>
		<g id="g434" transform="translate(236.1699,818.8004)">
			<path id="path436" class="st0" d="M-200.2-772.7c-0.7,0-1.6,0.1-2.7,0.1l1.1-2.1c0.9,0,1.7,0,2.4-0.1L-200.2-772.7z"/>
		</g>
		<g id="g438" transform="translate(179.4414,882.76)">
			<path id="path440" class="st4" d="M-167.6-863.8h36.1v33.6h-36.1c-2.6,0-4.7-2.1-4.7-4.7v-24.3
				C-172.3-861.7-170.2-863.8-167.6-863.8"/>
		</g>
		<g id="g442" transform="translate(214.0342,848.7808)">
			<path id="path444" class="st0" d="M-187.5-815.4c-4.5,4.6-1,8.4,7.9,8.6l-0.9,1.5c-11.3-0.1-16-4.5-10.7-9.8c3.9-3.9,13-8,21-9.1
				l-0.7,1.3C-177.5-821.6-184.2-818.8-187.5-815.4"/>
		</g>
		<g id="g446" transform="translate(202.8132,848.0994)">
			<path id="path448" class="st0" d="M-181.1-814.4c-5.8,5.7-0.7,10.4,11.4,10.5l-1.2,2.1c-0.4,0-0.9,0-1.3,0
				c-13.8,0-19.1-6.1-12.6-12.7c5.1-5.3,16.8-9.8,26.6-10.3l-0.6,1C-167.6-822.8-176.8-818.6-181.1-814.4"/>
		</g>
		<g id="g450" transform="translate(182.3613,848.1563)">
			<path id="path452" class="st0" d="M-169.3-814.5c6.1-6.2,19.9-11,32.2-11.5l-0.4,0.7c-10.6,0.5-22.4,5-27.8,10.6
				c-6.8,7-1.3,13.5,13.2,13.5c0.5,0,0.9,0,1.3,0l-1.3,2.2c-1.6,0.1-7.1,0.4-12.3-1.2C-173-802.7-175-808.7-169.3-814.5"/>
		</g>
		<g id="g454" transform="translate(237.9817,825.1755)">
			<path id="path456" class="st0" d="M-201.3-781.8c-0.8,0-1.7,0.1-2.3,0.1l0.8-1.5c0.6,0,1.4,0,2,0L-201.3-781.8z"/>
		</g>
		<g id="g458" transform="translate(233.1814,812.2496)">
			<path id="path460" class="st0" d="M-198.5-763.4c-1,0.1-2.3,0.2-3.1,0.3l1.1-2.2c0.7,0,1.9-0.1,2.8-0.2L-198.5-763.4z"/>
		</g>
		<g id="g462" transform="translate(235.5659,818.6436)">
			<path id="path464" class="st0" d="M-199.9-772.5c-0.7,0-1.6,0.1-2.7,0.1l1.1-2.1c0.9,0,1.7,0,2.4-0.1L-199.9-772.5z"/>
		</g>
		<g id="g466" transform="translate(333.2163,818.3852)">
			<path id="path468" class="st0" d="M-256-772.1h-4.9c-1.8,0-3.1-0.5-3.8-1.4c-0.7-0.9-0.9-2.3-0.5-4.1l2.2-10.4
				c0.5-2.2,1.2-3.6,2.1-4.4c1-0.7,2.5-1.1,4.7-1.1h4.2l-0.5,2.4h-3.1c-1,0-1.6,0.2-2.1,0.6c-0.4,0.4-0.8,1.1-1,2.1l-0.4,1.9h5.1
				l-0.6,2.8h-5.1l-1.2,5.5c-0.3,1.3-0.3,2.2,0.1,2.7c0.3,0.6,1,0.8,2.1,0.8h3.2L-256-772.1z"/>
		</g>
		<g id="g470" transform="translate(367.7129,818.3852)">
			<path id="path472" class="st0" d="M-275.9-772.1h-4.3l3.6-16.9c0.1-0.6,0.1-1.1-0.2-1.4c-0.3-0.3-0.8-0.5-1.5-0.5h-0.8l-4,18.8
				h-4.3l4.5-21.4h3.4h3.7c1.4,0,2.4,0.4,2.9,1.1c0.6,0.8,0.8,1.8,0.5,3.2L-275.9-772.1z"/>
		</g>
	</g>
	<g id="g480">
		<g id="g486" transform="translate(434.8491,818.3852)">
			<path id="path488" class="st0" d="M-314.5-772.1h-4.3l2.4-11.5h-3.4l-2.4,11.5h-4.3l3.3-15.7c0.4-1.9,1.2-3.3,2.4-4.3
				c1.2-1,2.8-1.5,4.8-1.5c2.1,0,3.5,0.5,4.3,1.4c0.8,1,0.9,2.4,0.5,4.4L-314.5-772.1z M-315.8-786.4l0.5-2.3c0.2-0.9,0.2-1.5,0-1.9
				c-0.2-0.3-0.6-0.6-1.2-0.6c-0.7,0-1.2,0.2-1.5,0.6c-0.3,0.4-0.6,1-0.8,1.9l-0.5,2.3H-315.8z"/>
		</g>
		<g id="g490" transform="translate(475.458,832.2638)">
			<path id="path492" class="st0" d="M-337.9-791.9c-0.4,2.1-1.3,3.7-2.4,4.7c-1.2,1-2.8,1.5-4.8,1.5c-1.9,0-3.3-0.5-4.1-1.6
				c-0.8-1-1-2.6-0.5-4.6l3.3-15.5h4.3l-3.3,15.4c-0.3,1.2-0.3,2-0.2,2.5c0.1,0.5,0.5,0.7,1.1,0.7c0.6,0,1-0.2,1.4-0.7
				c0.3-0.4,0.6-1.3,0.9-2.5l3.3-15.4h4.3L-337.9-791.9z"/>
		</g>
		<g id="g494" transform="translate(553.3298,843.4067)">
			<path id="path496" class="st0" d="M-382.6-807.7c-0.9,4.3-2.1,7.2-3.4,8.7c-1.4,1.5-3.1,2.2-5.2,2.2c-2.1,0-3.5-0.8-4.3-2.2
				c-0.8-1.5-0.7-4.4,0.3-8.7c0.9-4.4,2.1-7.3,3.4-8.8c1.4-1.5,3.1-2.2,5.2-2.2c2.1,0,3.6,0.7,4.3,2
				C-381.5-815.4-381.6-812.4-382.6-807.7 M-387.1-807.7c0.6-2.6,0.9-4.6,1-5.9c0.1-1.4-0.3-2.1-1.2-2.1c-0.9,0-1.6,0.7-2.1,2.1
				c-0.5,1.4-1,3.3-1.5,5.9c-0.6,2.8-1,4.9-1,6.2c-0.1,1.2,0.3,1.8,1.2,1.8c0.9,0,1.6-0.7,2-2.1
				C-388.1-803.2-387.6-805.2-387.1-807.7"/>
		</g>
		<g id="g498" transform="translate(303.3811,818.3852)">
			<path id="path500" class="st0" d="M-238.9-772.1h-4.9c-1.8,0-3.1-0.5-3.8-1.4c-0.7-0.9-0.9-2.3-0.5-4.1l2.2-10.4
				c0.5-2.2,1.2-3.6,2.1-4.4c1-0.7,2.5-1.1,4.7-1.1h4.2l-0.5,2.4h-3.1c-0.9,0-1.6,0.2-2.1,0.6c-0.4,0.4-0.8,1.1-1,2.1l-0.4,1.9
				l-0.6,2.8l-1.2,5.5c-0.3,1.3-0.2,2.2,0.1,2.7c0.3,0.6,1,0.8,2.1,0.8h3.2L-238.9-772.1z"/>
		</g>
		<g id="g502" transform="translate(508.2046,855.166)">
			<path id="path504" class="st0" d="M-356.7-824.5c0.3-1.3,0.3-2.2,0.1-2.7c-0.2-0.5-0.6-0.7-1.4-0.7h-1.1l-1.4,6.6h1.2
				c0.6,0,1.2-0.2,1.6-0.7C-357.3-822.5-356.9-823.3-356.7-824.5 M-357.9-817.1c0.1-0.6,0-1-0.2-1.2c-0.2-0.3-0.6-0.4-1.1-0.4h-1.8
				l-2.1,9.9h-4.3l4.5-21.4h6.6c1.8,0,3,0.4,3.7,1.2c0.7,0.8,0.8,2.1,0.4,3.7c-0.3,1.3-0.7,2.3-1.4,3.1c-0.7,0.8-1.5,1.3-2.6,1.7
				c1,0.1,1.7,0.5,2.1,1.1c0.4,0.6,0.5,1.4,0.3,2.4l-1.7,8.1h-4.1L-357.9-817.1z"/>
		</g>
		<g id="g506" transform="translate(333.2163,818.2503)">
			<path id="path508" class="st0" d="M-256-771.9h-4.9c-1.8,0-3.1-0.5-3.8-1.4c-0.7-0.9-0.9-2.3-0.5-4.1l2.2-10.4
				c0.5-2.2,1.2-3.6,2.1-4.4c1-0.7,2.5-1.1,4.7-1.1h4.2l-0.5,2.4h-3.1c-1,0-1.6,0.2-2.1,0.6c-0.4,0.4-0.8,1.1-1,2.2l-0.4,1.9h5.1
				l-0.6,2.8h-5.1l-1.2,5.5c-0.3,1.3-0.3,2.2,0.1,2.7c0.3,0.6,1,0.8,2.1,0.8h3.2L-256-771.9z"/>
		</g>
		<g id="g510" transform="translate(367.7129,818.2503)">
			<path id="path512" class="st0" d="M-275.9-771.9h-4.3l3.6-16.9c0.1-0.6,0.1-1.1-0.2-1.4c-0.3-0.3-0.8-0.5-1.5-0.5h-0.8l-4,18.8
				h-4.3l4.5-21.4h3.4h3.7c1.4,0,2.4,0.4,2.9,1.1c0.6,0.8,0.8,1.8,0.5,3.2L-275.9-771.9z"/>
		</g>
	</g>
	<g id="g514" transform="matrix(1.1301588,0,0,1.1301588,946.7196,281.33142)">
		<path id="path516" class="st0" d="M-739.9-224.7h-3.6l-3.5,16.8h-3.8l3.5-16.8h-3.5l0.4-2.1h10.9L-739.9-224.7z"/>
	</g>
</g>
</svg>
