<?xml version="1.0" encoding="utf-8"?>
<!-- Generator: Adobe Illustrator 27.1.1, SVG Export Plug-In . SVG Version: 6.00 Build 0)  -->
<svg version="1.1" id="Camada_1" xmlns="http://www.w3.org/2000/svg" xmlns:xlink="http://www.w3.org/1999/xlink" x="0px" y="0px"
	 viewBox="0 0 87 87" style="enable-background:new 0 0 87 87;" xml:space="preserve">
<style type="text/css">
	.st0{fill:none;stroke:#21A5DC;stroke-width:1.9589;stroke-miterlimit:8;}
</style>
<path class="st0" d="M44.3,22.8l5.4,12.1L62.2,36c0.8,0.1,1.2,1.1,0.6,1.7l-9.2,9.2l2.3,12c0.2,0.8-0.7,1.4-1.4,1.1l-11.1-5.6
	l-11.1,5.6c-0.7,0.4-1.5-0.3-1.4-1.1l2.3-11.9l-9.2-9.2c-0.6-0.6-0.2-1.6,0.6-1.7l12.5-1.1l5.4-12.1C42.9,22,44,22,44.3,22.8z"/>
<path class="st0" d="M63.5,41.1l2.1,4.5l6.5,0.6c0.4,0,0.6,0.6,0.3,0.8l-4.8,4.7l1.2,6.1c0.1,0.4-0.4,0.7-0.7,0.5l-5.8-2.9l-3.9,1.9
	"/>
<path class="st0" d="M22.8,41.1l-2.3,4.5l-7.2,0.6c-0.5,0-0.7,0.6-0.3,0.8l5.3,4.7l-1.3,6.1c-0.1,0.4,0.4,0.7,0.8,0.5l6.4-2.9
	l4.3,1.9"/>
</svg>
