<?xml version="1.0" encoding="utf-8"?>
<!-- Generator: Adobe Illustrator 27.0.1, SVG Export Plug-In . SVG Version: 6.00 Build 0)  -->
<svg version="1.1" id="Camada_1" xmlns="http://www.w3.org/2000/svg" xmlns:xlink="http://www.w3.org/1999/xlink" x="0px" y="0px"
	 viewBox="0 0 136 66" style="enable-background:new 0 0 136 66;" xml:space="preserve">
<style type="text/css">
	.st0{fill-rule:evenodd;clip-rule:evenodd;fill:#202043;}
	.st1{clip-path:url(#SVGID_00000041997838465600119340000017827159020155734964_);fill:#20A4DC;}
	.st2{fill:#000839;}
</style>
<g>
	<path class="st0" d="M103.1,45.8c-1.5,0-2.7-0.5-3.8-1.5C60.8,10,81.3,28,62.7,11.5h16c16.4,0,23.8,5.7,23.7,5.5l1.4,1.3l19.2-11.8
		c0.7-0.4,1.3-0.8,1.9-1c0.7-0.2,1.4-0.3,2.3-0.3h6.9c0.9,0,1.4,0.4,1.4,1.1c0,0.4-0.2,0.9-0.7,1.3l-25.4,15.8
		c2.4,2.1,7.4,6.6,22.3,20c0.5,0.4,0.7,0.8,0.7,1.3c0,0.8-0.6,1.3-1.7,1.3H103.1z"/>
	<g>
		<defs>
			<path id="SVGID_1_" d="M49.7,43.4c-0.5,0.3-0.7,0.8-0.7,1.3c0,0.7,0.5,1.1,1.4,1.1h6.9c0.9,0,1.7-0.1,2.3-0.3
				c0.7-0.2,1.3-0.6,1.9-1L84,30.6c-2.4-2.1-4.2-3.7-5.6-5L49.7,43.4z M35.7,20.9c-1.2,0-1.8,0.6-1.8,1.7v6.5c0,1.1,0.6,1.7,1.8,1.7
				h21.6c1.2,0,1.8-0.4,1.8-1.2v-7.5c0-0.8-0.6-1.2-1.8-1.2H35.7z M19.8,0.6c-3.3,0-6.2,0.5-8.6,1.4c-2.4,0.9-4.4,2.2-6,3.9
				c-1.6,1.7-2.8,3.6-3.6,5.9c-0.8,2.3-1.2,4.8-1.2,7.5V44c0,1.2,0.6,1.8,1.7,1.8h25.4c1.2,0,1.8-0.6,1.8-1.8V21.6
				c0-3.4,0.6-5.9,1.7-7.5c1.2-1.5,3.2-2.3,6.1-2.3h42.1c17.5,0,24.4,6,23.2,4.9C94.1,9,83.9,0.6,72.9,0.6H19.8z"/>
		</defs>
		<use xlink:href="#SVGID_1_"  style="overflow:visible;fill:#20A4DC;"/>
		<clipPath id="SVGID_00000135679476484928609550000013945831680673974693_">
			<use xlink:href="#SVGID_1_"  style="overflow:visible;"/>
		</clipPath>
		
			<rect x="0.3" y="0.6" style="clip-path:url(#SVGID_00000135679476484928609550000013945831680673974693_);fill:#20A4DC;" width="103.2" height="45.2"/>
	</g>
	<g>
		<path class="st2" d="M0.4,52.4H4c0.7,0,1.4,0.1,2.1,0.3c1.9,0.6,3,2,3,4.2c0,2.9-1.9,5-5,5H0.4L0.4,52.4z M3.7,60.3
			c1.3,0,3-0.7,3-3.3c0-1.7-0.7-2.4-1.6-2.8C4.6,54.1,4.1,54,3.7,54h-1l0,6.2H3.7z"/>
		<path class="st2" d="M11.6,60.1c0-0.5,0.1-0.9,0.4-1.3c0.5-0.6,1.4-1.1,3.3-1.2l0.7,0c0,0,0-0.2,0-0.2c0-0.8-0.6-1-1.3-1
			c-0.8,0-1.9,0.2-2.6,0.6l0-1.7c0.8-0.4,2.1-0.6,3-0.6c1.8,0,3,0.7,3,2.9l0,4.4h-1.9l0-0.6c0-0.3,0-0.4,0-0.7h0
			c-0.4,1-1,1.5-2.2,1.5C12.6,62,11.6,61.3,11.6,60.1z M15.6,60c0.2-0.2,0.4-0.7,0.4-1.1l-0.2,0c-1.2,0-1.7,0.3-1.9,0.6
			c-0.1,0.1-0.1,0.2-0.1,0.3c0,0.4,0.3,0.6,0.8,0.6C15.1,60.5,15.4,60.3,15.6,60z"/>
		<path class="st2" d="M25.6,56.4h-1.8v2.8c0,0.9,0.3,1.1,0.9,1.1c0.3,0,0.6,0,0.9-0.1l-0.1,1.5C25,62,24.4,62,23.9,62
			c-1.4,0-2.2-0.6-2.2-2.1l0-3.6h-0.9v-1.6h0.9v-1.4l2.2-0.1v1.5h1.8V56.4z"/>
		<path class="st2" d="M28.2,60.1c0-0.5,0.1-0.9,0.4-1.3c0.5-0.6,1.4-1.1,3.3-1.2l0.7,0c0,0,0-0.2,0-0.2c0-0.8-0.6-1-1.3-1
			c-0.8,0-1.9,0.2-2.6,0.6l0-1.7c0.8-0.4,2.1-0.6,3-0.6c1.8,0,3,0.7,3,2.9l0,4.4h-1.9l0-0.6c0-0.3,0-0.4,0-0.7h0
			c-0.4,1-1,1.5-2.2,1.5C29.1,62,28.2,61.3,28.2,60.1z M32.1,60c0.2-0.2,0.4-0.7,0.4-1.1l-0.2,0c-1.2,0-1.7,0.3-1.9,0.6
			c-0.1,0.1-0.1,0.2-0.1,0.3c0,0.4,0.3,0.6,0.8,0.6C31.6,60.5,31.9,60.3,32.1,60z"/>
		<path class="st2" d="M44,52.4h1.2l0,9.5H44L44,52.4z"/>
		<path class="st2" d="M49.3,54.9h1.1v0.6c0,0.4,0,0.7,0,1h0c0.3-1.1,1.1-1.7,2.4-1.7c1.4,0,2.4,0.7,2.4,2.7l0,4.4H54l0-4.3
			c0-1.3-0.5-1.8-1.5-1.8c-1.3,0-2.1,0.9-2.1,2.7l0,3.5h-1.1L49.3,54.9z"/>
		<path class="st2" d="M63,60.8l-0.1,0.9C62.6,61.9,62,62,61.4,62c-1.3,0-1.9-0.6-1.9-2.1l0-4.2h-1.1v-0.9h1.1l0-1.7l1.1-0.1l0,1.8
			h2.2v0.9h-2.2l0,3.8c0,1.2,0.3,1.6,1.1,1.6C62.1,61.2,62.6,61,63,60.8z"/>
		<path class="st2" d="M69.3,61.1c0.9,0,1.5-0.2,2.2-0.5l-0.1,1C70.9,61.8,70,62,69.1,62c-2.4,0-3.6-1.5-3.6-3.7
			c0-2,1.2-3.6,3.2-3.6c2.3,0,3.1,1.9,3.1,3.8h-5.1C66.8,60.2,67.7,61.1,69.3,61.1z M66.8,57.7h3.9c0-1.2-0.6-2.1-1.9-2.1
			C67.5,55.6,66.8,56.5,66.8,57.7z"/>
		<path class="st2" d="M75.3,51.5h1.1l0,10.4h-1.1L75.3,51.5z"/>
		<path class="st2" d="M80.4,51.5h1.1l0,10.4h-1.1L80.4,51.5z"/>
		<path class="st2" d="M85.2,52.2c0-0.5,0.3-0.8,0.8-0.8c0.5,0,0.8,0.4,0.8,0.8c0,0.5-0.3,0.8-0.8,0.8C85.5,53,85.2,52.7,85.2,52.2z
			 M85.5,54.9h1.1l0,7h-1.1L85.5,54.9z"/>
		<path class="st2" d="M89.9,63.6c0-0.8,0.6-1.5,1.8-1.7v0c-0.5-0.1-1.1-0.4-1.1-1c0-0.7,0.7-1,1.3-1.1v0c-0.9-0.3-1.8-0.9-1.8-2.3
			c0-1.5,1.1-2.6,2.9-2.6c0.6,0,0.9,0.1,1.3,0.2h2.6v0.8h-1.5l0,0c0.3,0.2,0.6,0.8,0.6,1.6c0,1.4-1.1,2.5-2.7,2.5H93
			c-0.8,0-1.2,0.3-1.2,0.6c0,0.3,0.3,0.5,0.9,0.6l2,0.3c1.4,0.2,2,0.6,2,1.7c0,1-0.8,2.3-3.5,2.3C90.9,65.4,89.9,64.6,89.9,63.6z
			 M95.6,63.2c0-0.6-0.4-0.8-1.4-0.9l-1.8-0.2c-0.6,0.1-1.5,0.5-1.5,1.3c0,0.6,0.8,1.2,2.3,1.2C94.4,64.6,95.6,64.2,95.6,63.2z
			 M94.9,57.3c0-0.9-0.7-1.7-1.9-1.7c-1,0-1.8,0.6-1.8,1.7c0,0.9,0.6,1.7,1.9,1.7C94.3,59,94.9,58.3,94.9,57.3z"/>
		<path class="st2" d="M103.3,61.1c0.9,0,1.5-0.2,2.2-0.5l-0.1,1c-0.6,0.3-1.5,0.5-2.4,0.5c-2.4,0-3.6-1.5-3.6-3.7
			c0-2,1.2-3.6,3.2-3.6c2.3,0,3.1,1.9,3.1,3.8h-5.1C100.7,60.2,101.7,61.1,103.3,61.1z M100.7,57.7h3.9c0-1.2-0.6-2.1-1.9-2.1
			C101.4,55.6,100.7,56.5,100.7,57.7z"/>
		<path class="st2" d="M109.2,54.9h1.1v0.6c0,0.4,0,0.7,0,1h0c0.3-1.1,1.1-1.7,2.4-1.7c1.4,0,2.4,0.7,2.4,2.7l0,4.4h-1.1l0-4.3
			c0-1.3-0.5-1.8-1.5-1.8c-1.3,0-2.1,0.9-2.1,2.7l0,3.5h-1.1L109.2,54.9z"/>
		<path class="st2" d="M118.4,58.4c0-2.2,1.4-3.7,3.6-3.7c0.7,0,1.3,0.1,1.8,0.3v1c-0.6-0.3-1.2-0.4-1.8-0.4c-1.6,0-2.4,1-2.4,2.7
			c0,1.6,0.7,2.7,2.4,2.7c0.5,0,1.2-0.1,1.8-0.4l0,1c-0.6,0.2-1.3,0.4-1.9,0.4C119.5,62,118.4,60.4,118.4,58.4z"/>
		<path class="st2" d="M130.4,61.1c0.9,0,1.5-0.2,2.2-0.5l-0.1,1c-0.6,0.3-1.5,0.5-2.4,0.5c-2.4,0-3.6-1.5-3.6-3.7
			c0-2,1.2-3.6,3.2-3.6c2.3,0,3.1,1.9,3.1,3.8h-5.1C127.9,60.2,128.8,61.1,130.4,61.1z M127.9,57.7h3.9c0-1.2-0.6-2.1-1.9-2.1
			C128.6,55.6,127.9,56.5,127.9,57.7z"/>
	</g>
</g>
</svg>
