<?xml version="1.0" encoding="utf-8"?>
<!-- Generator: Adobe Illustrator 27.1.1, SVG Export Plug-In . SVG Version: 6.00 Build 0)  -->
<svg version="1.1" id="Camada_1" xmlns="http://www.w3.org/2000/svg" xmlns:xlink="http://www.w3.org/1999/xlink" x="0px" y="0px"
	 viewBox="0 0 128.3 62.6" style="enable-background:new 0 0 128.3 62.6;" xml:space="preserve">
<style type="text/css">
	.st0{fill-rule:evenodd;clip-rule:evenodd;fill:#FFFFFF;}
	.st1{clip-path:url(#SVGID_00000092425754347952706140000013958750417150350526_);fill:#FFFFFF;}
	.st2{fill:#FFFFFF;}
</style>
<g>
	<path class="st0" d="M95.9,42.9c-1.3,0-2.5-0.4-3.5-1.3c-34.8-31-16.3-14.7-33.1-29.7h14.5c14.8,0,21.5,5.1,21.5,5l1.3,1.2L114,7.3
		c0.6-0.4,1.1-0.7,1.7-0.9c0.6-0.2,1.3-0.3,2.1-0.3h6.2c0.8,0,1.3,0.3,1.3,1c0,0.4-0.2,0.8-0.7,1.1l-23,14.3
		c2.1,1.9,6.7,6,20.2,18.1c0.4,0.4,0.7,0.7,0.7,1.1c0,0.8-0.5,1.1-1.6,1.1H95.9z"/>
	<g>
		<defs>
			<path id="SVGID_1_" d="M47.6,40.8c-0.5,0.3-0.7,0.7-0.7,1.1c0,0.6,0.4,1,1.3,1h6.2c0.8,0,1.5-0.1,2.1-0.3
				c0.6-0.2,1.1-0.6,1.7-0.9l20.4-12.5c-2.1-1.9-3.8-3.4-5.1-4.5L47.6,40.8z M34.9,20.3c-1.1,0-1.6,0.5-1.6,1.6v5.9
				c0,1,0.6,1.6,1.6,1.6h19.6c1.1,0,1.6-0.4,1.6-1.1v-6.8c0-0.7-0.5-1.1-1.6-1.1H34.9z M20.5,2c-3,0-5.6,0.4-7.8,1.3
				c-2.2,0.8-4,2-5.5,3.5C5.8,8.3,4.7,10,4,12.1c-0.7,2.1-1.1,4.3-1.1,6.8v22.3c0,1.1,0.5,1.6,1.6,1.6h23c1.1,0,1.6-0.5,1.6-1.6
				V21.1c0-3.1,0.5-5.4,1.6-6.7c1-1.4,2.9-2.1,5.5-2.1h38.1c15.9,0,22,5.5,21,4.5C87.8,9.6,78.5,2,68.5,2H20.5z"/>
		</defs>
		<use xlink:href="#SVGID_1_"  style="overflow:visible;fill:#FFFFFF;"/>
		<clipPath id="SVGID_00000011008331857936516850000003005905992757619073_">
			<use xlink:href="#SVGID_1_"  style="overflow:visible;"/>
		</clipPath>
		
			<rect x="2.9" y="2" style="clip-path:url(#SVGID_00000011008331857936516850000003005905992757619073_);fill:#FFFFFF;" width="93.4" height="40.9"/>
	</g>
	<g>
		<path class="st2" d="M3,48.9h3.3c0.7,0,1.3,0.1,1.9,0.3c1.7,0.5,2.7,1.8,2.7,3.8c0,2.7-1.7,4.5-4.5,4.5H3L3,48.9z M6,56
			c1.2,0,2.7-0.6,2.7-3c0-1.5-0.6-2.2-1.5-2.5c-0.4-0.1-0.8-0.2-1.2-0.2H5.1l0,5.6H6z"/>
		<path class="st2" d="M13.2,55.8c0-0.5,0.1-0.8,0.4-1.1c0.4-0.5,1.3-1,3-1.1l0.6,0c0,0,0-0.2,0-0.2c0-0.7-0.5-0.9-1.2-0.9
			c-0.8,0-1.7,0.2-2.3,0.6l0-1.5c0.8-0.4,1.9-0.6,2.7-0.6c1.6,0,2.7,0.6,2.7,2.6l0,4h-1.7l0-0.6c0-0.2,0-0.4,0-0.7h0
			c-0.3,0.9-0.9,1.4-2,1.4C14.1,57.6,13.2,56.9,13.2,55.8z M16.8,55.8c0.2-0.2,0.3-0.6,0.3-1l-0.2,0c-1.1,0-1.6,0.2-1.7,0.6
			c0,0.1-0.1,0.2-0.1,0.3c0,0.3,0.3,0.6,0.7,0.6C16.3,56.2,16.5,56,16.8,55.8z"/>
		<path class="st2" d="M25.8,52.5h-1.6V55c0,0.8,0.3,1,0.8,1c0.3,0,0.5,0,0.8-0.1l-0.1,1.4c-0.5,0.2-1.1,0.3-1.5,0.3
			c-1.3,0-2-0.5-2-1.9l0-3.2h-0.8V51h0.8v-1.2l2-0.1V51h1.6V52.5z"/>
		<path class="st2" d="M28.1,55.8c0-0.5,0.1-0.8,0.4-1.1c0.4-0.5,1.3-1,3-1.1l0.6,0c0,0,0-0.2,0-0.2c0-0.7-0.5-0.9-1.2-0.9
			c-0.8,0-1.7,0.2-2.3,0.6l0-1.5c0.8-0.4,1.9-0.6,2.7-0.6c1.6,0,2.7,0.6,2.7,2.6l0,4h-1.7l0-0.6c0-0.2,0-0.4,0-0.7h0
			c-0.3,0.9-0.9,1.4-2,1.4C29,57.6,28.1,56.9,28.1,55.8z M31.7,55.8c0.2-0.2,0.3-0.6,0.3-1l-0.2,0c-1.1,0-1.6,0.2-1.7,0.6
			c0,0.1-0.1,0.2-0.1,0.3c0,0.3,0.3,0.6,0.7,0.6C31.2,56.2,31.5,56,31.7,55.8z"/>
		<path class="st2" d="M42.5,48.9h1.1l0,8.6h-1.1L42.5,48.9z"/>
		<path class="st2" d="M47.2,51.1h1v0.5c0,0.3,0,0.6,0,0.9h0c0.3-1,1-1.6,2.2-1.6c1.3,0,2.1,0.7,2.1,2.5l0,4h-1l0-3.9
			c0-1.1-0.5-1.6-1.4-1.6c-1.1,0-1.9,0.8-1.9,2.4l0,3.1h-1L47.2,51.1z"/>
		<path class="st2" d="M59.6,56.5l-0.1,0.8c-0.3,0.1-0.8,0.3-1.4,0.3c-1.2,0-1.7-0.6-1.7-1.9l0-3.8h-1v-0.8h1l0-1.5l1-0.1l0,1.6h2
			v0.8h-2l0,3.4c0,1.1,0.2,1.4,1,1.4C58.8,56.8,59.3,56.6,59.6,56.5z"/>
		<path class="st2" d="M65.4,56.7c0.8,0,1.4-0.2,2-0.5l0,0.9c-0.5,0.3-1.3,0.5-2.1,0.5c-2.2,0-3.2-1.4-3.2-3.4
			c0-1.8,1.1-3.2,2.9-3.2c2.1,0,2.8,1.7,2.8,3.4H63C63.1,55.9,63.9,56.7,65.4,56.7z M63,53.6h3.5c0-1.1-0.6-1.9-1.7-1.9
			C63.7,51.8,63.1,52.6,63,53.6z"/>
		<path class="st2" d="M70.8,48h1l0,9.4h-1L70.8,48z"/>
		<path class="st2" d="M75.4,48h1l0,9.4h-1L75.4,48z"/>
		<path class="st2" d="M79.7,48.7c0-0.4,0.3-0.8,0.7-0.8c0.5,0,0.8,0.3,0.8,0.8c0,0.4-0.3,0.7-0.8,0.7C80,49.4,79.7,49.1,79.7,48.7z
			 M79.9,51.1h1l0,6.3h-1L79.9,51.1z"/>
		<path class="st2" d="M84,59c0-0.7,0.6-1.3,1.6-1.5v0c-0.5-0.1-1-0.3-1-0.9c0-0.6,0.6-0.9,1.2-1v0c-0.8-0.2-1.6-0.8-1.6-2.1
			c0-1.4,1-2.4,2.6-2.4c0.5,0,0.8,0.1,1.1,0.2h2.3v0.7h-1.4l0,0c0.2,0.2,0.6,0.7,0.6,1.5c0,1.3-1,2.3-2.5,2.3h-0.2
			c-0.7,0-1.1,0.3-1.1,0.6c0,0.3,0.3,0.4,0.8,0.5l1.8,0.3c1.2,0.2,1.8,0.6,1.8,1.6c0,0.9-0.7,2.1-3.1,2.1C84.9,60.6,84,59.9,84,59z
			 M89.1,58.7c0-0.5-0.4-0.7-1.3-0.9l-1.6-0.2c-0.5,0.1-1.3,0.4-1.3,1.1c0,0.6,0.7,1.1,2.1,1.1C88.1,59.9,89.1,59.5,89.1,58.7z
			 M88.5,53.3c0-0.9-0.7-1.5-1.7-1.5c-0.9,0-1.7,0.5-1.7,1.5c0,0.8,0.6,1.5,1.7,1.5C87.9,54.9,88.5,54.2,88.5,53.3z"/>
		<path class="st2" d="M96,56.7c0.8,0,1.4-0.2,2-0.5l0,0.9c-0.5,0.3-1.3,0.5-2.1,0.5c-2.2,0-3.2-1.4-3.2-3.4c0-1.8,1.1-3.2,2.9-3.2
			c2.1,0,2.8,1.7,2.8,3.4h-4.6C93.8,55.9,94.6,56.7,96,56.7z M93.7,53.6h3.5c0-1.1-0.6-1.9-1.7-1.9C94.4,51.8,93.8,52.6,93.7,53.6z"
			/>
		<path class="st2" d="M101.4,51.1h1v0.5c0,0.3,0,0.6,0,0.9h0c0.3-1,1-1.6,2.2-1.6c1.3,0,2.1,0.7,2.1,2.5l0,4h-1l0-3.9
			c0-1.1-0.5-1.6-1.4-1.6c-1.1,0-1.9,0.8-1.9,2.4l0,3.1h-1L101.4,51.1z"/>
		<path class="st2" d="M109.8,54.3c0-2,1.2-3.3,3.2-3.3c0.6,0,1.2,0.1,1.6,0.3v0.9c-0.5-0.2-1.1-0.4-1.7-0.4c-1.4,0-2.2,0.9-2.2,2.4
			c0,1.4,0.7,2.5,2.2,2.5c0.5,0,1.1-0.1,1.6-0.3l0,0.9c-0.5,0.2-1.2,0.3-1.7,0.3C110.7,57.6,109.8,56.1,109.8,54.3z"/>
		<path class="st2" d="M120.6,56.7c0.8,0,1.4-0.2,2-0.5l0,0.9c-0.5,0.3-1.3,0.5-2.1,0.5c-2.2,0-3.2-1.4-3.2-3.4
			c0-1.8,1.1-3.2,2.9-3.2c2.1,0,2.8,1.7,2.8,3.4h-4.6C118.3,55.9,119.2,56.7,120.6,56.7z M118.3,53.6h3.5c0-1.1-0.6-1.9-1.7-1.9
			C118.9,51.8,118.3,52.6,118.3,53.6z"/>
	</g>
</g>
</svg>
