<?xml version="1.0" encoding="utf-8"?>
<!-- Generator: Adobe Illustrator 27.1.1, SVG Export Plug-In . SVG Version: 6.00 Build 0)  -->
<svg version="1.1" id="Camada_1" xmlns="http://www.w3.org/2000/svg" xmlns:xlink="http://www.w3.org/1999/xlink" x="0px" y="0px"
	 viewBox="0 0 161.2 71.5" style="enable-background:new 0 0 161.2 71.5;" xml:space="preserve">
<style type="text/css">
	.st0{fill:#4C4C4C;}
</style>
<g id="XMLID_00000091703376438908994160000016580163291763363734_">
	<path id="XMLID_00000025427146547059638310000015117391858232246966_" class="st0" d="M45.1,29H28.8v4.8h11.6
		c-0.6,6.8-6.2,9.7-11.6,9.7C22,43.5,16,38.2,16,30.7c0-7.3,5.7-12.9,12.8-12.9c5.5,0,8.7,3.5,8.7,3.5l3.4-3.5c0,0-4.3-4.8-12.3-4.8
		c-10.1,0-17.9,8.5-17.9,17.7c0,9,7.4,17.8,18.2,17.8c9.5,0,16.5-6.5,16.5-16.2C45.4,30.2,45.1,29,45.1,29L45.1,29z"/>
	<path id="XMLID_00000020358328299793739770000015160750833652097948_" class="st0" d="M58.4,25.5c-6.7,0-11.5,5.2-11.5,11.3
		c0,6.2,4.6,11.5,11.6,11.5c6.3,0,11.4-4.8,11.4-11.4C69.9,29.4,64,25.5,58.4,25.5z M58.5,30c3.3,0,6.4,2.6,6.4,6.9
		c0,4.2-3.1,6.9-6.4,6.9C54.9,43.9,52,41,52,37C52,33,54.8,30,58.5,30z"/>
	<path id="XMLID_00000118395846688351721790000002412024249882254262_" class="st0" d="M83.4,25.5c-6.7,0-11.5,5.2-11.5,11.3
		c0,6.2,4.6,11.5,11.6,11.5c6.3,0,11.4-4.8,11.4-11.4C94.9,29.4,88.9,25.5,83.4,25.5L83.4,25.5z M83.5,30c3.3,0,6.4,2.6,6.4,6.9
		c0,4.2-3.1,6.9-6.4,6.9C79.9,43.9,77,41,77,37C76.9,33,79.8,30,83.5,30z"/>
	<path id="XMLID_00000080904500119823388920000012863213770950723718_" class="st0" d="M107.9,25.5c-6.2,0-10.9,5.4-10.9,11.4
		c0,6.9,5.6,11.4,10.9,11.4c3.2,0,5-1.3,6.3-2.8v2.3c0,3.9-2.4,6.3-6,6.3c-3.5,0-5.2-2.6-5.9-4.1l-4.4,1.8c1.5,3.3,4.7,6.7,10.3,6.7
		c6.1,0,10.8-3.9,10.8-11.9V26.2h-4.8v1.9C112.6,26.6,110.6,25.5,107.9,25.5L107.9,25.5z M108.4,30c3,0,6.1,2.6,6.1,6.9
		c0,4.5-3.1,6.9-6.2,6.9c-3.3,0-6.3-2.6-6.3-6.9C102,32.6,105.1,30,108.4,30L108.4,30z"/>
	<path id="XMLID_00000116917020116407687980000011873022573088007059_" class="st0" d="M140.1,25.5c-5.8,0-10.6,4.6-10.6,11.4
		c0,7.2,5.4,11.5,11.2,11.5c4.8,0,7.8-2.6,9.6-5l-4-2.6c-1,1.6-2.8,3.1-5.6,3.1c-3.2,0-4.7-1.8-5.6-3.5l15.3-6.3l-0.8-1.8
		C148.2,28.5,144.7,25.5,140.1,25.5L140.1,25.5z M140.4,29.9c2.1,0,3.6,1.1,4.2,2.5l-10.2,4.3C133.9,33.3,137.1,29.9,140.4,29.9z"/>
	<rect id="XMLID_00000146495072046715077440000017798120785173976479_" x="122.2" y="14" class="st0" width="5" height="33.7"/>
</g>
</svg>
