<?xml version="1.0" encoding="utf-8"?>
<!-- Generator: Adobe Illustrator 27.1.1, SVG Export Plug-In . SVG Version: 6.00 Build 0)  -->
<svg version="1.1" id="Camada_1" xmlns="http://www.w3.org/2000/svg" xmlns:xlink="http://www.w3.org/1999/xlink" x="0px" y="0px"
	 viewBox="0 0 313.5 71.5" style="enable-background:new 0 0 313.5 71.5;" xml:space="preserve">
<style type="text/css">
	.st0{fill:#4C4C4C;}
</style>
<g>
	<g>
		<path class="st0" d="M248.8,33.1c-1.4,0-2.6,1.2-2.6,2.6c0,1.4,1.2,2.6,2.6,2.6c1.4,0,2.6-1.2,2.6-2.6
			C251.4,34.3,250.3,33.1,248.8,33.1"/>
		<path class="st0" d="M241.9,33.5c-1.3,0-2.3,1-2.3,2.3c0,1.3,1,2.3,2.3,2.3c1.3,0,2.3-1,2.3-2.3C244.2,34.5,243.2,33.5,241.9,33.5
			"/>
		<path class="st0" d="M230.3,34c-1,0-1.8,0.8-1.8,1.8c0,1,0.8,1.8,1.8,1.8c1,0,1.8-0.8,1.8-1.8C232.1,34.8,231.3,34,230.3,34"/>
		<path class="st0" d="M224.8,34.1c-0.9,0-1.7,0.7-1.7,1.7c0,0.9,0.7,1.7,1.7,1.7c0.9,0,1.7-0.7,1.7-1.7
			C226.5,34.8,225.7,34.1,224.8,34.1"/>
		<path class="st0" d="M265.4,10.3c-1.5,0-2.8,1.2-2.8,2.8c0,1.5,1.2,2.8,2.8,2.8c1.5,0,2.8-1.2,2.8-2.8
			C268.2,11.5,267,10.3,265.4,10.3"/>
		<path class="st0" d="M261.2,16.9c-1.5,0-2.8,1.2-2.8,2.8c0,1.5,1.2,2.8,2.8,2.8c1.5,0,2.8-1.2,2.8-2.8
			C264,18.1,262.7,16.9,261.2,16.9"/>
		<path class="st0" d="M245.1,20.8c-1.4,0-2.5,1.1-2.5,2.5s1.1,2.5,2.5,2.5c1.4,0,2.5-1.1,2.5-2.5S246.5,20.8,245.1,20.8"/>
		<path class="st0" d="M242.8,27.3c-1.3,0-2.4,1.1-2.4,2.4c0,1.3,1.1,2.4,2.4,2.4c1.3,0,2.4-1.1,2.4-2.4
			C245.1,28.3,244.1,27.3,242.8,27.3"/>
		<path class="st0" d="M239.1,17.2c-1.4,0-2.5,1.1-2.5,2.5c0,1.4,1.1,2.6,2.5,2.6c1.4,0,2.5-1.1,2.5-2.6
			C241.6,18.3,240.5,17.2,239.1,17.2"/>
		<path class="st0" d="M253.4,19c-1.5,0-2.8,1.2-2.8,2.8c0,1.5,1.2,2.8,2.8,2.8c1.5,0,2.7-1.2,2.7-2.8C256.2,20.2,254.9,19,253.4,19
			"/>
		<path class="st0" d="M250.1,25.8c-1.5,0-2.7,1.2-2.7,2.7c0,1.5,1.2,2.7,2.7,2.7c1.5,0,2.7-1.2,2.7-2.7
			C252.8,27,251.6,25.8,250.1,25.8"/>
		<path class="st0" d="M256.4,11.2c-1.5,0-2.8,1.2-2.8,2.8c0,1.5,1.2,2.8,2.8,2.8c1.5,0,2.8-1.2,2.8-2.8
			C259.1,12.4,257.9,11.2,256.4,11.2"/>
		<path class="st0" d="M247.5,13.6c-1.5,0-2.8,1.2-2.8,2.8c0,1.5,1.2,2.8,2.8,2.8c1.5,0,2.8-1.2,2.8-2.8
			C250.3,14.8,249,13.6,247.5,13.6"/>
		<path class="st0" d="M230.5,28c-1,0-1.9,0.8-1.9,1.9c0,1,0.8,1.9,1.9,1.9c1,0,1.9-0.8,1.9-1.9C232.3,28.8,231.5,28,230.5,28"/>
		<path class="st0" d="M236,30.8c-1.1,0-2,0.9-2,2c0,1.1,0.9,2,2,2c1.1,0,2-0.9,2-2C238,31.7,237.1,30.8,236,30.8"/>
		<path class="st0" d="M224.8,26.5c-0.9,0-1.7,0.7-1.7,1.7c0,0.9,0.7,1.7,1.7,1.7c0.9,0,1.7-0.7,1.7-1.7
			C226.5,27.3,225.7,26.5,224.8,26.5"/>
		<path class="st0" d="M237,24.3c-1.2,0-2.2,1-2.2,2.2c0,1.2,1,2.2,2.2,2.2c1.2,0,2.2-1,2.2-2.2C239.3,25.3,238.3,24.3,237,24.3"/>
		<path class="st0" d="M231.4,21.5c-1.2,0-2.1,0.9-2.1,2.1c0,1.2,0.9,2.1,2.1,2.1c1.2,0,2.1-0.9,2.1-2.1
			C233.5,22.5,232.6,21.5,231.4,21.5"/>
		<path class="st0" d="M265.4,61.2c-1.5,0-2.8-1.2-2.8-2.8c0-1.5,1.2-2.8,2.8-2.8c1.5,0,2.8,1.2,2.8,2.8
			C268.2,60,267,61.2,265.4,61.2"/>
		<path class="st0" d="M242.8,44.2c-1.3,0-2.4-1.1-2.4-2.4c0-1.3,1.1-2.4,2.4-2.4c1.3,0,2.4,1.1,2.4,2.4
			C245.1,43.2,244.1,44.2,242.8,44.2"/>
		<path class="st0" d="M239.1,54.4c-1.4,0-2.5-1.1-2.5-2.5c0-1.4,1.1-2.5,2.5-2.5c1.4,0,2.5,1.1,2.5,2.5
			C241.6,53.2,240.5,54.4,239.1,54.4"/>
		<path class="st0" d="M250.1,45.7c-1.5,0-2.7-1.2-2.7-2.7c0-1.5,1.2-2.7,2.7-2.7c1.5,0,2.7,1.2,2.7,2.7
			C252.8,44.5,251.6,45.7,250.1,45.7"/>
		<path class="st0" d="M256.4,60.3c-1.5,0-2.8-1.2-2.8-2.8c0-1.5,1.2-2.8,2.8-2.8c1.5,0,2.8,1.2,2.8,2.8
			C259.1,59.1,257.9,60.3,256.4,60.3"/>
		<path class="st0" d="M247.5,57.9c-1.5,0-2.8-1.2-2.8-2.8c0-1.5,1.2-2.8,2.8-2.8c1.5,0,2.8,1.2,2.8,2.8
			C250.3,56.7,249,57.9,247.5,57.9"/>
		<path class="st0" d="M236,40.8c-1.1,0-2-0.9-2-2c0-1.1,0.9-2,2-2c1.1,0,2,0.9,2,2C238,39.9,237.1,40.8,236,40.8"/>
		<path class="st0" d="M224.8,45c-0.9,0-1.7-0.7-1.7-1.7c0-0.9,0.7-1.7,1.7-1.7c0.9,0,1.7,0.7,1.7,1.7C226.5,44.2,225.7,45,224.8,45
			"/>
		<path class="st0" d="M231.4,50c-1.2,0-2.1-0.9-2.1-2.1c0-1.2,0.9-2.1,2.1-2.1c1.2,0,2.1,0.9,2.1,2.1C233.5,49.1,232.6,50,231.4,50
			"/>
		<path class="st0" d="M282.1,33.1c1.4,0,2.6,1.2,2.6,2.6c0,1.4-1.2,2.6-2.6,2.6s-2.6-1.2-2.6-2.6C279.5,34.3,280.6,33.1,282.1,33.1
			"/>
		<path class="st0" d="M289,33.5c1.3,0,2.3,1,2.3,2.3c0,1.3-1,2.3-2.3,2.3c-1.3,0-2.3-1-2.3-2.3C286.7,34.5,287.7,33.5,289,33.5"/>
		<path class="st0" d="M300.6,34c1,0,1.8,0.8,1.8,1.8c0,1-0.8,1.8-1.8,1.8c-1,0-1.8-0.8-1.8-1.8C298.8,34.8,299.6,34,300.6,34"/>
		<path class="st0" d="M306.1,34.1c0.9,0,1.7,0.7,1.7,1.7c0,0.9-0.7,1.7-1.7,1.7c-0.9,0-1.7-0.7-1.7-1.7
			C304.4,34.8,305.2,34.1,306.1,34.1"/>
		<path class="st0" d="M269.7,16.9c1.5,0,2.8,1.2,2.8,2.8c0,1.5-1.2,2.8-2.8,2.8c-1.5,0-2.8-1.2-2.8-2.8
			C266.9,18.1,268.2,16.9,269.7,16.9"/>
		<path class="st0" d="M285.8,20.8c1.4,0,2.5,1.1,2.5,2.5s-1.1,2.5-2.5,2.5c-1.4,0-2.5-1.1-2.5-2.5S284.3,20.8,285.8,20.8"/>
		<path class="st0" d="M288.1,27.3c1.3,0,2.4,1.1,2.4,2.4c0,1.3-1.1,2.4-2.4,2.4c-1.3,0-2.4-1.1-2.4-2.4
			C285.8,28.3,286.8,27.3,288.1,27.3"/>
		<path class="st0" d="M291.8,17.2c1.4,0,2.5,1.1,2.5,2.5c0,1.4-1.1,2.6-2.5,2.6c-1.4,0-2.5-1.1-2.5-2.6
			C289.3,18.3,290.4,17.2,291.8,17.2"/>
		<path class="st0" d="M277.5,19c1.5,0,2.8,1.2,2.8,2.8c0,1.5-1.2,2.8-2.8,2.8c-1.5,0-2.8-1.2-2.8-2.8C274.7,20.2,276,19,277.5,19"
			/>
		<path class="st0" d="M280.8,25.8c1.5,0,2.7,1.2,2.7,2.7c0,1.5-1.2,2.7-2.7,2.7c-1.5,0-2.7-1.2-2.7-2.7
			C278.1,27,279.3,25.8,280.8,25.8"/>
		<path class="st0" d="M274.5,11.2c1.5,0,2.8,1.2,2.8,2.8c0,1.5-1.2,2.8-2.8,2.8c-1.5,0-2.8-1.2-2.8-2.8
			C271.8,12.4,273,11.2,274.5,11.2"/>
		<path class="st0" d="M283.4,13.6c1.5,0,2.8,1.2,2.8,2.8c0,1.5-1.2,2.8-2.8,2.8c-1.5,0-2.8-1.2-2.8-2.8
			C280.6,14.8,281.9,13.6,283.4,13.6"/>
		<path class="st0" d="M300.4,28c1,0,1.9,0.8,1.9,1.9c0,1-0.8,1.9-1.9,1.9c-1,0-1.9-0.8-1.9-1.9C298.6,28.8,299.4,28,300.4,28"/>
		<path class="st0" d="M294.9,30.8c1.1,0,2,0.9,2,2c0,1.1-0.9,2-2,2s-2-0.9-2-2C292.9,31.7,293.8,30.8,294.9,30.8"/>
		<path class="st0" d="M306.1,26.5c0.9,0,1.7,0.7,1.7,1.7c0,0.9-0.7,1.7-1.7,1.7c-0.9,0-1.7-0.7-1.7-1.7
			C304.4,27.3,305.2,26.5,306.1,26.5"/>
		<path class="st0" d="M293.9,24.3c1.2,0,2.2,1,2.2,2.2c0,1.2-1,2.2-2.2,2.2c-1.2,0-2.2-1-2.2-2.2C291.6,25.3,292.6,24.3,293.9,24.3
			"/>
		<path class="st0" d="M299.5,21.5c1.2,0,2.1,0.9,2.1,2.1c0,1.2-0.9,2.1-2.1,2.1c-1.2,0-2.1-0.9-2.1-2.1
			C297.4,22.5,298.3,21.5,299.5,21.5"/>
		<path class="st0" d="M288.1,44.2c1.3,0,2.4-1.1,2.4-2.4c0-1.3-1.1-2.4-2.4-2.4c-1.3,0-2.4,1.1-2.4,2.4
			C285.8,43.2,286.8,44.2,288.1,44.2"/>
		<path class="st0" d="M291.8,54.4c1.4,0,2.5-1.1,2.5-2.5c0-1.4-1.1-2.5-2.5-2.5c-1.4,0-2.5,1.1-2.5,2.5
			C289.3,53.2,290.4,54.4,291.8,54.4"/>
		<path class="st0" d="M280.8,45.7c1.5,0,2.7-1.2,2.7-2.7c0-1.5-1.2-2.7-2.7-2.7c-1.5,0-2.7,1.2-2.7,2.7
			C278.1,44.5,279.3,45.7,280.8,45.7"/>
		<path class="st0" d="M274.5,60.3c1.5,0,2.8-1.2,2.8-2.8c0-1.5-1.2-2.8-2.8-2.8c-1.5,0-2.8,1.2-2.8,2.8
			C271.8,59.1,273,60.3,274.5,60.3"/>
		<path class="st0" d="M283.4,57.9c1.5,0,2.8-1.2,2.8-2.8c0-1.5-1.2-2.8-2.8-2.8c-1.5,0-2.8,1.2-2.8,2.8
			C280.6,56.7,281.9,57.9,283.4,57.9"/>
		<path class="st0" d="M294.9,40.8c1.1,0,2-0.9,2-2c0-1.1-0.9-2-2-2s-2,0.9-2,2C292.9,39.9,293.8,40.8,294.9,40.8"/>
		<path class="st0" d="M306.1,45c0.9,0,1.7-0.7,1.7-1.7c0-0.9-0.7-1.7-1.7-1.7c-0.9,0-1.7,0.7-1.7,1.7C304.4,44.2,305.2,45,306.1,45
			"/>
		<path class="st0" d="M299.5,50c1.2,0,2.1-0.9,2.1-2.1c0-1.2-0.9-2.1-2.1-2.1c-1.2,0-2.1,0.9-2.1,2.1C297.4,49.1,298.3,50,299.5,50
			"/>
	</g>
	<g>
		<g>
			<path class="st0" d="M29.5,26.5c-0.1,0.3-0.3,0.4-0.6,0.4c-0.1,0-0.3,0-0.4-0.1c-1.4-0.3-4.4-1.3-8.5-1.3
				c-6.8,0-8.9,2.7-8.9,10.8c0,8.2,2.1,10.7,9.2,10.7c2.3,0,4.5-0.4,5-0.6v-8.6l-4.7-0.6c-0.2,0-0.4-0.2-0.4-0.4v-2.5
				c0-0.2,0.2-0.4,0.5-0.4h8.6c0.3,0,0.5,0.2,0.5,0.6v11.4c0,2-0.2,3-2,3.6c-1.9,0.6-5.5,0.9-7.6,0.9c-10.3,0-13.7-3.7-13.7-14.2
				c0-9.6,3.1-14.3,13-14.3c5.3,0,9.3,1.3,9.9,1.5c0.4,0.1,0.6,0.3,0.6,0.7c0,0,0,0.1,0,0.3L29.5,26.5z"/>
			<path class="st0" d="M33.6,33.5c0-1.5,0.7-2,2.3-2.5c1.6-0.5,4.3-1,7.3-1c0.4,0,0.9,0.1,0.9,0.6v2.1c0,0.3-0.1,0.6-0.5,0.6
				c-2.3,0-4.3,0.2-5.7,0.6v15.5c0,0.3-0.2,0.6-0.6,0.6h-3.1c-0.3,0-0.6-0.2-0.6-0.6V33.5z"/>
			<path class="st0" d="M58.5,40.2l-5.7,0.9c-1.5,0.3-3,0.5-3,3c0,3.2,2.6,3.4,4.6,3.4c1.5,0,2.9-0.2,4-0.6V40.2z M59.4,49.9
				c-1.2,0.3-3,0.5-5,0.5c-3.7,0-8.8-0.3-8.8-6.3c0-4.9,2.9-5.3,6.2-5.8l6.8-1.1v-1.4c0-1.1-0.1-1.9-1.2-2.4
				c-0.6-0.3-1.6-0.4-3.1-0.4c-2.7,0-5.3,0.7-6.5,1c-0.2,0-0.2,0-0.3,0c-0.1,0-0.4-0.1-0.4-0.3l-0.4-2c-0.1-0.4,0.2-0.6,0.4-0.6
				c1-0.3,4.4-1.2,8-1.2c2.6,0,4.4,0.4,5.5,1c1.9,1.1,2.1,2.8,2.1,4.8V46C62.7,48.8,61.9,49.3,59.4,49.9"/>
			<path class="st0" d="M83.2,50h-3.1c-0.4,0-0.6-0.2-0.6-0.6V36c0-2.3-0.9-3.1-3.1-3.1c-2.4,0-5,0.6-5.5,0.8v15.6
				c0,0.3-0.2,0.6-0.6,0.6h-3.1c-0.3,0-0.6-0.2-0.6-0.6V33.6c0-1.4,0.5-2,2.5-2.6c1.9-0.6,5.3-1,7.6-1c4.5,0,6.9,1.3,6.9,5.5v13.9
				C83.7,49.7,83.5,50,83.2,50"/>
			<path class="st0" d="M100.5,46.9c-0.4,0.1-2.1,0.5-4,0.5c-3.4,0-5.1-0.7-5.1-7.3c0-6.2,1.5-7.2,5-7.2c1.9,0,3.7,0.4,4.1,0.5V46.9
				z M104.1,22.5l-3,0.6c-0.4,0.1-0.6,0.3-0.6,0.7v6.8c-1-0.2-2.8-0.6-5-0.6c-6.6,0-8.4,3.5-8.4,10.3c0,7.4,2.1,10.2,9.3,10.2
				c2.6,0,4.5-0.4,6-0.8c2.2-0.6,2.3-1.8,2.3-2.9V23C104.7,22.7,104.5,22.4,104.1,22.5"/>
			<path class="st0" d="M136.7,50h-3.1c-0.4,0-0.6-0.2-0.6-0.6V30.8c0-0.3,0.3-0.5,0.6-0.5h3.1c0.3,0,0.6,0.2,0.6,0.5v18.6
				C137.2,49.7,137,50,136.7,50"/>
			<path class="st0" d="M147.5,50.4c-3.2,0-6.2-1-6.7-1.2c-0.2-0.1-0.4-0.3-0.3-0.5l0.4-2c0.1-0.3,0.2-0.4,0.4-0.4c0,0,0.1,0,0.3,0
				c0.4,0.1,3,1,5.7,1c2.5,0,4.1-0.8,4.1-2.8c0-2.5-1.8-2.5-4.3-2.9c-2.6-0.4-6.4-1.1-6.4-5.8c0-5.1,4.5-6,7.8-6
				c3.1,0,5.5,0.7,6,0.8c0.3,0.1,0.4,0.3,0.4,0.6l-0.3,2c0,0.3-0.2,0.4-0.5,0.3c-0.4-0.1-3-0.6-5.1-0.6c-2.1,0-4.1,0.5-4.1,2.6
				c0,2.2,2,2.4,4.3,2.7c3.1,0.5,6.4,1,6.4,5.9C155.6,49.1,151.9,50.4,147.5,50.4"/>
			<path class="st0" d="M175.7,33c-4.5,0-4.7,2.6-4.7,7.2c0,4.5,0.2,7.2,4.7,7.2c4.5,0,4.7-2.6,4.7-7.2
				C180.3,35.6,180.2,33,175.7,33 M175.7,50.4c-8.1,0-9.1-4.6-9.1-10.2c0-5.7,1-10.3,9.1-10.3c8.1,0,9,4.6,9,10.3
				C184.7,45.9,183.7,50.4,175.7,50.4"/>
			<path class="st0" d="M204.7,50h-3.1c-0.4,0-0.6-0.2-0.6-0.6V36c0-2.3-0.9-3.1-3.1-3.1c-2.4,0-5,0.6-5.5,0.8v15.6
				c0,0.3-0.2,0.6-0.6,0.6h-3.1c-0.3,0-0.6-0.2-0.6-0.6V33.6c0-1.4,0.5-2,2.5-2.6c1.9-0.6,5.3-1,7.6-1c4.5,0,6.9,1.3,6.9,5.5v13.9
				C205.3,49.7,205.1,50,204.7,50"/>
			<path class="st0" d="M162.5,50h-3.1c-0.4,0-0.6-0.2-0.6-0.6V30.8c0-0.3,0.3-0.5,0.6-0.5h3.1c0.3,0,0.6,0.2,0.6,0.5v18.6
				C163,49.7,162.8,50,162.5,50"/>
			<path class="st0" d="M131.7,22.4h-3.5c-0.3,0-0.6,0.1-0.7,0.5c0,0-7,22.3-7.1,22.6c-0.1,0.3-0.4,0.5-0.7,0.5
				c-0.3,0-0.6-0.2-0.7-0.5c-0.1-0.3-7.1-22.6-7.1-22.6c-0.1-0.4-0.4-0.5-0.7-0.5h-3.5c-0.4,0-0.6,0.4-0.5,0.7l8.5,26.2
				c0.1,0.3,0.4,0.6,0.7,0.6h6.5c0.3,0,0.6-0.3,0.7-0.6l8.5-26.2C132.3,22.8,132.1,22.4,131.7,22.4"/>
		</g>
	</g>
	<g>
		<path class="st0" d="M255.4,31c0.8,0,1.5,0.7,1.5,1.5c0,0.9-0.7,1.5-1.5,1.5c-0.8,0-1.5-0.7-1.5-1.5C253.9,31.7,254.6,31,255.4,31
			 M255.4,30.2c-1.3,0-2.3,1-2.3,2.3c0,1.3,1,2.3,2.3,2.3c1.3,0,2.3-1,2.3-2.3C257.8,31.2,256.7,30.2,255.4,30.2L255.4,30.2z"/>
		<path class="st0" d="M259.2,25.7c0.8,0,1.5,0.7,1.5,1.5c0,0.8-0.7,1.5-1.5,1.5s-1.5-0.7-1.5-1.5C257.7,26.4,258.4,25.7,259.2,25.7
			 M259.2,24.9c-1.3,0-2.3,1-2.3,2.3c0,1.3,1,2.3,2.3,2.3c1.3,0,2.3-1,2.3-2.3C261.6,25.9,260.5,24.9,259.2,24.9L259.2,24.9z"/>
		<path class="st0" d="M265.4,23.7c0.8,0,1.5,0.7,1.5,1.5c0,0.8-0.7,1.5-1.5,1.5c-0.9,0-1.5-0.7-1.5-1.5
			C263.9,24.4,264.6,23.7,265.4,23.7 M265.4,22.9c-1.3,0-2.3,1-2.3,2.3c0,1.3,1,2.3,2.3,2.3c1.3,0,2.3-1,2.3-2.3
			C267.8,23.9,266.7,22.9,265.4,22.9L265.4,22.9z"/>
		<path class="st0" d="M271.6,25.7c0.8,0,1.5,0.7,1.5,1.5c0,0.8-0.7,1.5-1.5,1.5c-0.8,0-1.5-0.7-1.5-1.5
			C270.1,26.4,270.8,25.7,271.6,25.7 M271.6,24.9c-1.3,0-2.3,1-2.3,2.3c0,1.3,1,2.3,2.3,2.3c1.3,0,2.3-1,2.3-2.3
			C274,25.9,272.9,24.9,271.6,24.9L271.6,24.9z"/>
		<path class="st0" d="M275.5,31c0.8,0,1.5,0.7,1.5,1.5c0,0.9-0.7,1.5-1.5,1.5c-0.8,0-1.5-0.7-1.5-1.5C273.9,31.7,274.6,31,275.5,31
			 M275.5,30.2c-1.3,0-2.3,1-2.3,2.3c0,1.3,1,2.3,2.3,2.3c1.3,0,2.3-1,2.3-2.3C277.8,31.2,276.8,30.2,275.5,30.2L275.5,30.2z"/>
		<path class="st0" d="M275.5,37.5c0.8,0,1.5,0.7,1.5,1.5c0,0.8-0.7,1.5-1.5,1.5c-0.8,0-1.5-0.7-1.5-1.5
			C273.9,38.2,274.6,37.5,275.5,37.5 M275.5,36.7c-1.3,0-2.3,1-2.3,2.3c0,1.3,1,2.3,2.3,2.3c1.3,0,2.3-1,2.3-2.3
			C277.8,37.7,276.8,36.7,275.5,36.7L275.5,36.7z"/>
		<path class="st0" d="M271.6,42.8c0.8,0,1.5,0.7,1.5,1.5c0,0.9-0.7,1.5-1.5,1.5c-0.8,0-1.5-0.7-1.5-1.5
			C270.1,43.4,270.8,42.8,271.6,42.8 M271.6,41.9c-1.3,0-2.3,1-2.3,2.3c0,1.3,1,2.3,2.3,2.3c1.3,0,2.3-1,2.3-2.3
			C274,43,272.9,41.9,271.6,41.9L271.6,41.9z"/>
		<path class="st0" d="M265.4,44.8c0.8,0,1.5,0.7,1.5,1.5c0,0.8-0.7,1.5-1.5,1.5c-0.9,0-1.5-0.7-1.5-1.5
			C263.9,45.5,264.6,44.8,265.4,44.8 M265.4,44c-1.3,0-2.3,1-2.3,2.3c0,1.3,1,2.3,2.3,2.3c1.3,0,2.3-1,2.3-2.3
			C267.8,45,266.7,44,265.4,44L265.4,44z"/>
		<path class="st0" d="M259.2,42.8c0.8,0,1.5,0.7,1.5,1.5c0,0.9-0.7,1.5-1.5,1.5s-1.5-0.7-1.5-1.5C257.7,43.4,258.4,42.8,259.2,42.8
			 M259.2,41.9c-1.3,0-2.3,1-2.3,2.3c0,1.3,1,2.3,2.3,2.3c1.3,0,2.3-1,2.3-2.3C261.6,43,260.5,41.9,259.2,41.9L259.2,41.9z"/>
		<path class="st0" d="M255.4,37.5c0.8,0,1.5,0.7,1.5,1.5c0,0.8-0.7,1.5-1.5,1.5c-0.8,0-1.5-0.7-1.5-1.5
			C253.9,38.2,254.6,37.5,255.4,37.5 M255.4,36.7c-1.3,0-2.3,1-2.3,2.3c0,1.3,1,2.3,2.3,2.3c1.3,0,2.3-1,2.3-2.3
			C257.8,37.7,256.7,36.7,255.4,36.7L255.4,36.7z"/>
		<path class="st0" d="M230.5,40.6c0.6,0,1,0.5,1,1.1s-0.5,1.1-1,1.1c-0.6,0-1.1-0.5-1.1-1.1S229.9,40.6,230.5,40.6 M230.5,39.8
			c-1,0-1.9,0.8-1.9,1.9c0,1,0.8,1.9,1.9,1.9c1,0,1.9-0.8,1.9-1.9C232.3,40.6,231.5,39.8,230.5,39.8L230.5,39.8z"/>
		<path class="st0" d="M300.4,40.6c0.6,0,1.1,0.5,1.1,1.1s-0.5,1.1-1.1,1.1c-0.6,0-1.1-0.5-1.1-1.1S299.9,40.6,300.4,40.6
			 M300.4,39.8c-1,0-1.9,0.8-1.9,1.9c0,1,0.8,1.9,1.9,1.9c1,0,1.9-0.8,1.9-1.9C302.3,40.6,301.5,39.8,300.4,39.8L300.4,39.8z"/>
		<path class="st0" d="M293.9,43.5c0.8,0,1.4,0.6,1.4,1.4c0,0.8-0.6,1.4-1.4,1.4c-0.8,0-1.4-0.6-1.4-1.4
			C292.4,44.2,293.1,43.5,293.9,43.5 M293.9,42.7c-1.2,0-2.2,1-2.2,2.2s1,2.2,2.2,2.2c1.2,0,2.2-1,2.2-2.2S295.1,42.7,293.9,42.7
			L293.9,42.7z"/>
		<path class="st0" d="M237,43.5c0.8,0,1.4,0.6,1.4,1.4c0,0.8-0.6,1.4-1.4,1.4c-0.8,0-1.4-0.6-1.4-1.4
			C235.6,44.2,236.2,43.5,237,43.5 M237,42.7c-1.2,0-2.2,1-2.2,2.2s1,2.2,2.2,2.2c1.2,0,2.2-1,2.2-2.2S238.3,42.7,237,42.7L237,42.7
			z"/>
		<path class="st0" d="M245.1,46.5c1,0,1.7,0.8,1.7,1.7c0,1-0.8,1.7-1.7,1.7c-1,0-1.7-0.8-1.7-1.7C243.4,47.3,244.2,46.5,245.1,46.5
			 M245.1,45.7c-1.4,0-2.5,1.1-2.5,2.5c0,1.4,1.1,2.5,2.5,2.5c1.4,0,2.5-1.1,2.5-2.5C247.7,46.8,246.6,45.7,245.1,45.7L245.1,45.7z"
			/>
		<path class="st0" d="M285.8,46.5c1,0,1.7,0.8,1.7,1.7c0,1-0.8,1.7-1.7,1.7c-1,0-1.7-0.8-1.7-1.7C284,47.3,284.8,46.5,285.8,46.5
			 M285.8,45.7c-1.4,0-2.5,1.1-2.5,2.5c0,1.4,1.1,2.5,2.5,2.5c1.4,0,2.5-1.1,2.5-2.5C288.3,46.8,287.2,45.7,285.8,45.7L285.8,45.7z"
			/>
		<path class="st0" d="M277.5,47.8c1.1,0,2,0.9,2,2c0,1.1-0.9,2-2,2s-2-0.9-2-2C275.5,48.7,276.4,47.8,277.5,47.8 M277.5,47
			c-1.5,0-2.8,1.2-2.8,2.8c0,1.5,1.2,2.8,2.8,2.8c1.5,0,2.8-1.2,2.8-2.8C280.3,48.2,279,47,277.5,47L277.5,47z"/>
		<path class="st0" d="M253.4,47.8c1.1,0,2,0.9,2,2c0,1.1-0.9,2-2,2c-1.1,0-2-0.9-2-2C251.4,48.7,252.3,47.8,253.4,47.8 M253.4,47
			c-1.5,0-2.8,1.2-2.8,2.8c0,1.5,1.2,2.8,2.8,2.8c1.5,0,2.8-1.2,2.8-2.8C256.2,48.2,254.9,47,253.4,47L253.4,47z"/>
		<path class="st0" d="M261.2,49.9c1.1,0,2,0.9,2,2c0,1.1-0.9,2-2,2c-1.1,0-2-0.9-2-2C259.2,50.8,260.1,49.9,261.2,49.9 M261.2,49.1
			c-1.5,0-2.8,1.2-2.8,2.8c0,1.5,1.2,2.8,2.8,2.8c1.5,0,2.8-1.2,2.8-2.8C264,50.3,262.7,49.1,261.2,49.1L261.2,49.1z"/>
		<path class="st0" d="M269.7,49.9c1.1,0,2,0.9,2,2c0,1.1-0.9,2-2,2c-1.1,0-2-0.9-2-2C267.7,50.8,268.6,49.9,269.7,49.9 M269.7,49.1
			c-1.5,0-2.8,1.2-2.8,2.8c0,1.5,1.2,2.8,2.8,2.8c1.5,0,2.8-1.2,2.8-2.8C272.4,50.3,271.2,49.1,269.7,49.1L269.7,49.1z"/>
	</g>
</g>
</svg>
