<?xml version="1.0" encoding="utf-8"?>
<!-- Generator: Adobe Illustrator 27.1.1, SVG Export Plug-In . SVG Version: 6.00 Build 0)  -->
<svg version="1.1" id="Camada_1" xmlns="http://www.w3.org/2000/svg" xmlns:xlink="http://www.w3.org/1999/xlink" x="0px" y="0px"
	 viewBox="0 0 167.6 71.5" style="enable-background:new 0 0 167.6 71.5;" xml:space="preserve">
<style type="text/css">
	.st0{fill-rule:evenodd;clip-rule:evenodd;fill:#4C4C4C;}
</style>
<path class="st0" d="M23.1,38.4c-4.5,3.4-9.7,5.5-16.3,5.2c-1.5-0.1-1.6,0.7-0.4,1.5c2.1,1.3,4.3,2,6.7,2.2c0.9,0,1.1,0.4,0.9,1.1
	c-0.7,2.5-0.5,5,0,7.5c0.3,1.5,1.1,1.2,1.4,0.1c1.4-5.8,5-10.2,10.2-13.4c2.6-1.6,5-2.6,7.4-3.6c2.4,0.9,4.8,2,7.4,3.6
	c5.2,3.2,8.8,7.6,10.2,13.4c0.3,1.1,1.1,1.4,1.4-0.1c0.5-2.5,0.6-5,0-7.5c-0.2-0.8,0-1.1,0.9-1.1c2.4-0.2,4.6-0.9,6.7-2.2
	c1.3-0.8,1.1-1.6-0.4-1.5c-6.6,0.3-11.9-1.8-16.3-5.2c-0.9-0.7-1.7-1.4-2.5-2.1c2.6-1.2,5.4-2.6,8.4-4.9c3.7-2.8,6.8-5.9,9-9.2
	c1-1.4,3.8-5.5,2-7c-1.6-1.3-5.7,0-7.5,0.6c-4.7,1.5-9.1,3.7-13,6.5C36.8,24,34.8,26,33,28.1c-1.8-2.1-3.9-4.1-6.4-5.9
	c-3.9-2.8-8.2-5-13-6.5c-1.8-0.6-5.9-1.9-7.5-0.6c-1.7,1.5,1.1,5.6,2,7c2.3,3.3,5.3,6.4,9,9.2c3,2.3,5.8,3.8,8.4,4.9
	C24.8,37,24,37.7,23.1,38.4z M92.2,36.7c0.2,4.9,5.1,6.8,9.6,4.3l1.2,2.6c-4,1.7-7.6,2-10.3,0.5c-2.3-1.2-3.7-3.6-4.2-6.2
	c-0.9-4.3,0-9.5,4.4-11.5c2.5-1.1,5.6-1.1,7.7,0.5c2,1.5,2.8,4.5,3.1,8.1L92.2,36.7z M92.1,34.8l7.7-1.2
	C98.6,25.7,91.7,26.9,92.1,34.8z M122.1,18.6c1.3,0,2.3,1,2.3,2.3c0,1.3-1,2.3-2.3,2.3c-1.3,0-2.3-1-2.3-2.3
	C119.8,19.7,120.8,18.6,122.1,18.6z M162,27.3v20.5c-1.1,5-9.3,6.6-14.1,3.6l1.5-2.4c4,1.6,7.9,1.2,8.4-1.2v-3.4
	c-4.4,2-8.6-0.3-10.2-4.5c-1.4-3.6-0.8-9.2,2.3-11.9C153.1,25.1,158.6,25,162,27.3z M157.8,42.1V28.7c-2.5-0.8-4.5-0.1-5.6,1.8
	c-1.4,2.3-1.4,7.9,0,10.3C153.4,42.7,155.5,43.1,157.8,42.1z M143.1,30.2v14.7h-4.3V30.7c-1.1-2.1-3.1-2.7-6.1-1.7v15.9h-4.3V27.2
	C133.6,24.8,141.6,25,143.1,30.2z M119.9,25.8h4.3v19.1h-4.3V25.8z M111.7,29.1v15.8h-4.3V27.2c1.4-1.3,4.9-1.6,9.1-1.4l-1,2.9
	C114,28.7,112.6,28.7,111.7,29.1z M68.7,21h4.3v10h7.8V21h4.3v23.9h-4.3V34.2h-7.8v10.7h-4.3V21z M13.7,19.4c-0.9,0-1.6,0.7-1.6,1.6
	c0,0.9,0.7,1.6,1.6,1.6s1.6-0.7,1.6-1.6C15.3,20.1,14.6,19.4,13.7,19.4z M52.3,19.4c0.9,0,1.6,0.7,1.6,1.6c0,0.9-0.7,1.6-1.6,1.6
	s-1.6-0.7-1.6-1.6C50.6,20.1,51.4,19.4,52.3,19.4z"/>
</svg>
