<?xml version="1.0" encoding="utf-8"?>
<!-- Generator: Adobe Illustrator 27.1.1, SVG Export Plug-In . SVG Version: 6.00 Build 0)  -->
<svg version="1.1" id="Camada_1" xmlns="http://www.w3.org/2000/svg" xmlns:xlink="http://www.w3.org/1999/xlink" x="0px" y="0px"
	 viewBox="0 0 84 117" style="enable-background:new 0 0 84 117;" xml:space="preserve">
<style type="text/css">
	.st0{fill:#FFFFFF;}
</style>
<g>
	<g>
		<path class="st0" d="M76.6,116.6H7.4c-3.8,0-7-3.2-7-7.1V58.4c0-3.9,3.1-7.1,7-7.1h69.1c3.8,0,7,3.2,7,7.1v51.2
			C83.5,113.5,80.4,116.6,76.6,116.6z M7.4,54.6c-2,0-3.7,1.7-3.7,3.7v51.2c0,2.1,1.6,3.7,3.7,3.7h69.1c2,0,3.7-1.7,3.7-3.7V58.4
			c0-2.1-1.6-3.7-3.7-3.7H7.4z"/>
	</g>
	<g>
		<path class="st0" d="M70.2,53h-3.3V28.8C66.9,15,55.7,3.7,42,3.7S17.1,15,17.1,28.8V53h-3.3V28.8C13.8,13.1,26.4,0.4,42,0.4
			s28.2,12.8,28.2,28.5V53z"/>
	</g>
	<g>
		<path class="st0" d="M42,103.4c-4,0-7.2-3.2-7.2-7.1v-8.8c-4.4-3-6.4-8.2-5.2-13.4c1.1-4.4,4.6-7.9,9-9c0.1,0,0.2-0.1,0.3-0.1
			c3.9-0.9,7.9,0,11,2.4c3,2.4,4.7,6,4.7,9.8c0,4.1-2.1,8-5.5,10.3v8.8C49.2,100.2,46,103.4,42,103.4z M40,68.1
			c-0.1,0-0.2,0.1-0.3,0.1c-3.3,0.8-6,3.4-6.8,6.6c-1,4.1,0.7,8.2,4.4,10.3c0.5,0.3,0.8,0.8,0.8,1.4v9.7c0,2.1,1.7,3.8,3.9,3.8
			c2.1,0,3.9-1.7,3.9-3.8v-9.7c0-0.6,0.3-1.1,0.8-1.4c2.9-1.7,4.7-4.7,4.7-8c0-2.8-1.3-5.4-3.5-7.2C45.7,68.2,42.8,67.5,40,68.1z"/>
	</g>
</g>
</svg>
