<?xml version="1.0" encoding="utf-8"?>
<!-- Generator: Adobe Illustrator 27.1.1, SVG Export Plug-In . SVG Version: 6.00 Build 0)  -->
<svg version="1.1" id="Camada_1" xmlns="http://www.w3.org/2000/svg" xmlns:xlink="http://www.w3.org/1999/xlink" x="0px" y="0px"
	 viewBox="0 0 68 68" style="enable-background:new 0 0 68 68;" xml:space="preserve">
<style type="text/css">
	.st0{fill:#20A4DC;}
</style>
<g>
	<g>
		<path class="st0" d="M34,61.2l-0.9-3.5c-2-7.3-6-12.2-10-16.8c-4.6-5.4-8.9-10.5-8.9-18.8c0-11.1,8.9-20.2,19.8-20.2
			c11,0,19.8,9,19.8,20.1c0,8.3-4.3,13.4-8.9,18.9c-3.9,4.7-8,9.5-10,16.8L34,61.2z M34.1,3.8C24.1,3.8,16.1,12,16.1,22
			c0,7.6,3.9,12.2,8.5,17.6c3.4,4,7.1,8.4,9.4,14.6c2.3-6.2,6-10.6,9.4-14.6c4.5-5.4,8.5-10.1,8.5-17.6C51.9,11.9,43.9,3.8,34.1,3.8
			z"/>
	</g>
	<g>
		<path class="st0" d="M34,66.2c-11.3,0-19.8-3.6-19.8-8.4c0-3.5,4.6-6.4,11.9-7.8l0.3,1.9c-6.1,1.1-10.3,3.5-10.3,5.8
			c0,3.1,7.3,6.5,17.9,6.5s17.9-3.4,17.9-6.5c0-2.4-4.3-4.8-10.5-5.9l0.3-1.9c7.5,1.3,12.2,4.3,12.2,7.8
			C53.8,62.6,45.3,66.2,34,66.2z"/>
	</g>
	<g>
		<rect x="30.8" y="29.1" class="st0" width="6.5" height="2"/>
	</g>
	<g>
		<polygon class="st0" points="34.4,30.1 32.4,30.1 32.4,19.4 30.8,19.4 30.8,17.4 34.4,17.4 		"/>
	</g>
	<g>
		<rect x="32.4" y="13.2" class="st0" width="2" height="1.3"/>
	</g>
</g>
</svg>
