<?xml version="1.0" encoding="utf-8"?>
<!-- Generator: Adobe Illustrator 27.1.1, SVG Export Plug-In . SVG Version: 6.00 Build 0)  -->
<svg version="1.1" id="Camada_1" xmlns="http://www.w3.org/2000/svg" xmlns:xlink="http://www.w3.org/1999/xlink" x="0px" y="0px"
	 viewBox="0 0 87 87" style="enable-background:new 0 0 87 87;" xml:space="preserve">
<style type="text/css">
	.st0{fill:none;stroke:#21A5DC;stroke-width:1.9589;stroke-miterlimit:8;}
</style>
<g>
	<g>
		<defs>
			<path id="SVGID_1_" d="M0.7,14.3c0-7.9,6.4-14.3,14.3-14.3h57.1c7.9,0,14.3,6.4,14.3,14.3v58.3c0,7.9-6.4,14.3-14.3,14.3H14.9
				c-7.9,0-14.3-6.4-14.3-14.3V14.3z"/>
		</defs>
		<use xlink:href="#SVGID_1_"  style="overflow:visible;fill-rule:evenodd;clip-rule:evenodd;fill:#FFFFFF;"/>
		<clipPath id="SVGID_00000086649698696464235420000000921535277388582535_">
			<use xlink:href="#SVGID_1_"  style="overflow:visible;"/>
		</clipPath>
	</g>
	<g>
		<path class="st0" d="M41.5,53L33,44c-0.9-1-0.9-2.7,0.1-3.7l1.6-1.7"/>
		<path class="st0" d="M49.4,45.5L37,34.1c-1-0.9-2.7-0.9-3.8,0c-1.1,1-1.1,2.5,0,3.5c0,0,0,0,0,0L45.6,49"/>
		<path class="st0" d="M53.3,68.6l-2.6-2.8c-1.5-1.7-5-1.6-7-3.8L33.1,50.8c-0.9-1.1-0.9-2.8,0.1-3.8l1.7-1.8"/>
		<path class="st0" d="M53.3,42.5l-10.1-9.7c-1-1-2.6-1-3.6-0.1c0,0,0,0-0.1,0.1l-1.9,1.8"/>
		<path class="st0" d="M67.6,54.3l-2.7-2.6c-1.4-1.4-2.2-3.2-2.4-5.1c-0.4-2.1-1.5-3.9-3.1-5.4l-4.6-4.4c-0.8-1-2.3-1.1-3.4-0.3
			c-0.1,0.1-0.2,0.2-0.3,0.3l-1.8,1.8"/>
		<polyline class="st0" points="57.8,73.9 53.3,69.4 68.4,54.3 72.9,58.7 		"/>
		<path class="st0" d="M19.3,33.4l2.5,2.9c1.5,1.7,1.4,5.5,3.3,7.7l3.3,3.8"/>
		<path class="st0" d="M32.4,20.3l2.8,2.5c1.5,1.3,3.3,2,5.3,2.2c2.2,0.4,4.1,1.3,5.6,2.8l4.6,4.2"/>
		<polyline class="st0" points="14.1,30.3 18.6,34.7 33.7,19.6 29.3,15.1 		"/>
		<path class="st0" d="M19.3,54.3l2.8-2.8c1.3-1.4,2.2-3.2,2.4-5"/>
		<polyline class="st0" points="29.3,72.6 33.7,68.1 18.6,53 14.1,57.4 		"/>
		<path class="st0" d="M67.6,32.1l-2.9,2.8c-1.2,1.1-1.5,3.2-2.3,5.1"/>
		<path class="st0" d="M53.3,19l-2.8,2.8c-1.4,1.3-3.2,2.2-5,2.4"/>
		<polyline class="st0" points="72.9,28.9 68.4,33.4 53.3,18.3 57.8,13.8 		"/>
	</g>
</g>
</svg>
