<?xml version="1.0" encoding="utf-8"?>
<!-- Generator: Adobe Illustrator 27.1.1, SVG Export Plug-In . SVG Version: 6.00 Build 0)  -->
<svg version="1.1" id="Camada_1" xmlns="http://www.w3.org/2000/svg" xmlns:xlink="http://www.w3.org/1999/xlink" x="0px" y="0px"
	 viewBox="0 0 58 58" style="enable-background:new 0 0 58 58;" xml:space="preserve">
<style type="text/css">
	.st0{fill-rule:evenodd;clip-rule:evenodd;fill:#20A4DC;}
	.st1{fill:none;stroke:#FFFFFF;stroke-width:1.5;stroke-miterlimit:10;}
</style>
<g>
	<path class="st0" d="M48.5,57.2H9.5c-4.8,0-8.7-3.9-8.7-8.7V9.5c0-4.8,3.9-8.7,8.7-8.7h39.1c4.8,0,8.7,3.9,8.7,8.7v39.1
		C57.2,53.3,53.3,57.2,48.5,57.2z"/>
	<g>
		<path class="st1" d="M39.4,29.8c-0.7,0-1.4,0.2-2.1,0.5c0.4-5.6,3.4-9.8,8.4-12.7l-2.2-4C36.2,17.3,31.8,24,31.8,32.1
			c0,6.2,3.1,9.8,7.3,9.8c3.6,0,6-2.6,6-6.2C45.1,32.2,42.8,29.8,39.4,29.8z"/>
		<path class="st1" d="M27,17.5l-2.2-4C17.6,17.3,13.2,24,13.2,32.1c0,6.2,3.1,9.8,7.3,9.8c3.6,0,6-2.6,6-6.2c0-3.5-2.3-5.9-5.7-5.9
			c-0.7,0-1.4,0.2-2.1,0.5C19.1,24.7,22.1,20.4,27,17.5z"/>
	</g>
</g>
</svg>
