<?xml version="1.0" encoding="utf-8"?>
<!-- Generator: Adobe Illustrator 27.1.1, SVG Export Plug-In . SVG Version: 6.00 Build 0)  -->
<svg version="1.1" id="Camada_1" xmlns="http://www.w3.org/2000/svg" xmlns:xlink="http://www.w3.org/1999/xlink" x="0px" y="0px"
	 viewBox="0 0 74 78.3" style="enable-background:new 0 0 74 78.3;" xml:space="preserve">
<style type="text/css">
	.st0{fill:#FFFFFF;}
</style>
<g>
	<g>
		<defs>
			<path id="SVGID_1_" d="M0.5,15c0-6.7,5.4-12.2,12.2-12.2h48.7c6.7,0,12.2,5.4,12.2,12.2v48.7c0,6.7-5.4,12.2-12.2,12.2H12.7
				c-6.7,0-12.2-5.4-12.2-12.2V15z"/>
		</defs>
		
			<linearGradient id="SVGID_00000053530520109895404470000016241186249520444346_" gradientUnits="userSpaceOnUse" x1="6.3512" y1="4.1896" x2="68.4687" y2="75.3424">
			<stop  offset="0" style="stop-color:#20A4DC"/>
			<stop  offset="6.893140e-02" style="stop-color:#30ACE0"/>
			<stop  offset="0.2299" style="stop-color:#51BCE7"/>
			<stop  offset="0.3966" style="stop-color:#6AC9ED"/>
			<stop  offset="0.5692" style="stop-color:#7CD2F1"/>
			<stop  offset="0.7515" style="stop-color:#87D7F3"/>
			<stop  offset="0.9595" style="stop-color:#8AD9F4"/>
		</linearGradient>
		
			<use xlink:href="#SVGID_1_"  style="overflow:visible;fill-rule:evenodd;clip-rule:evenodd;fill:url(#SVGID_00000053530520109895404470000016241186249520444346_);"/>
		<clipPath id="SVGID_00000070088992137049782990000003727251004679236530_">
			<use xlink:href="#SVGID_1_"  style="overflow:visible;"/>
		</clipPath>
	</g>
	<g>
		<g>
			<path class="st0" d="M44,42.1l-5.4-2.2l0.9-2.6c-0.6-0.5-1.2-1.1-1.7-1.7l-2.6,0.9L32.8,31l2.5-1.2c-0.1-0.8-0.1-1.6,0-2.4
				l-2.5-1.2l2.2-5.4l2.6,0.9c0.6-0.8,1.4-1.5,2.2-2.1l1,1.3c-0.9,0.6-1.6,1.4-2.2,2.2l-0.4,0.5L36,22.8l-1.1,2.6l2.2,1.1L37,27
				c-0.2,1-0.2,2.1,0,3.1l0.1,0.6l-2.2,1.1l1.1,2.6l2.3-0.8l0.4,0.5c0.6,0.9,1.4,1.6,2.2,2.2l0.5,0.4l-0.8,2.3l2.6,1.1l1.1-2.1
				l0.6,0.1c1,0.2,2.1,0.2,3.1,0l0.6-0.1l1.4,2.8l-1.5,0.7l-0.9-1.8c-0.8,0.1-1.6,0.1-2.5,0L44,42.1z"/>
		</g>
		<g>
			<path class="st0" d="M46.8,34.2c-0.8,0-1.7-0.2-2.4-0.6c-1.2-0.6-2-1.7-2.3-2.9c-0.3-1.2-0.1-2.5,0.5-3.6
				c0.7-1.1,1.8-1.9,3.1-2.2l0.4,1.6c-0.9,0.2-1.6,0.7-2,1.5c-0.4,0.7-0.5,1.5-0.3,2.3c0.2,0.8,0.8,1.5,1.5,1.9
				c1.6,0.9,3.6,0.4,4.5-1.1l1.4,0.9C50.2,33.3,48.5,34.2,46.8,34.2z"/>
		</g>
		<g>
			<path class="st0" d="M30.8,54.9l-1-1.3c0.9-0.6,1.7-1.4,2.3-2.3l0.4-0.5l2.4,0.8l1.1-2.8l-2.3-1.1L34,47c0.2-1.1,0.2-2.2,0-3.3
				l-0.1-0.6l2.3-1.1L35,39.2L32.6,40l-0.4-0.5c-0.6-0.9-1.4-1.7-2.3-2.3l-0.5-0.4l0.8-2.4l-2.8-1.1l-1.1,2.3l-0.6-0.1
				c-1.1-0.2-2.2-0.2-3.3,0l-0.6,0.1l-1.1-2.3l-2.8,1.1l0.8,2.4l-0.5,0.4c-0.9,0.6-1.7,1.4-2.3,2.3l-1.3-1c0.6-0.9,1.4-1.7,2.2-2.3
				l-0.9-2.7l5.6-2.3l1.3,2.6c0.9-0.1,1.7-0.1,2.6,0l1.3-2.6l5.6,2.3l-0.9,2.7c0.7,0.5,1.3,1.2,1.9,1.9l2.7-0.9l2.3,5.6l-2.6,1.3
				c0.1,0.9,0.1,1.7,0,2.6l2.6,1.3l-2.3,5.6l-2.7-0.9C32.5,53.5,31.7,54.3,30.8,54.9z"/>
		</g>
		<g>
			<path class="st0" d="M24,50.7V49c2,0,3.6-1.6,3.6-3.6s-1.6-3.6-3.6-3.6s-3.6,1.6-3.6,3.6h-1.6c0-2.9,2.3-5.2,5.2-5.2
				s5.2,2.3,5.2,5.2S26.9,50.7,24,50.7z"/>
		</g>
		<g>
			<path class="st0" d="M33.4,57.3c-11.7,0-21.2-9.5-21.2-21.2s9.5-21.2,21.2-21.2s21.2,9.5,21.2,21.2S45,57.3,33.4,57.3z
				 M33.4,16.6c-10.8,0-19.5,8.8-19.5,19.5s8.8,19.5,19.5,19.5s19.5-8.8,19.5-19.5S44.1,16.6,33.4,16.6z"/>
		</g>
		<g>
			<polygon class="st0" points="58.1,65.3 47.6,54.8 48.8,53.7 58.1,63 60.2,60.9 50.9,51.5 52.1,50.4 62.6,60.9 			"/>
		</g>
	</g>
</g>
</svg>
