<?xml version="1.0" encoding="utf-8"?>
<!-- Generator: Adobe Illustrator 27.1.1, SVG Export Plug-In . SVG Version: 6.00 Build 0)  -->
<svg version="1.1" id="Camada_1" xmlns="http://www.w3.org/2000/svg" xmlns:xlink="http://www.w3.org/1999/xlink" x="0px" y="0px"
	 viewBox="0 0 90 90" style="enable-background:new 0 0 90 90;" xml:space="preserve">
<style type="text/css">
	.st0{fill-rule:evenodd;clip-rule:evenodd;fill:url(#SVGID_00000170993969983142240650000017964674545654275468_);}
	.st1{fill:none;stroke:#FFFFFF;stroke-width:1.95;stroke-linejoin:round;stroke-miterlimit:10;}
	.st2{fill:none;stroke:#FFFFFF;stroke-width:1.95;stroke-miterlimit:8;}
</style>
<g>
	<g>
		
			<linearGradient id="SVGID_00000051371057000256088990000005278211760886429349_" gradientUnits="userSpaceOnUse" x1="11.5434" y1="80.4566" x2="85.3221" y2="6.6779" gradientTransform="matrix(1 0 0 -1 0 92)">
			<stop  offset="0" style="stop-color:#20A4DC"/>
			<stop  offset="6.893140e-02" style="stop-color:#30ACE0"/>
			<stop  offset="0.2299" style="stop-color:#51BCE7"/>
			<stop  offset="0.3966" style="stop-color:#6AC9ED"/>
			<stop  offset="0.5692" style="stop-color:#7CD2F1"/>
			<stop  offset="0.7515" style="stop-color:#87D7F3"/>
			<stop  offset="0.9595" style="stop-color:#8AD9F4"/>
		</linearGradient>
		
			<path id="SVGID_1_" style="fill-rule:evenodd;clip-rule:evenodd;fill:url(#SVGID_00000051371057000256088990000005278211760886429349_);" d="
			M2.1,16.4c0-7.9,6.4-14.3,14.3-14.3h57.2c7.9,0,14.3,6.4,14.3,14.3v57.2c0,7.9-6.4,14.3-14.3,14.3H16.4c-7.9,0-14.3-6.4-14.3-14.3
			C2.1,73.6,2.1,16.4,2.1,16.4z"/>
	</g>
</g>
<g>
	<polyline class="st1" points="21,45.4 21,68.4 35.4,63.5 53.4,68.1 69.1,62.3 69.1,32 53.4,37.1 46.2,34.7 	"/>
	<line class="st2" x1="53.5" y1="68.4" x2="53.5" y2="37.2"/>
	<line class="st1" x1="35.2" y1="63.2" x2="35.2" y2="56.7"/>
	<path class="st1" d="M32,51.5c-2.8-9-11-10.9-11-19.1c0-5.8,5.3-10.8,11-10.8c5.8,0,11,5,11,10.8C43,40.6,34.8,42.5,32,51.5"/>
	<path class="st1" d="M32,29.4c-1.8,0-3.2,1.5-3.2,3.3c0,1.8,1.5,3.2,3.2,3.2c1.8,0,3.3-1.5,3.3-3.2C35.3,30.9,33.8,29.4,32,29.4z"
		/>
</g>
</svg>
