<?xml version="1.0" encoding="utf-8"?>
<!-- Generator: Adobe Illustrator 27.1.1, SVG Export Plug-In . SVG Version: 6.00 Build 0)  -->
<svg version="1.1" id="Camada_1" xmlns="http://www.w3.org/2000/svg" xmlns:xlink="http://www.w3.org/1999/xlink" x="0px" y="0px"
	 viewBox="0 0 74 74" style="enable-background:new 0 0 74 74;" xml:space="preserve">
<style type="text/css">
	.st0{fill:#FFFFFF;}
</style>
<g>
	<g>
		<defs>
			<path id="SVGID_1_" d="M0.5,12.7c0-6.7,5.4-12.2,12.2-12.2h48.7c6.7,0,12.2,5.4,12.2,12.2v48.7c0,6.7-5.4,12.2-12.2,12.2H12.7
				c-6.7,0-12.2-5.4-12.2-12.2V12.7z"/>
		</defs>
		
			<linearGradient id="SVGID_00000084494630666915335060000003902935132794156183_" gradientUnits="userSpaceOnUse" x1="5.979" y1="5.979" x2="66.9672" y2="66.9671">
			<stop  offset="0" style="stop-color:#20A4DC"/>
			<stop  offset="6.893140e-02" style="stop-color:#30ACE0"/>
			<stop  offset="0.2299" style="stop-color:#51BCE7"/>
			<stop  offset="0.3966" style="stop-color:#6AC9ED"/>
			<stop  offset="0.5692" style="stop-color:#7CD2F1"/>
			<stop  offset="0.7515" style="stop-color:#87D7F3"/>
			<stop  offset="0.9595" style="stop-color:#8AD9F4"/>
		</linearGradient>
		
			<use xlink:href="#SVGID_1_"  style="overflow:visible;fill-rule:evenodd;clip-rule:evenodd;fill:url(#SVGID_00000084494630666915335060000003902935132794156183_);"/>
		<clipPath id="SVGID_00000170266268039959020940000006086870482619050389_">
			<use xlink:href="#SVGID_1_"  style="overflow:visible;"/>
		</clipPath>
	</g>
	<g>
		<path class="st0" d="M36.8,60.4l-10.1-2.7l1.4-5c-1.1-0.7-2.2-1.5-3.2-2.4l-4.5,2.6l-2.3-3.9l1.3-0.8l1.5,2.6l4.2-2.4l0.4,0.4
			c1.1,1.1,2.4,2.1,3.8,2.9l0.5,0.3l-1.3,4.7l7.2,1.9l1.3-4.7l0.6,0c1.6,0,3.2-0.2,4.7-0.6l0.6-0.2l2.4,4.2l6.4-3.7l-2.4-4.2
			l0.4-0.4c1.1-1.1,2.1-2.4,2.9-3.7l0.3-0.5l4.7,1.3l1.9-7.1l-4.7-1.2l0-0.6c0-1.6-0.2-3.2-0.6-4.7l-0.2-0.6l4.2-2.4l-3.7-6.4
			l-4.2,2.4l-0.4-0.4c-1.1-1.1-2.4-2.1-3.8-2.9L45.7,22l1.3-4.7l-7.2-1.9l-1.3,4.7l-0.6,0c-1.6,0-3.2,0.2-4.7,0.6l-0.6,0.2l-2.4-4.2
			l-6.4,3.7l2.4,4.2l-0.4,0.4c-1.1,1.1-2.1,2.4-2.9,3.7l-0.3,0.5l-4.7-1.3l-0.7,2.3l-1.4-0.4l1.1-3.7l5,1.3c0.7-1.1,1.5-2.2,2.5-3.1
			l-2.6-4.5l9-5.2l2.6,4.5c1.3-0.3,2.6-0.5,4-0.5l1.3-5l10.1,2.7l-1.4,5c1.1,0.7,2.2,1.5,3.2,2.4l4.5-2.6l5.2,9l-4.5,2.6
			c0.3,1.3,0.5,2.6,0.5,3.9l5.1,1.3l-2.7,10l-5-1.3c-0.7,1.1-1.5,2.2-2.4,3.1l2.6,4.5l-9,5.2l-2.6-4.5c-1.3,0.3-2.6,0.5-4,0.5
			L36.8,60.4z"/>
	</g>
	<g>
		<path class="st0" d="M37.5,46.2c-4.8,0-8.8-4.1-8.8-9.2s3.9-9.2,8.8-9.2s8.8,4.1,8.8,9.2S42.3,46.2,37.5,46.2z M37.5,29.2
			c-4,0-7.2,3.5-7.2,7.8s3.3,7.8,7.2,7.8s7.2-3.5,7.2-7.8S41.5,29.2,37.5,29.2z"/>
	</g>
	<g>
		<rect x="5.5" y="32.7" class="st0" width="17" height="1.5"/>
	</g>
	<g>
		<rect x="11.5" y="44.7" class="st0" width="12" height="1.5"/>
	</g>
	<g>
		<rect x="15.5" y="38.7" class="st0" width="10" height="1.5"/>
	</g>
</g>
</svg>
