<?xml version="1.0" encoding="utf-8"?>
<!-- Generator: Adobe Illustrator 27.1.1, SVG Export Plug-In . SVG Version: 6.00 Build 0)  -->
<svg version="1.1" id="Camada_1" xmlns="http://www.w3.org/2000/svg" xmlns:xlink="http://www.w3.org/1999/xlink" x="0px" y="0px"
	 viewBox="0 0 74 150" style="enable-background:new 0 0 74 150;" xml:space="preserve">
<style type="text/css">
	.st0{fill-rule:evenodd;clip-rule:evenodd;fill:none;stroke:#20A4DC;stroke-width:2;stroke-linecap:round;stroke-miterlimit:10;}
	
		.st1{opacity:0.8;fill-rule:evenodd;clip-rule:evenodd;fill:none;stroke:#20A4DC;stroke-width:2;stroke-linecap:round;stroke-miterlimit:10;}
	
		.st2{opacity:0.6;fill-rule:evenodd;clip-rule:evenodd;fill:none;stroke:#20A4DC;stroke-width:2;stroke-linecap:round;stroke-miterlimit:10;}
	.st3{fill:#FFFFFF;}
</style>
<g>
	<g>
		<path class="st0" d="M49.8,133.4l-13,13c-1.1,1.1-2.9,1.1-4,0l-13-13"/>
		<path class="st1" d="M49.8,115.1l-13,13c-1.1,1.1-2.9,1.1-4,0l-13-13"/>
		<path class="st2" d="M49.8,94.6l-13,13c-1.1,1.1-2.9,1.1-4,0l-13-13"/>
	</g>
	<g>
		<defs>
			<path id="SVGID_1_" d="M0.5,14.9c0-6.7,5.4-12.2,12.2-12.2h48.7c6.7,0,12.2,5.4,12.2,12.2v48.7c0,6.7-5.4,12.2-12.2,12.2H12.7
				c-6.7,0-12.2-5.4-12.2-12.2V14.9z"/>
		</defs>
		
			<linearGradient id="SVGID_00000005249203042229773150000005168824243872649373_" gradientUnits="userSpaceOnUse" x1="5.979" y1="8.2089" x2="66.9672" y2="69.197">
			<stop  offset="0" style="stop-color:#20A4DC"/>
			<stop  offset="6.893140e-02" style="stop-color:#30ACE0"/>
			<stop  offset="0.2299" style="stop-color:#51BCE7"/>
			<stop  offset="0.3966" style="stop-color:#6AC9ED"/>
			<stop  offset="0.5692" style="stop-color:#7CD2F1"/>
			<stop  offset="0.7515" style="stop-color:#87D7F3"/>
			<stop  offset="0.9595" style="stop-color:#8AD9F4"/>
		</linearGradient>
		
			<use xlink:href="#SVGID_1_"  style="overflow:visible;fill-rule:evenodd;clip-rule:evenodd;fill:url(#SVGID_00000005249203042229773150000005168824243872649373_);"/>
		<clipPath id="SVGID_00000120558945152835645650000002692887973641725362_">
			<use xlink:href="#SVGID_1_"  style="overflow:visible;"/>
		</clipPath>
	</g>
	<g>
		<g>
			<path class="st3" d="M42,45.2l-1.3-3.4c-1,0-2-0.2-3-0.5l-2.2,2.8l-4.9-3.1l1.4-3.3c-0.7-0.8-1.3-1.6-1.8-2.6l-3.5,0.4l-1.4-5.7
				l3.3-1.4c0-1.1,0.2-2.2,0.5-3.2l-2.7-2.3l2.9-5.1l3.2,1.4c0.7-0.7,1.6-1.4,2.5-1.9l-0.4-3.6l5.6-1.4l1.3,3.4c1,0,2,0.2,3,0.5
				l2.2-2.8l4.9,3.1l-1.4,3.3c0.7,0.8,1.3,1.6,1.8,2.6l3.5-0.4l1.4,5.7l-3.3,1.3c0,1.1-0.2,2.2-0.5,3.2l2.7,2.3l-2.9,5l-3.2-1.4
				c-0.8,0.7-1.6,1.4-2.5,1.9l0.4,3.6L42,45.2z M41.9,40.1l1.2,3.1l2.8-0.7l-0.3-3.3l0.5-0.3c1.1-0.6,2.1-1.3,2.9-2.3l0.4-0.4
				l2.9,1.3l1.5-2.6l-2.5-2.1l0.2-0.5c0.4-1.2,0.6-2.5,0.6-3.8l0-0.6l3-1.2l-0.7-2.9l-3.2,0.3l-0.3-0.5c-0.6-1.1-1.3-2.2-2.2-3.1
				l-0.4-0.4l1.3-3.1l-2.5-1.5l-2,2.6L44.5,18c-1.2-0.4-2.4-0.6-3.6-0.6l-0.6,0l-1.2-3.1l-2.8,0.7l0.3,3.3l-0.5,0.3
				c-1.1,0.6-2.1,1.3-2.9,2.3l-0.4,0.4L29.9,20l-1.5,2.6l2.5,2.1l-0.2,0.5c-0.4,1.2-0.6,2.5-0.6,3.8l0,0.6l-3,1.2l0.7,2.9l3.2-0.3
				l0.3,0.5c0.6,1.1,1.3,2.2,2.2,3.1l0.4,0.4l-1.3,3.1l2.5,1.5l2-2.6l0.6,0.2c1.2,0.4,2.4,0.6,3.6,0.6L41.9,40.1z"/>
		</g>
		<g>
			<path class="st3" d="M46.1,61.8L35,51.3l5.6-5.3l5.5,5.2l11-10.4l5.6,5.3L46.1,61.8z M37.4,51.3l8.7,8.2l14.2-13.4l-3.2-3
				l-11,10.4l-5.5-5.2L37.4,51.3z"/>
		</g>
		<g>
			<path class="st3" d="M41.1,32.9c-2.6,0-4.7-2.1-4.7-4.7s2.1-4.7,4.7-4.7s4.7,2.1,4.7,4.7S43.7,32.9,41.1,32.9z M41.1,25.2
				c-1.7,0-3,1.4-3,3c0,1.7,1.4,3,3,3s3-1.4,3-3C44.1,26.6,42.8,25.2,41.1,25.2z"/>
		</g>
		<g>
			<path class="st3" d="M25.8,62.7l-1.2-2.8c-0.9,0-1.7-0.2-2.6-0.4l-2,2.3l-4.5-2.6l1.2-2.8c-0.6-0.6-1.1-1.3-1.5-2l-3.1,0.3
				l-1.3-4.9l2.9-1.1c0-0.8,0.2-1.6,0.4-2.4l-2.4-1.9l2.7-4.3l2.9,1.2c0.6-0.6,1.3-1.1,2.1-1.5l-0.3-3l5.1-1.2l1.2,2.8
				c1.1,0,2.1,0.2,3.1,0.5L28,40.4c-1-0.3-2.1-0.5-3.2-0.5l-0.6,0l-1-2.5L21,38l0.3,2.7l-0.5,0.3c-1,0.5-1.8,1.1-2.6,1.8l-0.4,0.4
				l-2.6-1.1L14,44l2.2,1.7L16,46.3c-0.3,1-0.5,2-0.5,3l0,0.6l-2.6,1l0.5,2.2l2.8-0.3l0.3,0.5c0.5,0.9,1.1,1.8,1.9,2.5l0.4,0.4
				l-1.1,2.5l2,1.2l1.8-2.1l0.5,0.2c1,0.3,2.1,0.5,3.2,0.5l0.6,0l1,2.5l2.3-0.5l-0.3-2.7l0.5-0.3c1-0.5,1.8-1.1,2.6-1.8l0.4-0.4
				l2.6,1.1l0.6-0.9l1.4,0.9l-1.3,2.1L32.6,57c-0.6,0.6-1.3,1.1-2.1,1.5l0.3,3L25.8,62.7z"/>
		</g>
		<g>
			<path class="st3" d="M25.2,53.8c-2.3,0-4.1-2.1-4.1-4.7s1.9-4.7,4.1-4.7s4.1,2.1,4.1,4.7S27.4,53.8,25.2,53.8z M25.2,46.1
				c-1.4,0-2.5,1.4-2.5,3c0,1.7,1.1,3,2.5,3c1.4,0,2.5-1.4,2.5-3C27.6,47.5,26.5,46.1,25.2,46.1z"/>
		</g>
	</g>
</g>
</svg>
