<?xml version="1.0" encoding="utf-8"?>
<!-- Generator: Adobe Illustrator 27.1.1, SVG Export Plug-In . SVG Version: 6.00 Build 0)  -->
<svg version="1.1" id="Camada_1" xmlns="http://www.w3.org/2000/svg" xmlns:xlink="http://www.w3.org/1999/xlink" x="0px" y="0px"
	 viewBox="0 0 74 74" style="enable-background:new 0 0 74 74;" xml:space="preserve">
<style type="text/css">
	.st0{fill:none;stroke:#FFFFFF;stroke-width:1.8;stroke-linejoin:round;stroke-miterlimit:10;}
</style>
<g>
	<g>
		<defs>
			<path id="SVGID_1_" d="M0.5,12.7c0-6.7,5.4-12.2,12.2-12.2h48.7c6.7,0,12.2,5.4,12.2,12.2v48.7c0,6.7-5.4,12.2-12.2,12.2H12.7
				c-6.7,0-12.2-5.4-12.2-12.2V12.7z"/>
		</defs>
		
			<linearGradient id="SVGID_00000182518491689531459480000018126822294681859487_" gradientUnits="userSpaceOnUse" x1="5.979" y1="5.979" x2="66.9672" y2="66.9671">
			<stop  offset="0" style="stop-color:#20A4DC"/>
			<stop  offset="6.893140e-02" style="stop-color:#30ACE0"/>
			<stop  offset="0.2299" style="stop-color:#51BCE7"/>
			<stop  offset="0.3966" style="stop-color:#6AC9ED"/>
			<stop  offset="0.5692" style="stop-color:#7CD2F1"/>
			<stop  offset="0.7515" style="stop-color:#87D7F3"/>
			<stop  offset="0.9595" style="stop-color:#8AD9F4"/>
		</linearGradient>
		
			<use xlink:href="#SVGID_1_"  style="overflow:visible;fill-rule:evenodd;clip-rule:evenodd;fill:url(#SVGID_00000182518491689531459480000018126822294681859487_);"/>
		<clipPath id="SVGID_00000183929057928464111600000014271446063977678992_">
			<use xlink:href="#SVGID_1_"  style="overflow:visible;"/>
		</clipPath>
	</g>
	<g>
		<path class="st0" d="M36.8,17.2c-1.6,2.4-12.5,7.3-16.8,7.3v17.4C20,50,35.9,59,36.8,59.2c0.9-0.3,16.8-9.8,16.8-16.4V24.5
			C48.9,24.5,38.4,19.6,36.8,17.2z"/>
		<polyline class="st0" points="29.6,39.6 34.5,44.8 46.4,30.4 		"/>
	</g>
</g>
</svg>
