<?xml version="1.0" encoding="utf-8"?>
<!-- Generator: Adobe Illustrator 27.1.1, SVG Export Plug-In . SVG Version: 6.00 Build 0)  -->
<svg version="1.1" id="Camada_1" xmlns="http://www.w3.org/2000/svg" xmlns:xlink="http://www.w3.org/1999/xlink" x="0px" y="0px"
	 viewBox="0 0 94 94" style="enable-background:new 0 0 94 94;" xml:space="preserve">
<style type="text/css">
	.st0{fill-rule:evenodd;clip-rule:evenodd;fill:url(#SVGID_1_);}
	.st1{fill:none;stroke:#FFFFFF;stroke-width:1.7435;stroke-miterlimit:8;}
</style>
<g>
	<linearGradient id="SVGID_1_" gradientUnits="userSpaceOnUse" x1="6.9243" y1="1.4345" x2="89.3712" y2="95.1755">
		<stop  offset="0" style="stop-color:#20A4DC"/>
		<stop  offset="6.893140e-02" style="stop-color:#30ACE0"/>
		<stop  offset="0.2299" style="stop-color:#51BCE7"/>
		<stop  offset="0.3966" style="stop-color:#6AC9ED"/>
		<stop  offset="0.5692" style="stop-color:#7CD2F1"/>
		<stop  offset="0.7515" style="stop-color:#87D7F3"/>
		<stop  offset="0.9595" style="stop-color:#8AD9F4"/>
	</linearGradient>
	<path class="st0" d="M79.3,93.5H14.7c-7.8,0-14.2-6.4-14.2-14.2V14.7c0-7.8,6.4-14.2,14.2-14.2h64.5c7.8,0,14.2,6.4,14.2,14.2v64.5
		C93.5,87.1,87.1,93.5,79.3,93.5z"/>
	<g>
		<path class="st1" d="M19.2,45.9c0,2.8,2.4,5.1,5.5,5.1s5.5-2.3,5.5-5.1c0,2.8,2.4,5.1,5.5,5.1c3,0,5.5-2.3,5.5-5.1
			c0,2.8,2.4,5.1,5.5,5.1c3,0,5.5-2.3,5.5-5.1c0,2.8,2.4,5.1,5.5,5.1c3,0,5.5-2.3,5.5-5.1c0,2.8,2.4,5.1,5.5,5.1
			c3,0,5.5-2.3,5.5-5.1v-7.7H19.2V45.9z"/>
		<line class="st1" x1="30.1" y1="42.9" x2="30.1" y2="46.4"/>
		<line class="st1" x1="41" y1="42.9" x2="41" y2="46.4"/>
		<line class="st1" x1="51.9" y1="42.9" x2="51.9" y2="46.4"/>
		<line class="st1" x1="62.9" y1="42.9" x2="62.9" y2="46.4"/>
		<polyline class="st1" points="70.3,51 70.3,76.6 23.8,76.6 23.8,51 		"/>
		<rect x="29.6" y="56.8" class="st1" width="11.6" height="19.8"/>
		<line class="st1" x1="37.8" y1="65" x2="37.8" y2="68.5"/>
		<polygon class="st1" points="64.2,26.6 28.7,26.6 19.2,36.8 19.2,38.2 73.8,38.2 73.8,36.8 		"/>
		<rect x="29.6" y="18.5" class="st1" width="34.9" height="8.1"/>
		<polyline class="st1" points="30.8,38.2 30.8,36.8 34.3,29.5 34.3,26.6 		"/>
		<polyline class="st1" points="63.3,38.2 63.3,36.8 58.7,29.5 58.7,26.6 		"/>
		<polyline class="st1" points="41.3,38.2 41.3,36.8 42.4,29.5 42.4,26.6 		"/>
		<polyline class="st1" points="52.9,38.2 52.9,36.8 50.6,29.5 50.6,26.6 		"/>
		<rect x="47.1" y="56.8" class="st1" width="17.4" height="11.6"/>
	</g>
</g>
</svg>
