<?xml version="1.0" encoding="utf-8"?>
<!-- Generator: Adobe Illustrator 27.1.1, SVG Export Plug-In . SVG Version: 6.00 Build 0)  -->
<svg version="1.1" id="Camada_1" xmlns="http://www.w3.org/2000/svg" xmlns:xlink="http://www.w3.org/1999/xlink" x="0px" y="0px"
	 viewBox="0 0 90 90" style="enable-background:new 0 0 90 90;" xml:space="preserve">
<style type="text/css">
	.st0{fill:none;stroke:#FFFFFF;stroke-width:1.95;stroke-miterlimit:8;}
</style>
<g>
	<g>
		<defs>
			<path id="SVGID_1_" d="M2.1,16.4c0-7.9,6.4-14.3,14.3-14.3h57.2c7.9,0,14.3,6.4,14.3,14.3v57.2c0,7.9-6.4,14.3-14.3,14.3H16.4
				c-7.9,0-14.3-6.4-14.3-14.3V16.4z"/>
		</defs>
		
			<linearGradient id="SVGID_00000182485866542425703940000011277315617709136295_" gradientUnits="userSpaceOnUse" x1="9.4947" y1="4.8383" x2="76.6664" y2="80.8193">
			<stop  offset="0" style="stop-color:#20A4DC"/>
			<stop  offset="6.893140e-02" style="stop-color:#30ACE0"/>
			<stop  offset="0.2299" style="stop-color:#51BCE7"/>
			<stop  offset="0.3966" style="stop-color:#6AC9ED"/>
			<stop  offset="0.5692" style="stop-color:#7CD2F1"/>
			<stop  offset="0.7515" style="stop-color:#87D7F3"/>
			<stop  offset="0.9595" style="stop-color:#8AD9F4"/>
		</linearGradient>
		
			<use xlink:href="#SVGID_1_"  style="overflow:visible;fill-rule:evenodd;clip-rule:evenodd;fill:url(#SVGID_00000182485866542425703940000011277315617709136295_);"/>
		<clipPath id="SVGID_00000081639887527553766780000017288877678971572354_">
			<use xlink:href="#SVGID_1_"  style="overflow:visible;"/>
		</clipPath>
	</g>
	<path class="st0" d="M15.1,43.2c0,3.2,2.6,5.7,5.9,5.7s5.9-2.6,5.9-5.7c0,3.2,2.6,5.7,5.9,5.7c3.2,0,5.9-2.6,5.9-5.7
		c0,3.2,2.6,5.7,5.9,5.7c3.2,0,5.9-2.6,5.9-5.7c0,3.2,2.6,5.7,5.9,5.7c3.2,0,5.9-2.6,5.9-5.7c0,3.2,2.6,5.7,5.9,5.7
		c3.2,0,5.9-2.6,5.9-5.7v-8.6H15.1V43.2z"/>
	<line class="st0" x1="26.8" y1="41.1" x2="26.8" y2="43.7"/>
	<line class="st0" x1="38.5" y1="41.1" x2="38.5" y2="43.7"/>
	<line class="st0" x1="50.2" y1="41.1" x2="50.2" y2="43.7"/>
	<line class="st0" x1="61.9" y1="41.1" x2="61.9" y2="43.7"/>
	<polyline class="st0" points="69.7,48.9 69.7,76.2 20.3,76.2 20.3,48.9 	"/>
	<rect x="25.5" y="55.4" class="st0" width="13" height="20.8"/>
	<line class="st0" x1="34.6" y1="64.5" x2="34.6" y2="67.1"/>
	<polygon class="st0" points="63.4,22.9 25.3,22.9 15.1,33.1 15.1,34.6 73.6,34.6 73.6,33.1 	"/>
	<rect x="25.5" y="15.1" class="st0" width="37.7" height="7.8"/>
	<polyline class="st0" points="26.8,34.6 26.8,33.1 32,25.8 32,22.9 	"/>
	<polyline class="st0" points="61.9,34.6 61.9,33.1 58,25.8 58,22.9 	"/>
	<polyline class="st0" points="38.5,34.6 38.5,33.1 39.8,25.8 39.8,22.9 	"/>
	<polyline class="st0" points="50.2,34.6 50.2,33.1 48.9,25.8 48.9,22.9 	"/>
	<rect x="45" y="55.4" class="st0" width="18.2" height="11.7"/>
</g>
</svg>
