<?xml version="1.0" encoding="utf-8"?>
<!-- Generator: Adobe Illustrator 27.1.1, SVG Export Plug-In . SVG Version: 6.00 Build 0)  -->
<svg version="1.1" id="Camada_1" xmlns="http://www.w3.org/2000/svg" xmlns:xlink="http://www.w3.org/1999/xlink" x="0px" y="0px"
	 viewBox="0 0 74 150" style="enable-background:new 0 0 74 150;" xml:space="preserve">
<style type="text/css">
	.st0{fill-rule:evenodd;clip-rule:evenodd;fill:none;stroke:#20A4DC;stroke-width:2;stroke-linecap:round;stroke-miterlimit:10;}
	
		.st1{opacity:0.8;fill-rule:evenodd;clip-rule:evenodd;fill:none;stroke:#20A4DC;stroke-width:2;stroke-linecap:round;stroke-miterlimit:10;}
	
		.st2{opacity:0.6;fill-rule:evenodd;clip-rule:evenodd;fill:none;stroke:#20A4DC;stroke-width:2;stroke-linecap:round;stroke-miterlimit:10;}
	.st3{fill:#FFFFFF;}
</style>
<g>
	<g>
		<path class="st0" d="M49.8,134.1l-13,13c-1.1,1.1-2.9,1.1-4,0l-13-13"/>
		<path class="st1" d="M49.8,115.7l-13,13c-1.1,1.1-2.9,1.1-4,0l-13-13"/>
		<path class="st2" d="M49.8,95.3l-13,13c-1.1,1.1-2.9,1.1-4,0l-13-13"/>
	</g>
	<g>
		<defs>
			<path id="SVGID_1_" d="M1,14.1c0-6.6,5.4-12,12-12h48c6.6,0,12,5.4,12,12v49c0,6.6-5.4,12-12,12H13c-6.6,0-12-5.4-12-12V14.1z"/>
		</defs>
		
			<linearGradient id="SVGID_00000029005354800560747040000015482908897813837441_" gradientUnits="userSpaceOnUse" x1="11.3066" y1="7.9365" x2="70.0359" y2="77.9599">
			<stop  offset="0" style="stop-color:#20A4DC"/>
			<stop  offset="6.893140e-02" style="stop-color:#30ACE0"/>
			<stop  offset="0.2299" style="stop-color:#51BCE7"/>
			<stop  offset="0.3966" style="stop-color:#6AC9ED"/>
			<stop  offset="0.5692" style="stop-color:#7CD2F1"/>
			<stop  offset="0.7515" style="stop-color:#87D7F3"/>
			<stop  offset="0.9595" style="stop-color:#8AD9F4"/>
		</linearGradient>
		
			<use xlink:href="#SVGID_1_"  style="overflow:visible;fill-rule:evenodd;clip-rule:evenodd;fill:url(#SVGID_00000029005354800560747040000015482908897813837441_);"/>
		<clipPath id="SVGID_00000179625288439808582020000010065896422753555097_">
			<use xlink:href="#SVGID_1_"  style="overflow:visible;"/>
		</clipPath>
	</g>
	<g>
		<g>
			<polygon class="st3" points="30.3,53 23.1,53 23.1,16.2 46.5,16.2 51.2,21 51.2,32 49.5,32 49.5,21.6 45.8,17.8 24.8,17.8 
				24.8,51.4 30.3,51.4 			"/>
		</g>
		<g>
			<polygon class="st3" points="47,24.4 42.9,24.4 42.9,20.3 44.6,20.3 44.6,22.8 47,22.8 			"/>
		</g>
		<g>
			<polygon class="st3" points="16.3,58.6 12,21.6 20.5,20.6 20.7,22.2 13.8,23 17.7,56.8 26,55.8 26.2,57.5 			"/>
		</g>
		<g>
			<polygon class="st3" points="57.9,50.1 56.3,50 58.2,27.1 53.6,26.6 53.7,25 60,25.6 			"/>
		</g>
		<g>
			<polygon class="st3" points="49.2,60.7 28.5,59.2 29,55.4 30.6,55.6 30.4,57.7 49.3,59.1 			"/>
		</g>
		<g>
			<path class="st3" d="M43.2,56.3c-6.2,0-11.3-5.3-11.3-11.8S37,32.7,43.2,32.7S54.5,38,54.5,44.5S49.4,56.3,43.2,56.3z M43.2,34.3
				c-5.3,0-9.6,4.6-9.6,10.2s4.3,10.2,9.6,10.2s9.6-4.6,9.6-10.2S48.5,34.3,43.2,34.3z"/>
		</g>
		<g>
			<path class="st3" d="M37.9,44.5h-1.7c0-4.1,2.8-7.4,6.3-7.4v1.7C40,38.7,37.9,41.3,37.9,44.5z"/>
		</g>
		<g>
			<path class="st3" d="M57.9,62.9c-0.7,0-1.5-0.2-2-0.7l-8.3-7.7l1.1-1.2L57,61c0.6,0.5,1.5,0.4,2.1-0.1c0.5-0.5,0.5-1.2,0-1.7
				l-8-7.4l1.1-1.2l8.1,7.5c1.1,1.2,1.1,2.9,0,4C59.6,62.6,58.8,62.9,57.9,62.9z"/>
		</g>
	</g>
</g>
</svg>
