<?xml version="1.0" encoding="utf-8"?>
<!-- Generator: Adobe Illustrator 27.1.1, SVG Export Plug-In . SVG Version: 6.00 Build 0)  -->
<svg version="1.1" id="Camada_1" xmlns="http://www.w3.org/2000/svg" xmlns:xlink="http://www.w3.org/1999/xlink" x="0px" y="0px"
	 viewBox="0 0 87 87" style="enable-background:new 0 0 87 87;" xml:space="preserve">
<style type="text/css">
	.st0{fill:#21A5DC;}
</style>
<g>
	<g>
		<defs>
			<path id="SVGID_1_" d="M0.7,14.3c0-7.9,6.4-14.3,14.3-14.3h57.1c7.9,0,14.3,6.4,14.3,14.3v58.3c0,7.9-6.4,14.3-14.3,14.3H14.9
				c-7.9,0-14.3-6.4-14.3-14.3V14.3z"/>
		</defs>
		<use xlink:href="#SVGID_1_"  style="overflow:visible;fill-rule:evenodd;clip-rule:evenodd;fill:#FFFFFF;"/>
		<clipPath id="SVGID_00000065763735341737359530000011657342975093885630_">
			<use xlink:href="#SVGID_1_"  style="overflow:visible;"/>
		</clipPath>
	</g>
</g>
<g>
	<g>
		<path class="st0" d="M43.6,72.3L31.2,69l1.7-6.1c-1.4-0.9-2.7-1.9-3.9-3L23.4,63l-2.8-4.8l1.6-0.9l1.9,3.2l5.2-3l0.5,0.5
			c1.4,1.4,2.9,2.6,4.6,3.5l0.6,0.4l-1.6,5.7l8.8,2.4l1.5-5.7l0.7,0c2,0,3.9-0.2,5.8-0.8l0.7-0.2l3,5.1L62,64l-3-5.1l0.5-0.5
			c1.4-1.4,2.6-2.9,3.6-4.6l0.4-0.6l5.8,1.5l2.4-8.7l-5.8-1.5l0-0.7c0-1.9-0.2-3.9-0.8-5.7l-0.2-0.7l5.2-3l-4.6-7.8l-5.2,3L59.8,29
			c-1.4-1.4-2.9-2.6-4.6-3.5l-0.6-0.4l1.6-5.7L47.3,17l-1.5,5.7l-0.7,0c-1.9,0-3.9,0.2-5.8,0.8l-0.7,0.2l-3-5.1L27.6,23l3,5.1
			l-0.5,0.5c-1.4,1.4-2.6,2.9-3.6,4.6l-0.4,0.6l-5.8-1.6l-0.9,2.9l-1.8-0.5l1.4-4.6l6.2,1.6c0.9-1.4,1.9-2.7,3-3.9l-3.2-5.5L36.2,16
			l3.2,5.5c1.6-0.4,3.3-0.6,4.9-0.6l1.7-6.1L58.3,18l-1.7,6.1c1.4,0.9,2.7,1.9,3.9,3l5.6-3.2l6.4,11L67,38.2
			c0.4,1.6,0.6,3.2,0.6,4.8l6.2,1.6l-3.4,12.3l-6.2-1.7c-0.9,1.4-1.9,2.7-3,3.9l3.2,5.5L53.4,71l-3.2-5.5c-1.6,0.4-3.3,0.6-4.9,0.6
			L43.6,72.3z"/>
	</g>
	<g>
		<path class="st0" d="M44.5,54.9c-5.9,0-10.8-5.1-10.8-11.4s4.8-11.4,10.8-11.4s10.8,5.1,10.8,11.4S50.4,54.9,44.5,54.9z M44.5,34
			c-4.9,0-8.9,4.3-8.9,9.5s4,9.5,8.9,9.5s8.9-4.3,8.9-9.5S49.4,34,44.5,34z"/>
	</g>
	<g>
		<rect x="5.1" y="38.3" class="st0" width="20.9" height="1.8"/>
	</g>
	<g>
		<rect x="12.5" y="53" class="st0" width="14.8" height="1.8"/>
	</g>
	<g>
		<rect x="17.4" y="45.7" class="st0" width="12.3" height="1.8"/>
	</g>
</g>
</svg>
