<?xml version="1.0" encoding="utf-8"?>
<!-- Generator: Adobe Illustrator 27.1.1, SVG Export Plug-In . SVG Version: 6.00 Build 0)  -->
<svg version="1.1" id="Camada_1" xmlns="http://www.w3.org/2000/svg" xmlns:xlink="http://www.w3.org/1999/xlink" x="0px" y="0px"
	 viewBox="0 0 87 87" style="enable-background:new 0 0 87 87;" xml:space="preserve">
<style type="text/css">
	.st0{fill:none;stroke:#21A5DC;stroke-width:1.9589;stroke-miterlimit:8;}
</style>
<g>
	<path class="st0" d="M63.3,54.6c-0.1-0.2-0.2-0.4-0.3-0.6c-0.7-1.3-1.7-3.2-4.2-4.5 M56.3,48.6c-0.6-0.1-1.3-0.2-2-0.3
		c-2.4-0.2-4.3,0.9-5.8,2 M39.4,54.3c-0.7-0.1-1.4-0.3-2.1-0.5c-1.1-0.4-2.7-1.1-4-1.7 M46.8,51.7c-1.6,1.3-3.2,2.5-5.4,2.7"/>
	<polyline class="st0" points="17.4,43.9 17.4,68.8 33.1,63.5 52.6,68.5 69.6,62.2 69.6,29.3 52.6,34.8 44.8,32.2 	"/>
	<path class="st0" d="M28.5,49.8c-2.8-9.5-11.1-11.5-11.1-20.2c0-6.1,5.3-11.4,11.1-11.4s11.1,5.3,11.1,11.4
		C39.5,38.3,31.3,40.3,28.5,49.8"/>
	<path class="st0" d="M29.3,24.5c-2.2,0-4,1.8-4,4s1.8,4,4,4c2.2,0,4-1.8,4-4S31.4,24.5,29.3,24.5z"/>
</g>
</svg>
