<?xml version="1.0" encoding="utf-8"?>
<!-- Generator: Adobe Illustrator 27.1.1, SVG Export Plug-In . SVG Version: 6.00 Build 0)  -->
<svg version="1.1" id="Camada_1" xmlns="http://www.w3.org/2000/svg" xmlns:xlink="http://www.w3.org/1999/xlink" x="0px" y="0px"
	 viewBox="0 0 74 74" style="enable-background:new 0 0 74 74;" xml:space="preserve">
<style type="text/css">
	.st0{fill:none;stroke:#FFFFFF;stroke-width:1.8;stroke-miterlimit:8;}
</style>
<g>
	<g>
		<defs>
			<path id="SVGID_1_" d="M1,12.5c0-6.6,5.4-12,12-12h48c6.6,0,12,5.4,12,12v49c0,6.6-5.4,12-12,12H13c-6.6,0-12-5.4-12-12V12.5z"/>
		</defs>
		
			<linearGradient id="SVGID_00000013184900711671074550000002716179270605717694_" gradientUnits="userSpaceOnUse" x1="6.8078" y1="6.2686" x2="70.0547" y2="70.645">
			<stop  offset="0" style="stop-color:#20A4DC"/>
			<stop  offset="6.893140e-02" style="stop-color:#30ACE0"/>
			<stop  offset="0.2299" style="stop-color:#51BCE7"/>
			<stop  offset="0.3966" style="stop-color:#6AC9ED"/>
			<stop  offset="0.5692" style="stop-color:#7CD2F1"/>
			<stop  offset="0.7515" style="stop-color:#87D7F3"/>
			<stop  offset="0.9595" style="stop-color:#8AD9F4"/>
		</linearGradient>
		
			<use xlink:href="#SVGID_1_"  style="overflow:visible;fill-rule:evenodd;clip-rule:evenodd;fill:url(#SVGID_00000013184900711671074550000002716179270605717694_);"/>
		<clipPath id="SVGID_00000039834279314220060430000016781277663912646291_">
			<use xlink:href="#SVGID_1_"  style="overflow:visible;"/>
		</clipPath>
	</g>
	<g>
		<path class="st0" d="M45.6,25h7.9c1.6,0,2.9,1.3,2.9,2.9v17.5"/>
		<path class="st0" d="M19.2,45.4V28c0-1.6,1.3-2.9,2.9-2.9H30"/>
		<path class="st0" d="M60,48.8v-1H14.4v1c0,2.8,2.2,5,5,5H55C57.8,53.8,60,51.6,60,48.8z"/>
		<line class="st0" x1="34.8" y1="50.2" x2="40.8" y2="50.2"/>
		<path class="st0" d="M44.6,29.8c0.5,0,1,0.5,1,1V42c0,0.6-0.4,1-1,1H31c-0.5,0-1-0.5-1-1V30.9c0-0.6,0.4-1,1-1H44.6z"/>
		<path class="st0" d="M32.4,25c0-2.6,2.2-4.8,4.8-4.8c2.6,0,4.8,2.2,4.8,4.8v4.8h-9.6V25z"/>
	</g>
</g>
</svg>
