<?xml version="1.0" encoding="utf-8"?>
<!-- Generator: Adobe Illustrator 27.1.1, SVG Export Plug-In . SVG Version: 6.00 Build 0)  -->
<svg version="1.1" id="Camada_1" xmlns="http://www.w3.org/2000/svg" xmlns:xlink="http://www.w3.org/1999/xlink" x="0px" y="0px"
	 viewBox="0 0 87 87" style="enable-background:new 0 0 87 87;" xml:space="preserve">
<style type="text/css">
	.st0{fill:none;stroke:#21A5DC;stroke-width:1.9589;stroke-miterlimit:8;}
</style>
<g>
	<g>
		<defs>
			<path id="SVGID_1_" d="M0.7,14.3c0-7.9,6.4-14.3,14.3-14.3h57.1c7.9,0,14.3,6.4,14.3,14.3v58.3c0,7.9-6.4,14.3-14.3,14.3H14.9
				c-7.9,0-14.3-6.4-14.3-14.3V14.3z"/>
		</defs>
		<use xlink:href="#SVGID_1_"  style="overflow:visible;fill-rule:evenodd;clip-rule:evenodd;fill:#FFFFFF;"/>
		<clipPath id="SVGID_00000117658104441031318580000016516550886285642896_">
			<use xlink:href="#SVGID_1_"  style="overflow:visible;"/>
		</clipPath>
	</g>
	<g>
		<path class="st0" d="M51.8,63.4c2.7-0.1,4.8-2.3,5-4.9V47.4c0-4.1-8.1-6.2-12.4-6.2c-4.3,0-12.4,2.1-12.4,6.2v11.1
			c0.1,2.7,2.3,4.8,5,4.9"/>
		<path class="st0" d="M65.9,66c2.6,0,5.2-1.3,5.2-3.7V51.3c0-4.1-7.7-6.1-11.8-6.1c-0.4,0-0.8,0-1.3,0.1"/>
		<path class="st0" d="M43.7,38.6c3,0,5.2-1.9,5.2-4.7v-2.4c0-2.8-2.2-4.7-5.2-4.7c-3,0-5.2,1.9-5.2,4.7v2.4
			C38.5,36.7,40.7,38.6,43.7,38.6z"/>
		<line class="st0" x1="66" y1="71.3" x2="66" y2="54.3"/>
		<line class="st0" x1="51.6" y1="71.3" x2="51.6" y2="50.4"/>
		<line class="st0" x1="35.9" y1="50.4" x2="35.9" y2="71.3"/>
		<path class="st0" d="M61.4,41.2c2.7,0,4.6-1.7,4.6-4.2v-2.1c0-2.5-1.9-4.2-4.6-4.2s-4.6,1.7-4.6,4.2V37
			C56.8,39.5,58.7,41.2,61.4,41.2z"/>
		<path class="st0" d="M21.5,66c-2.6,0-5.2-1.3-5.2-3.7V51.3c0-4.1,7.7-6.1,11.8-6.1c0.4,0,0.8,0,1.3,0.1"/>
		<line class="st0" x1="21.6" y1="71.3" x2="21.6" y2="54.3"/>
		<path class="st0" d="M26.8,41.2c-3,0-5.2-1.7-5.2-4.2v-2.1c0-2.5,2.2-4.2,5.2-4.2c3,0,5.2,1.7,5.2,4.2V37
			C32,39.5,29.8,41.2,26.8,41.2z"/>
		<path class="st0" d="M32.6,26.8c-2.7,0-4.6-1.7-4.6-4.2v-2.1c0-2.5,1.9-4.2,4.6-4.2c2.7,0,4.6,1.7,4.6,4.2v2.1
			C37.2,25.1,35.3,26.8,32.6,26.8z"/>
		<path class="st0" d="M54.8,26.8c-2.7,0-4.6-1.7-4.6-4.2v-2.1c0-2.5,1.9-4.2,4.6-4.2s4.6,1.7,4.6,4.2v2.1
			C59.4,25.1,57.5,26.8,54.8,26.8z"/>
	</g>
</g>
</svg>
