<?xml version="1.0" encoding="utf-8"?>
<!-- Generator: Adobe Illustrator 27.1.1, SVG Export Plug-In . SVG Version: 6.00 Build 0)  -->
<svg version="1.1" id="Camada_1" xmlns="http://www.w3.org/2000/svg" xmlns:xlink="http://www.w3.org/1999/xlink" x="0px" y="0px"
	 viewBox="0 0 87 87" style="enable-background:new 0 0 87 87;" xml:space="preserve">
<style type="text/css">
	.st0{fill:none;stroke:#21A5DC;stroke-width:1.9589;stroke-miterlimit:8;}
</style>
<path class="st0" d="M25.5,40.7v-3.9c0-1.5,3.9-3.9,7-3.9c3.2,0,7,2.4,7,3.9v3.9"/>
<path class="st0" d="M32.6,32.8c3.3,0,5.5-2.4,5.5-5.4v-1.8c0-3-2.2-5.4-5.5-5.4s-5.5,2.4-5.5,5.4v1.8
	C27.1,30.4,29.3,32.8,32.6,32.8z"/>
<path class="st0" d="M45.8,40.7v-3.9c0-1.5,4.3-3.9,7.8-3.9c3.5,0,7.8,2.4,7.8,3.9v3.9"/>
<path class="st0" d="M52.9,32.8c3.3,0,5.5-2.4,5.5-5.4v-1.8c0-3-2.2-5.4-5.5-5.4c-3.3,0-5.5,2.4-5.5,5.4v1.8
	C47.4,30.4,49.6,32.8,52.9,32.8z"/>
<path class="st0" d="M36.2,65.7c-0.7,0-1.3-0.6-1.3-1.3v-4c0-1.5,4.3-4,7.8-4c3.5,0,7.8,2.5,7.8,4v4c0,0.7-0.6,1.3-1.3,1.3H36.2z"/>
<path class="st0" d="M42.7,56.3c2.8,0,4.7-2.4,4.7-5.4v-1.8c0-3-1.9-5.4-4.7-5.4S38,46.2,38,49.1v1.8C38,53.9,39.9,56.3,42.7,56.3z"
	/>
<path class="st0" d="M56.5,65.7c-0.7,0-1.3-0.6-1.3-1.3v-4c0-1.5,4.3-4,7.8-4c3.5,0,7.8,2.5,7.8,4v4c0,0.7-0.6,1.3-1.3,1.3H56.5z"/>
<path class="st0" d="M63.8,56.3c3.3,0,5.5-2.4,5.5-5.4v-1.8c0-3-2.2-5.4-5.5-5.4s-5.5,2.4-5.5,5.4v1.8
	C58.4,53.9,60.5,56.3,63.8,56.3z"/>
<path class="st0" d="M15.9,65.7c-0.7,0-1.3-0.6-1.3-1.3v-4c0-1.5,4.3-4,7.8-4c3.5,0,7.8,2.5,7.8,4v4c0,0.7-0.6,1.3-1.3,1.3H15.9z"/>
<path class="st0" d="M22.4,56.3c2.8,0,4.7-2.4,4.7-5.4v-1.8c0-3-1.9-5.4-4.7-5.4s-4.7,2.4-4.7,5.4v1.8
	C17.7,53.9,19.6,56.3,22.4,56.3z"/>
</svg>
