<?xml version="1.0" encoding="utf-8"?>
<!-- Generator: Adobe Illustrator 27.1.1, SVG Export Plug-In . SVG Version: 6.00 Build 0)  -->
<svg version="1.1" id="Camada_1" xmlns="http://www.w3.org/2000/svg" xmlns:xlink="http://www.w3.org/1999/xlink" x="0px" y="0px"
	 viewBox="0 0 68 68" style="enable-background:new 0 0 68 68;" xml:space="preserve">
<style type="text/css">
	.st0{fill:#20A4DC;}
</style>
<g>
	<g>
		<path class="st0" d="M36.6,44.1h-5.2c-2,0-3.6-1.6-3.6-3.6v-1.3h2v1.3c0,0.9,0.7,1.6,1.6,1.6h5.2c0.9,0,1.6-0.7,1.6-1.6v-3.3
			c0-0.7-0.4-1.3-1.1-1.5l-6.7-1.4c-1.6-0.5-2.6-1.9-2.6-3.4v-3.3c0-2,1.6-3.6,3.6-3.6h5.2c2,0,3.6,1.6,3.6,3.6v2.6h-2v-2.6
			c0-0.9-0.7-1.6-1.6-1.6h-5.2c-0.9,0-1.6,0.7-1.6,1.6v3.3c0,0.7,0.4,1.3,1.1,1.5l6.7,1.4c1.6,0.5,2.6,1.9,2.6,3.4v3.3
			C40.2,42.5,38.6,44.1,36.6,44.1z"/>
	</g>
	<g>
		<rect x="33" y="19.7" class="st0" width="2" height="5.2"/>
	</g>
	<g>
		<rect x="33" y="43.1" class="st0" width="2" height="5.2"/>
	</g>
	<g>
		<path class="st0" d="M34,62.3c-3.9,0-7.8-0.8-11.4-2.4c-6.9-3-12.2-8.6-15-15.6C5,37.5,5.1,30.2,7.8,23.5l-4.4-3.5l20.3-6.8
			l-1.9,21.6l-3.9-3.2c-2.8,6.6-0.9,14.4,5,18.8l-1.2,1.6c-6.9-5.3-9-14.7-5-22.4l0.6-1.1l2.9,2.4l1.3-15L7.4,20.6l2.8,2.2l-0.3,0.7
			c-2.8,6.4-3,13.5-0.4,20c2.6,6.5,7.5,11.7,14,14.5c3.4,1.5,6.9,2.2,10.6,2.2c0,0,0,0,0,0L34,62.3C34,62.3,34,62.3,34,62.3z"/>
	</g>
	<g>
		<path class="st0" d="M44.3,54.9l1.9-21.6l3.9,3.2c2.8-6.6,0.8-14.4-5-18.8l1.2-1.6c6.9,5.3,9,14.7,5,22.4l-0.6,1.1l-2.9-2.4
			l-1.3,15l14.1-4.7l-2.8-2.2l0.3-0.7c2.8-6.4,3-13.5,0.5-20c-2.5-6.5-7.4-11.7-13.9-14.5c-3.4-1.5-7-2.2-10.6-2.2c0,0-0.1,0-0.1,0
			l0-2c0,0,0.1,0,0.1,0c4,0,7.8,0.8,11.4,2.4c6.9,3,12.2,8.6,14.9,15.6c2.6,6.8,2.5,14.1-0.2,20.8l4.4,3.5L44.3,54.9z"/>
	</g>
</g>
</svg>
