<?xml version="1.0" encoding="utf-8"?>
<!-- Generator: Adobe Illustrator 27.1.1, SVG Export Plug-In . SVG Version: 6.00 Build 0)  -->
<svg version="1.1" id="Camada_1" xmlns="http://www.w3.org/2000/svg" xmlns:xlink="http://www.w3.org/1999/xlink" x="0px" y="0px"
	 viewBox="0 0 74 74" style="enable-background:new 0 0 74 74;" xml:space="preserve">
<style type="text/css">
	.st0{fill:#FFFFFF;}
</style>
<g>
	<g>
		<defs>
			<path id="SVGID_1_" d="M0.5,12.7c0-6.7,5.4-12.2,12.2-12.2h48.7c6.7,0,12.2,5.4,12.2,12.2v48.7c0,6.7-5.4,12.2-12.2,12.2H12.7
				c-6.7,0-12.2-5.4-12.2-12.2V12.7z"/>
		</defs>
		
			<linearGradient id="SVGID_00000058549484793121485460000006815746309887817102_" gradientUnits="userSpaceOnUse" x1="6.3512" y1="1.8932" x2="68.4687" y2="73.046">
			<stop  offset="0" style="stop-color:#20A4DC"/>
			<stop  offset="6.893140e-02" style="stop-color:#30ACE0"/>
			<stop  offset="0.2299" style="stop-color:#51BCE7"/>
			<stop  offset="0.3966" style="stop-color:#6AC9ED"/>
			<stop  offset="0.5692" style="stop-color:#7CD2F1"/>
			<stop  offset="0.7515" style="stop-color:#87D7F3"/>
			<stop  offset="0.9595" style="stop-color:#8AD9F4"/>
		</linearGradient>
		
			<use xlink:href="#SVGID_1_"  style="overflow:visible;fill-rule:evenodd;clip-rule:evenodd;fill:url(#SVGID_00000058549484793121485460000006815746309887817102_);"/>
		<clipPath id="SVGID_00000093868914291680315650000007518060477697549495_">
			<use xlink:href="#SVGID_1_"  style="overflow:visible;"/>
		</clipPath>
	</g>
	<g>
		<path class="st0" d="M30.9,51.2H12.5c-1,0-1.8-0.8-1.8-1.8V20.5c0-1,0.8-1.8,1.8-1.8h37.8c1,0,1.8,0.8,1.8,1.8v4.3h-1.5v-4.3
			c0-0.2-0.1-0.3-0.3-0.3H12.5c-0.2,0-0.3,0.1-0.3,0.3v28.9c0,0.2,0.1,0.3,0.3,0.3h18.4V51.2z"/>
	</g>
	<g>
		<rect x="11.5" y="44.7" class="st0" width="20" height="1.5"/>
	</g>
	<g>
		<rect x="24.5" y="54.7" class="st0" width="7" height="1.5"/>
	</g>
	<g>
		<rect x="26.7" y="50.5" class="st0" width="1.5" height="5"/>
	</g>
	<g>
		<path class="st0" d="M46.6,56.2h-11c-1,0-1.9-0.8-1.9-1.8V29.6c0-1,0.8-1.8,1.9-1.8h19.8c1,0,1.8,0.8,1.8,1.8v3.2h-1.5v-3.2
			c0-0.2-0.2-0.3-0.3-0.3H35.6c-0.2,0-0.4,0.1-0.4,0.3v24.8c0,0.2,0.2,0.3,0.4,0.3h11V56.2z"/>
	</g>
	<g>
		<path class="st0" d="M62.2,56.2H48.7V34.7h13.5V56.2z M50.2,54.7h10.5V36.2H50.2V54.7z"/>
	</g>
	<g>
		<rect x="55.5" y="50.7" class="st0" width="1" height="1.5"/>
	</g>
	<g>
		<rect x="45.5" y="50.7" class="st0" width="1" height="1.5"/>
	</g>
</g>
</svg>
