<?xml version="1.0" encoding="utf-8"?>
<!-- Generator: Adobe Illustrator 27.0.1, SVG Export Plug-In . SVG Version: 6.00 Build 0)  -->
<svg version="1.1" id="Camada_1" xmlns="http://www.w3.org/2000/svg" xmlns:xlink="http://www.w3.org/1999/xlink" x="0px" y="0px"
	 viewBox="0 0 100.4 100.4" style="enable-background:new 0 0 100.4 100.4;" xml:space="preserve">
<style type="text/css">
	.st0{fill:#20A4DC;}
</style>
<g>
	<g>
		<g>
			<path class="st0" d="M42.3,62.7v-2.6c2.2,0,4-2.1,4-3.8V44.9c0-2.8-7.2-5-11.9-5s-11.9,2.3-11.9,5v11.4c0,1.7,1.8,3.8,4,3.8v2.6
				c-3.5,0-6.6-3-6.6-6.4V44.9c0-5.4,9.6-7.7,14.5-7.7s14.5,2.3,14.5,7.7v11.4C48.9,59.7,45.7,62.7,42.3,62.7z"/>
		</g>
		<g>
			<path class="st0" d="M57.6,62.7v-2.6c2.1,0,4.4-1,4.4-2.5V44.9c0-2.9-7.1-5-11.6-5h-2.9v-2.6h2.9c4.8,0,14.3,2.3,14.3,7.7v12.7
				C64.7,61,61.1,62.7,57.6,62.7z"/>
		</g>
		<g>
			<path class="st0" d="M35.2,34.6c-3.8,0-6.6-2.6-6.6-6.2v-2.5c0-3.6,2.8-6.2,6.6-6.2s6.6,2.6,6.6,6.2v2.5
				C41.8,32,39.1,34.6,35.2,34.6z M35.2,22.3c-2.4,0-4,1.4-4,3.6v2.5c0,2.2,1.6,3.6,4,3.6s4-1.4,4-3.6v-2.5
				C39.2,23.7,37.6,22.3,35.2,22.3z"/>
		</g>
		<g>
			<rect x="56.8" y="47.3" class="st0" width="2.6" height="33.4"/>
		</g>
		<g>
			<rect x="41" y="47.3" class="st0" width="2.6" height="33.4"/>
		</g>
		<g>
			<rect x="25.1" y="47.3" class="st0" width="2.6" height="33.4"/>
		</g>
		<g>
			<rect x="33.9" y="59.6" class="st0" width="2.6" height="21.1"/>
		</g>
		<g>
			<path class="st0" d="M51.1,34.6c-3.8,0-6.6-2.6-6.6-6.2v-2.5c0-3.6,2.8-6.2,6.6-6.2s6.6,2.6,6.6,6.2v2.5
				C57.7,32,54.9,34.6,51.1,34.6z M51.1,22.3c-2.4,0-4,1.4-4,3.6v2.5c0,2.2,1.6,3.6,4,3.6s4-1.4,4-3.6v-2.5
				C55,23.7,53.4,22.3,51.1,22.3z"/>
		</g>
		<g>
			<path class="st0" d="M73.4,62.7v-2.6c2.1,0,4.4-1,4.4-2.5V44.9c0-2.9-7.1-5-11.6-5h-2.9v-2.6h2.9c4.8,0,14.3,2.3,14.3,7.7v12.7
				C80.5,61,77,62.7,73.4,62.7z"/>
		</g>
		<g>
			<rect x="72.6" y="47.3" class="st0" width="2.6" height="33.4"/>
		</g>
		<g>
			<path class="st0" d="M66.9,34.6c-3.8,0-6.6-2.6-6.6-6.2v-2.5c0-3.6,2.8-6.2,6.6-6.2c3.8,0,6.6,2.6,6.6,6.2v2.5
				C73.5,32,70.7,34.6,66.9,34.6z M66.9,22.3c-2.4,0-4,1.4-4,3.6v2.5c0,2.2,1.6,3.6,4,3.6c2.4,0,4-1.4,4-3.6v-2.5
				C70.8,23.7,69.3,22.3,66.9,22.3z"/>
		</g>
	</g>
</g>
</svg>
