<?xml version="1.0" encoding="utf-8"?>
<!-- Generator: Adobe Illustrator 27.1.1, SVG Export Plug-In . SVG Version: 6.00 Build 0)  -->
<svg version="1.1" id="Camada_1" xmlns="http://www.w3.org/2000/svg" xmlns:xlink="http://www.w3.org/1999/xlink" x="0px" y="0px"
	 viewBox="0 0 68 68" style="enable-background:new 0 0 68 68;" xml:space="preserve">
<style type="text/css">
	.st0{fill:#20A4DC;}
</style>
<g>
	<g>
		<path class="st0" d="M36.3,66.3h-2v-8.6c0-3.9-7.5-6.1-11.4-6.1c-4,0-11.4,2.3-11.4,6.1v8.6H9.6v-8.6c0-5.3,8.5-8,13.3-8
			c4.5,0,13.3,2.4,13.3,8V66.3z"/>
	</g>
	<g>
		<path class="st0" d="M22.9,47.8c-4.5,0-8.1-3.6-8.1-8.1v-1.4c0-4.4,3.6-8.1,8.1-8.1s8.1,3.6,8.1,8.1v1.4
			C31.1,44.2,27.4,47.8,22.9,47.8z M22.9,32.2c-3.4,0-6.2,2.7-6.2,6.1v1.4c0,3.4,2.8,6.1,6.2,6.1s6.2-2.7,6.2-6.1v-1.4
			C29.1,35,26.4,32.2,22.9,32.2z"/>
	</g>
	<g>
		<path class="st0" d="M38.1,49.1c-0.1,0-0.2,0-0.2,0c-0.6-0.1-1.2-0.4-1.6-0.9c-0.3-0.4-0.5-0.9-0.5-1.4l0-8.7h-3.1v-1.9h5.1v10.6
			c0,0.1,0,0.1,0.1,0.2c0.1,0.1,0.2,0.1,0.3,0.1c0,0,0.1,0,0.2-0.1l9.9-10.9h9c1.7,0,3.1-1.4,3.1-3.2V6.8c0-1.7-1.4-3.2-3.1-3.2
			H10.8C9.1,3.6,7.7,5,7.7,6.8V33c0,1.7,1.4,3.2,3.1,3.2h2.7v1.9h-2.7c-2.8,0-5.1-2.3-5.1-5.1V6.8C5.7,4,8,1.7,10.8,1.7h46.4
			c2.8,0,5.1,2.3,5.1,5.1V33c0,2.8-2.3,5.1-5.1,5.1H49l-9.5,10.5C39.2,48.9,38.6,49.1,38.1,49.1z"/>
	</g>
	<g>
		<rect x="30.5" y="11.8" class="st0" width="2" height="6.5"/>
	</g>
	<g>
		<rect x="37" y="11.8" class="st0" width="2" height="6.5"/>
	</g>
	<g>
		<path class="st0" d="M34.6,27c-1.3,0-2.6-0.2-3.8-0.7c-2.5-1-4.4-2.7-5.5-5.1l1.8-0.8c0.8,1.8,2.4,3.3,4.4,4c4.2,1.6,9-0.2,10.7-4
			l1.8,0.8C42.4,24.8,38.6,27,34.6,27z"/>
	</g>
</g>
</svg>
