<?xml version="1.0" encoding="utf-8"?>
<!-- Generator: Adobe Illustrator 27.1.1, SVG Export Plug-In . SVG Version: 6.00 Build 0)  -->
<svg version="1.1" id="Camada_1" xmlns="http://www.w3.org/2000/svg" xmlns:xlink="http://www.w3.org/1999/xlink" x="0px" y="0px"
	 viewBox="0 0 74 150" style="enable-background:new 0 0 74 150;" xml:space="preserve">
<style type="text/css">
	.st0{fill-rule:evenodd;clip-rule:evenodd;fill:none;stroke:#20A4DC;stroke-width:2;stroke-linecap:round;stroke-miterlimit:10;}
	
		.st1{opacity:0.8;fill-rule:evenodd;clip-rule:evenodd;fill:none;stroke:#20A4DC;stroke-width:2;stroke-linecap:round;stroke-miterlimit:10;}
	
		.st2{opacity:0.6;fill-rule:evenodd;clip-rule:evenodd;fill:none;stroke:#20A4DC;stroke-width:2;stroke-linecap:round;stroke-miterlimit:10;}
	.st3{fill:#FFFFFF;}
</style>
<g>
	<g>
		<path class="st0" d="M49.8,133.6l-13,13c-1.1,1.1-2.9,1.1-4,0l-13-13"/>
		<path class="st1" d="M49.8,115.2l-13,13c-1.1,1.1-2.9,1.1-4,0l-13-13"/>
		<path class="st2" d="M49.8,94.8l-13,13c-1.1,1.1-2.9,1.1-4,0l-13-13"/>
	</g>
	<g>
		<defs>
			<path id="SVGID_1_" d="M1,13.6c0-6.6,5.4-12,12-12h48c6.6,0,12,5.4,12,12v49c0,6.6-5.4,12-12,12H13c-6.6,0-12-5.4-12-12V13.6z"/>
		</defs>
		
			<linearGradient id="SVGID_00000106867906473501141040000017089920452914242973_" gradientUnits="userSpaceOnUse" x1="11.3066" y1="7.4365" x2="70.0359" y2="77.4599">
			<stop  offset="0" style="stop-color:#20A4DC"/>
			<stop  offset="6.893140e-02" style="stop-color:#30ACE0"/>
			<stop  offset="0.2299" style="stop-color:#51BCE7"/>
			<stop  offset="0.3966" style="stop-color:#6AC9ED"/>
			<stop  offset="0.5692" style="stop-color:#7CD2F1"/>
			<stop  offset="0.7515" style="stop-color:#87D7F3"/>
			<stop  offset="0.9595" style="stop-color:#8AD9F4"/>
		</linearGradient>
		
			<use xlink:href="#SVGID_1_"  style="overflow:visible;fill-rule:evenodd;clip-rule:evenodd;fill:url(#SVGID_00000106867906473501141040000017089920452914242973_);"/>
		<clipPath id="SVGID_00000120520701651843453950000001095142160098357682_">
			<use xlink:href="#SVGID_1_"  style="overflow:visible;"/>
		</clipPath>
	</g>
	<g>
		<g>
			<polygon class="st3" points="30.3,52.5 23.1,52.5 23.1,15.7 46.5,15.7 51.2,20.5 51.2,31.5 49.5,31.5 49.5,21.1 45.8,17.3 
				24.8,17.3 24.8,50.9 30.3,50.9 			"/>
		</g>
		<g>
			<polygon class="st3" points="47,23.9 42.9,23.9 42.9,19.8 44.6,19.8 44.6,22.3 47,22.3 			"/>
		</g>
		<g>
			<polygon class="st3" points="16.3,58.1 12,21.1 20.5,20.1 20.7,21.7 13.8,22.5 17.7,56.3 26,55.3 26.2,57 			"/>
		</g>
		<g>
			<polygon class="st3" points="57.9,49.6 56.3,49.5 58.2,26.6 53.6,26.1 53.7,24.5 60,25.1 			"/>
		</g>
		<g>
			<polygon class="st3" points="49.2,60.2 28.5,58.7 29,54.9 30.6,55.1 30.4,57.2 49.3,58.6 			"/>
		</g>
		<g>
			<path class="st3" d="M43.2,55.8c-6.2,0-11.3-5.3-11.3-11.8S37,32.2,43.2,32.2S54.5,37.5,54.5,44S49.4,55.8,43.2,55.8z M43.2,33.8
				c-5.3,0-9.6,4.6-9.6,10.2s4.3,10.2,9.6,10.2s9.6-4.6,9.6-10.2S48.5,33.8,43.2,33.8z"/>
		</g>
		<g>
			<path class="st3" d="M37.9,44h-1.7c0-4.1,2.8-7.4,6.3-7.4v1.7C40,38.2,37.9,40.8,37.9,44z"/>
		</g>
		<g>
			<path class="st3" d="M57.9,62.4c-0.7,0-1.5-0.2-2-0.7L47.6,54l1.1-1.2l8.3,7.7c0.6,0.5,1.5,0.4,2.1-0.1c0.5-0.5,0.5-1.2,0-1.7
				l-8-7.4l1.1-1.2l8.1,7.5c1.1,1.2,1.1,2.9,0,4C59.6,62.1,58.8,62.4,57.9,62.4z"/>
		</g>
	</g>
</g>
</svg>
