<?xml version="1.0" encoding="utf-8"?>
<!-- Generator: Adobe Illustrator 27.1.1, SVG Export Plug-In . SVG Version: 6.00 Build 0)  -->
<svg version="1.1" id="Camada_1" xmlns="http://www.w3.org/2000/svg" xmlns:xlink="http://www.w3.org/1999/xlink" x="0px" y="0px"
	 viewBox="0 0 74 74" style="enable-background:new 0 0 74 74;" xml:space="preserve">
<style type="text/css">
	.st0{fill:none;stroke:#FFFFFF;stroke-width:1.8;stroke-miterlimit:8;}
</style>
<g>
	<defs>
		<path id="SVGID_1_" d="M1,12.5c0-6.6,5.4-12,12-12h48c6.6,0,12,5.4,12,12v49c0,6.6-5.4,12-12,12H13c-6.6,0-12-5.4-12-12V12.5z"/>
	</defs>
	
		<linearGradient id="SVGID_00000101802588212266583740000006000105912140005009_" gradientUnits="userSpaceOnUse" x1="11.3066" y1="6.3656" x2="70.0359" y2="76.3889">
		<stop  offset="0" style="stop-color:#20A4DC"/>
		<stop  offset="6.893140e-02" style="stop-color:#30ACE0"/>
		<stop  offset="0.2299" style="stop-color:#51BCE7"/>
		<stop  offset="0.3966" style="stop-color:#6AC9ED"/>
		<stop  offset="0.5692" style="stop-color:#7CD2F1"/>
		<stop  offset="0.7515" style="stop-color:#87D7F3"/>
		<stop  offset="0.9595" style="stop-color:#8AD9F4"/>
	</linearGradient>
	
		<use xlink:href="#SVGID_1_"  style="overflow:visible;fill-rule:evenodd;clip-rule:evenodd;fill:url(#SVGID_00000101802588212266583740000006000105912140005009_);"/>
	<clipPath id="SVGID_00000057107719532700765280000009102880401609913268_">
		<use xlink:href="#SVGID_1_"  style="overflow:visible;"/>
	</clipPath>
</g>
<g>
	<path class="st0" d="M50.2,37.2h3c3.8,0,6.9-3.1,6.9-6.8s-3.1-6.8-6.9-6.8c-0.7,0-1.4,0.1-2.1,0.3c0.1-0.4,0.1-0.9,0.1-1.3
		c0-3.8-3.1-6.8-6.9-6.8c-1.7,0-3.3,0.6-4.5,1.7c-1.3-3.8-5-6.6-9.3-6.6c-5.5,0-9.9,4.4-9.9,9.8c0,1,0.2,2,0.5,3
		c-3.6,0.3-6.4,3.2-6.4,6.8c0,3.8,3.1,6.8,6.9,6.8h3"/>
	<path class="st0" d="M39.7,18c0.6,0.8,1,1.6,1.2,2.4"/>
	<path class="st0" d="M51.7,24c-0.2,0.9-0.6,1.7-1.2,2.4"/>
	<path class="st0" d="M21.7,24.1c0.8-0.3,1.6,0.1,2.4,1.1"/>
	<rect x="15.7" y="45.6" class="st0" width="12" height="8.4"/>
	<rect x="31.3" y="45.6" class="st0" width="12" height="8.4"/>
	<rect x="46.9" y="45.6" class="st0" width="12" height="8.4"/>
	<line class="st0" x1="18.1" y1="56.4" x2="25.3" y2="56.4"/>
	<line class="st0" x1="21.7" y1="54" x2="21.7" y2="56.4"/>
	<line class="st0" x1="33.7" y1="56.4" x2="42.1" y2="56.4"/>
	<line class="st0" x1="37.3" y1="54" x2="37.3" y2="56.4"/>
	<line class="st0" x1="49.3" y1="56.4" x2="57.7" y2="56.4"/>
	<line class="st0" x1="52.9" y1="54" x2="52.9" y2="56.4"/>
	<line class="st0" x1="26.5" y1="43.2" x2="26.5" y2="36"/>
	<line class="st0" x1="37.3" y1="43.2" x2="37.3" y2="33.6"/>
	<line class="st0" x1="48.1" y1="43.2" x2="48.1" y2="37.2"/>
	<line class="st0" x1="28.9" y1="37.2" x2="36.1" y2="37.2"/>
	<line class="st0" x1="39.7" y1="37.2" x2="46.9" y2="37.2"/>
	<line class="st0" x1="26.5" y1="33.6" x2="26.5" y2="31.2"/>
	<line class="st0" x1="26.5" y1="30" x2="26.5" y2="27.6"/>
	<line class="st0" x1="37.3" y1="31.2" x2="37.3" y2="30"/>
	<line class="st0" x1="37.3" y1="27.6" x2="37.3" y2="26.4"/>
	<line class="st0" x1="48.1" y1="34.8" x2="48.1" y2="32.4"/>
	<line class="st0" x1="37.3" y1="24" x2="37.3" y2="21.6"/>
</g>
</svg>
