<?xml version="1.0" encoding="utf-8"?>
<!-- Generator: Adobe Illustrator 27.1.1, SVG Export Plug-In . SVG Version: 6.00 Build 0)  -->
<svg version="1.1" id="Camada_1" xmlns="http://www.w3.org/2000/svg" xmlns:xlink="http://www.w3.org/1999/xlink" x="0px" y="0px"
	 viewBox="0 0 87 87" style="enable-background:new 0 0 87 87;" xml:space="preserve">
<style type="text/css">
	.st0{fill:none;stroke:#21A5DC;stroke-width:1.9589;stroke-miterlimit:8;}
</style>
<line class="st0" x1="42.7" y1="27.7" x2="42.7" y2="30.8"/>
<line class="st0" x1="34.9" y1="29.3" x2="36.5" y2="32.3"/>
<line class="st0" x1="30.3" y1="35.4" x2="31.8" y2="37"/>
<line class="st0" x1="30.3" y1="50.9" x2="31.8" y2="49.3"/>
<line class="st0" x1="34.9" y1="57" x2="36.5" y2="54"/>
<line class="st0" x1="42.7" y1="58.6" x2="42.7" y2="55.5"/>
<line class="st0" x1="50.4" y1="57" x2="48.8" y2="54"/>
<line class="st0" x1="56.5" y1="50.9" x2="53.5" y2="49.3"/>
<line class="st0" x1="56.5" y1="35.4" x2="53.5" y2="37"/>
<line class="st0" x1="50.4" y1="29.3" x2="48.8" y2="32.3"/>
<polyline class="st0" points="38,39.5 43,44.7 50.4,37 "/>
<path class="st0" d="M56.4,22c-3.9-2.2-8.4-3.5-13.2-3.5c-14.3,0-25.8,11.3-25.8,25.4v1.3h-2.6l6.5,8.9l5.2-8.9h-2.6v-1.3
	c0-10.5,8.7-19,19.4-19c6.9,0,12.9,3.5,16.4,8.9"/>
<path class="st0" d="M28.4,64.4c4.1,3.2,9.2,5,14.6,5c13.8,0,24.9-11.8,24.9-26.5v-1.3h2.5l-6.2-9.3l-5,9.3h2.5v1.3
	c0,11-8.4,19.8-18.7,19.8c-6.7,0-12.5-3.7-15.8-9.3"/>
</svg>
