<?xml version="1.0" encoding="utf-8"?>
<!-- Generator: Adobe Illustrator 27.1.1, SVG Export Plug-In . SVG Version: 6.00 Build 0)  -->
<svg version="1.1" id="Camada_1" xmlns="http://www.w3.org/2000/svg" xmlns:xlink="http://www.w3.org/1999/xlink" x="0px" y="0px"
	 viewBox="0 0 74 74" style="enable-background:new 0 0 74 74;" xml:space="preserve">
<style type="text/css">
	.st0{fill:none;stroke:#FFFFFF;stroke-width:1.8;stroke-miterlimit:8;}
</style>
<g>
	<g>
		<defs>
			<path id="SVGID_1_" d="M0.5,12.7c0-6.7,5.4-12.2,12.2-12.2h48.7c6.7,0,12.2,5.4,12.2,12.2v48.7c0,6.7-5.4,12.2-12.2,12.2H12.7
				c-6.7,0-12.2-5.4-12.2-12.2V12.7z"/>
		</defs>
		
			<linearGradient id="SVGID_00000090991884715200712030000003599711914212969146_" gradientUnits="userSpaceOnUse" x1="6.3512" y1="1.8932" x2="68.4687" y2="73.046">
			<stop  offset="0" style="stop-color:#20A4DC"/>
			<stop  offset="6.893140e-02" style="stop-color:#30ACE0"/>
			<stop  offset="0.2299" style="stop-color:#51BCE7"/>
			<stop  offset="0.3966" style="stop-color:#6AC9ED"/>
			<stop  offset="0.5692" style="stop-color:#7CD2F1"/>
			<stop  offset="0.7515" style="stop-color:#87D7F3"/>
			<stop  offset="0.9595" style="stop-color:#8AD9F4"/>
		</linearGradient>
		
			<use xlink:href="#SVGID_1_"  style="overflow:visible;fill-rule:evenodd;clip-rule:evenodd;fill:url(#SVGID_00000090991884715200712030000003599711914212969146_);"/>
		<clipPath id="SVGID_00000143613819123803687800000007860208469765481113_">
			<use xlink:href="#SVGID_1_"  style="overflow:visible;"/>
		</clipPath>
	</g>
	<g>
		<path class="st0" d="M42.9,56h4.2l3.9-4.1v-17c5-1.2,7.2-5.1,7.2-9.6c0-5.6-4.6-10.1-10.3-10.1c-5.6,0-10.1,4.5-10.1,10.1
			c0,3.7,3.1,7,5.2,8.7V40l2,1.6v1.6l-2,2.3v1.4l2,1.9v1.6l-2,1.6V56L42.9,56z"/>
		<circle class="st0" cx="47.9" cy="23" r="3"/>
		<polyline class="st0" points="20.9,26 25.2,26 29.6,30.8 31.7,30.8 		"/>
		<line class="st0" x1="20.9" y1="36.8" x2="26.9" y2="36.8"/>
		<circle class="st0" cx="17.9" cy="25.4" r="3"/>
		<polyline class="st0" points="20.9,47.6 25.2,47.6 29.4,41.6 31.7,41.6 		"/>
		<circle class="st0" cx="17.9" cy="47" r="3"/>
		<circle class="st0" cx="17.9" cy="36.2" r="3"/>
		<polyline class="st0" points="26.9,53.6 31.8,46.4 37.7,46.4 		"/>
		<circle class="st0" cx="25.1" cy="56.6" r="3"/>
		<line class="st0" x1="34.1" y1="36.8" x2="31.7" y2="36.8"/>
		<line class="st0" x1="30.5" y1="36.8" x2="28.1" y2="36.8"/>
		<line class="st0" x1="32.9" y1="30.8" x2="35.3" y2="30.8"/>
		<line class="st0" x1="32.9" y1="41.6" x2="35.3" y2="41.6"/>
		<line class="st0" x1="36.5" y1="36.8" x2="40.1" y2="36.8"/>
		<line class="st0" x1="37.7" y1="41.6" x2="38.9" y2="41.6"/>
	</g>
</g>
</svg>
