<?xml version="1.0" encoding="utf-8"?>
<!-- Generator: Adobe Illustrator 27.1.1, SVG Export Plug-In . SVG Version: 6.00 Build 0)  -->
<svg version="1.1" id="Camada_1" xmlns="http://www.w3.org/2000/svg" xmlns:xlink="http://www.w3.org/1999/xlink" x="0px" y="0px"
	 viewBox="0 0 74 74" style="enable-background:new 0 0 74 74;" xml:space="preserve">
<style type="text/css">
	.st0{fill:#FFFFFF;}
</style>
<g>
	<g>
		<defs>
			<path id="SVGID_1_" d="M1,12.5c0-6.6,5.4-12,12-12h48c6.6,0,12,5.4,12,12v49c0,6.6-5.4,12-12,12H13c-6.6,0-12-5.4-12-12V12.5z"/>
		</defs>
		
			<linearGradient id="SVGID_00000028308937201738080370000001807996782507058875_" gradientUnits="userSpaceOnUse" x1="11.3066" y1="6.3656" x2="70.0359" y2="76.3889">
			<stop  offset="0" style="stop-color:#20A4DC"/>
			<stop  offset="6.893140e-02" style="stop-color:#30ACE0"/>
			<stop  offset="0.2299" style="stop-color:#51BCE7"/>
			<stop  offset="0.3966" style="stop-color:#6AC9ED"/>
			<stop  offset="0.5692" style="stop-color:#7CD2F1"/>
			<stop  offset="0.7515" style="stop-color:#87D7F3"/>
			<stop  offset="0.9595" style="stop-color:#8AD9F4"/>
		</linearGradient>
		
			<use xlink:href="#SVGID_1_"  style="overflow:visible;fill-rule:evenodd;clip-rule:evenodd;fill:url(#SVGID_00000028308937201738080370000001807996782507058875_);"/>
		<clipPath id="SVGID_00000074409960043488920670000012916934687405351086_">
			<use xlink:href="#SVGID_1_"  style="overflow:visible;"/>
		</clipPath>
	</g>
	<g>
		<polygon class="st0" points="29.1,60.2 13.2,60.2 13.2,13.7 55.7,13.7 55.7,35.9 54.2,35.9 54.2,15.2 14.7,15.2 14.7,58.7 
			29.1,58.7 		"/>
	</g>
	<g>
		<rect x="14" y="20.7" class="st0" width="41" height="1.5"/>
	</g>
	<g>
		<rect x="17" y="16.7" class="st0" width="2" height="1.5"/>
	</g>
	<g>
		<rect x="22" y="16.7" class="st0" width="2" height="1.5"/>
	</g>
	<g>
		<path class="st0" d="M32.7,37.2H18.2V25.7h14.5V37.2z M19.7,35.7h11.5v-8.5H19.7V35.7z"/>
	</g>
	<g>
		<rect x="37" y="25.7" class="st0" width="13" height="1.5"/>
	</g>
	<g>
		<rect x="37" y="30.7" class="st0" width="13" height="1.5"/>
	</g>
	<g>
		<rect x="18" y="41.7" class="st0" width="10" height="1.5"/>
	</g>
	<g>
		<rect x="18" y="46.7" class="st0" width="6" height="1.5"/>
	</g>
	<g>
		<rect x="45.2" y="38.5" class="st0" width="1.5" height="4"/>
	</g>
	<g>
		
			<rect x="38.2" y="40.3" transform="matrix(0.8944 -0.4472 0.4472 0.8944 -14.8891 21.928)" class="st0" width="1.5" height="4.5"/>
	</g>
	<g>
		
			<rect x="32.2" y="45.3" transform="matrix(0.4472 -0.8944 0.8944 0.4472 -24.2432 55.773)" class="st0" width="1.5" height="4.5"/>
	</g>
	<g>
		<path class="st0" d="M63.7,56.2h-5v-1.5h3.5c-0.4-8.6-7.5-15.5-16.2-15.5s-15.8,6.9-16.2,15.5h3.5v1.5h-5v-0.8
			c0-9.8,8-17.8,17.8-17.8s17.8,8,17.8,17.8V56.2z"/>
	</g>
	<g>
		
			<rect x="51.8" y="41.7" transform="matrix(0.4467 -0.8947 0.8947 0.4467 -8.1455 71.8282)" class="st0" width="4.5" height="1.5"/>
	</g>
	<g>
		<path class="st0" d="M46,59.2c-2.1,0-3.8-1.7-3.8-3.8s1.7-3.8,3.8-3.8s3.8,1.7,3.8,3.8S48.1,59.2,46,59.2z M46,53.2
			c-1.2,0-2.2,1-2.2,2.2s1,2.2,2.2,2.2s2.2-1,2.2-2.2S47.2,53.2,46,53.2z"/>
	</g>
	<g>
		
			<rect x="48.4" y="50.2" transform="matrix(0.874 -0.4859 0.4859 0.874 -18.0398 32.4178)" class="st0" width="10.3" height="1.5"/>
	</g>
	<g>
		
			<rect x="39.7" y="56.7" transform="matrix(0.8321 -0.5547 0.5547 0.8321 -24.9252 32.6769)" class="st0" width="3.6" height="1.5"/>
	</g>
</g>
</svg>
