<?xml version="1.0" encoding="utf-8"?>
<!-- Generator: Adobe Illustrator 27.1.1, SVG Export Plug-In . SVG Version: 6.00 Build 0)  -->
<svg version="1.1" id="Camada_1" xmlns="http://www.w3.org/2000/svg" xmlns:xlink="http://www.w3.org/1999/xlink" x="0px" y="0px"
	 viewBox="0 0 410.9 156" style="enable-background:new 0 0 410.9 156;" xml:space="preserve">
<style type="text/css">
	
		.st0{opacity:0.6;fill-rule:evenodd;clip-rule:evenodd;fill:none;stroke:#20A4DC;stroke-width:3.5201;stroke-linecap:round;stroke-miterlimit:10;}
	
		.st1{fill-rule:evenodd;clip-rule:evenodd;fill:none;stroke:#20A4DC;stroke-width:3.5201;stroke-linecap:round;stroke-miterlimit:10;}
	.st2{fill:none;stroke:#FFFFFF;stroke-width:2.6401;stroke-miterlimit:8;}
</style>
<g>
	<g>
		<g>
			<path class="st0" d="M217.6,143.1l-22.9-22.9c-2-2-2-5.1,0-7.1l22.9-22.9"/>
		</g>
		<g>
			<path class="st1" d="M193.3,12.9l22.9,22.9c2,2,2,5.1,0,7.1l-22.9,22.9"/>
		</g>
	</g>
	<g>
		<g>
			<defs>
				<path id="SVGID_1_" d="M1.3,26c0-14.1,11.4-25.5,25.5-25.5h101.9c14.1,0,25.5,11.4,25.5,25.5V130c0,14.1-11.4,25.5-25.5,25.5
					H26.8c-14.1,0-25.5-11.4-25.5-25.5V26z"/>
			</defs>
			
				<linearGradient id="SVGID_00000093160167154739331060000017583540858650294711_" gradientUnits="userSpaceOnUse" x1="23.1793" y1="12.9466" x2="147.8932" y2="161.6439">
				<stop  offset="0" style="stop-color:#20A4DC"/>
				<stop  offset="6.893140e-02" style="stop-color:#30ACE0"/>
				<stop  offset="0.2299" style="stop-color:#51BCE7"/>
				<stop  offset="0.3966" style="stop-color:#6AC9ED"/>
				<stop  offset="0.5692" style="stop-color:#7CD2F1"/>
				<stop  offset="0.7515" style="stop-color:#87D7F3"/>
				<stop  offset="0.9595" style="stop-color:#8AD9F4"/>
			</linearGradient>
			
				<use xlink:href="#SVGID_1_"  style="overflow:visible;fill-rule:evenodd;clip-rule:evenodd;fill:url(#SVGID_00000093160167154739331060000017583540858650294711_);"/>
			<clipPath id="SVGID_00000040558165256822205740000011645060836139437187_">
				<use xlink:href="#SVGID_1_"  style="overflow:visible;"/>
			</clipPath>
		</g>
		<path class="st2" d="M105.7,28.7c3.6,0,6.6,0,6.6,0v102.1c0,0-3,0-6.6,0H48.5c-3.6,0-6.6,0-6.6,0V28.7c0,0,3,0,6.6,0H105.7z"/>
		<line class="st2" x1="75.3" y1="35.7" x2="85.9" y2="35.7"/>
		<line class="st2" x1="66.5" y1="35.7" x2="70" y2="35.7"/>
		<line class="st2" x1="41.9" y1="116.7" x2="112.3" y2="116.7"/>
		<line class="st2" x1="41.9" y1="41" x2="112.3" y2="41"/>
		<line class="st2" x1="73.5" y1="123.7" x2="82.3" y2="123.7"/>
		<path class="st2" d="M64.7,63.8h36.5c1.2,0,2.2,1,2.2,2.3c0,0.2,0,0.4-0.1,0.6L98,85.1c-0.3,1-1.1,1.6-2.1,1.6H66.8"/>
		<path class="st2" d="M94.6,95.5h-24c-1,0-1.9-1.3-2.2-2.3L57.5,58.5h-8.7"/>
		<line class="st2" x1="66.5" y1="100.8" x2="70" y2="100.8"/>
		<line class="st2" x1="91.1" y1="100.8" x2="94.7" y2="100.8"/>
	</g>
	<g>
		<g>
			<defs>
				<path id="SVGID_00000034787576115137029670000014967991564569062059_" d="M256.7,26c0-14.1,11.4-25.5,25.5-25.5h101.9
					c14.1,0,25.5,11.4,25.5,25.5V130c0,14.1-11.4,25.5-25.5,25.5H282.2c-14.1,0-25.5-11.4-25.5-25.5V26z"/>
			</defs>
			
				<linearGradient id="SVGID_00000075158286216773407440000012435593297548349333_" gradientUnits="userSpaceOnUse" x1="278.5991" y1="12.9466" x2="403.313" y2="161.6439">
				<stop  offset="0" style="stop-color:#20A4DC"/>
				<stop  offset="6.893140e-02" style="stop-color:#30ACE0"/>
				<stop  offset="0.2299" style="stop-color:#51BCE7"/>
				<stop  offset="0.3966" style="stop-color:#6AC9ED"/>
				<stop  offset="0.5692" style="stop-color:#7CD2F1"/>
				<stop  offset="0.7515" style="stop-color:#87D7F3"/>
				<stop  offset="0.9595" style="stop-color:#8AD9F4"/>
			</linearGradient>
			
				<use xlink:href="#SVGID_00000034787576115137029670000014967991564569062059_"  style="overflow:visible;fill-rule:evenodd;clip-rule:evenodd;fill:url(#SVGID_00000075158286216773407440000012435593297548349333_);"/>
			<clipPath id="SVGID_00000116954422545106422210000011769008833557690031_">
				<use xlink:href="#SVGID_00000034787576115137029670000014967991564569062059_"  style="overflow:visible;"/>
			</clipPath>
		</g>
		<path class="st2" d="M288.3,75.7c0,4.7,4,8.4,9,8.4c5,0,9-3.8,9-8.4c0,4.7,4,8.4,9,8.4s9-3.8,9-8.4c0,4.7,4,8.4,9,8.4s9-3.8,9-8.4
			c0,4.7,4,8.4,9,8.4c5,0,9-3.8,9-8.4c0,4.7,4,8.4,9,8.4s9-3.8,9-8.4V63h-89.8V75.7z"/>
		<line class="st2" x1="306.2" y1="72.3" x2="306.2" y2="75.9"/>
		<line class="st2" x1="324.2" y1="72.3" x2="324.2" y2="75.9"/>
		<line class="st2" x1="342.1" y1="72.3" x2="342.1" y2="75.9"/>
		<line class="st2" x1="360.2" y1="72.3" x2="360.2" y2="75.9"/>
		<polyline class="st2" points="371,84.2 371,124.6 295.3,124.6 295.3,84.2 		"/>
		<rect x="304.1" y="93" class="st2" width="19.4" height="31.7"/>
		<line class="st2" x1="318.2" y1="107" x2="318.2" y2="110.6"/>
		<polygon class="st2" points="362.3,43.7 304,43.7 288.3,60.6 288.3,63 378,63 378,60.6 		"/>
		<rect x="304.1" y="31.4" class="st2" width="58.1" height="12.3"/>
		<polyline class="st2" points="305.9,63 305.9,60.6 312.9,48.5 312.9,43.7 		"/>
		<polyline class="st2" points="360.4,63 360.4,60.6 353.4,48.5 353.4,43.7 		"/>
		<polyline class="st2" points="323.5,63 323.5,60.6 327,48.5 327,43.7 		"/>
		<polyline class="st2" points="342.8,63 342.8,60.6 339.3,48.5 339.3,43.7 		"/>
		<rect x="334" y="93" class="st2" width="28.2" height="17.6"/>
	</g>
</g>
</svg>
