<?xml version="1.0" encoding="utf-8"?>
<!-- Generator: Adobe Illustrator 27.1.1, SVG Export Plug-In . SVG Version: 6.00 Build 0)  -->
<svg version="1.1" id="Camada_1" xmlns="http://www.w3.org/2000/svg" xmlns:xlink="http://www.w3.org/1999/xlink" x="0px" y="0px"
	 viewBox="0 0 217.4 71.5" style="enable-background:new 0 0 217.4 71.5;" xml:space="preserve">
<style type="text/css">
	.st0{fill-rule:evenodd;clip-rule:evenodd;fill:#4C4C4C;}
</style>
<g>
	<path class="st0" d="M58.2,29.6h7.2l0.3,2.4c0.6-1.9,4.2-3.2,6.4-3.2c5.1,0,7.2,3.2,7.2,8.7v11.9h-8V38.7c0-2.1-0.4-3.7-2.5-3.7
		c-2,0-3,2.1-3,3.6v10.7h-7.6V29.6L58.2,29.6z"/>
	<path class="st0" d="M11.7,49.4V21.5h13.3c8,0,11.6,3.9,11.6,9.5c0,6-3.3,10.1-11.6,10.1h-4.5v8.4H11.7L11.7,49.4z M24.1,34.3
		c2.1,0,4.4-0.5,4.4-2.9c0-2.5-2.4-3.1-4.4-3.1h-3.5v6H24.1L24.1,34.3z"/>
	<path class="st0" d="M145.8,29.6h7.3l0.2,2.4c0.6-1.9,4.3-3.2,6.5-3.2c5,0,7.2,3.2,7.2,8.7v12h-8V38.7c0-2.1-0.5-3.7-2.6-3.7
		c-1.9,0-2.9,2.1-2.9,3.6v10.8h-7.6V29.6L145.8,29.6z"/>
	<path class="st0" d="M109.3,42.3c0,0.8,0.4,2,0.9,2.4c0.6,0.4,1.3,0.8,2.1,0.8c1.4,0,2.5-0.4,2.5-1.7c0.1-3.3-12-0.4-12-8.3
		c0-5.5,4.3-6.8,8.7-6.8s10.5,0.9,10.2,6.9H115c0-0.6-0.2-0.9-0.6-1.4c-0.5-0.6-1-0.8-2-0.9c-1.3-0.1-2.6,0.2-2.6,1.2
		c0.1,3.1,12.5,1,12.5,8.3c0,5-3.5,7.3-10.4,7.3c-4.3-0.1-9.8-2.3-9.8-7.7H109.3L109.3,42.3z"/>
	<path class="st0" d="M190.9,37.3c0-0.5,0-1.1-0.6-1.9c-0.3-0.4-1-1.3-2.1-1.3c-3,0-3.8,2.9-3.8,5.3c0,2.8,1.3,5,3.6,5
		c2,0,3.1-1.9,3.1-3.5h6.9c0.2,4.1-2.7,9-10.3,9c-6.2,0-10.6-4.3-10.6-10.6c0-7.6,5.7-10.6,10.6-10.6c6.6,0,10.4,4,10.3,8.5H190.9
		L190.9,37.3z"/>
	<path class="st0" d="M49.7,49.4l-0.8-1.7c-1.5,1.3-3.1,2-5.6,2c-2.4-0.1-7.3-0.4-7.3-5.7c0-8.7,12.9-4.7,12.9-9
		c0-1.4-1.6-1.3-2.4-1.3c-1.6,0-2.6,0.3-2.8,2.7h-6.6c0-4.1,1.3-7.6,9.9-7.6c8.4,0,9.3,4.4,9.3,8.8v9c0,1.2,0.1,1.7,0.9,2.6v0.2
		L49.7,49.4L49.7,49.4z M49.1,40.4c-2.7,1.3-6.1,1.2-6.1,3.2c0,1.3,0.7,1.9,2.3,1.9C47.8,45.4,49.3,42.7,49.1,40.4L49.1,40.4z
		 M94.2,49.4l-0.8-1.7c-1.5,1.3-3.2,2-5.6,2c-2.5-0.1-7.3-0.4-7.3-5.7c0-8.7,12.9-4.7,13-9c0-1.4-1.7-1.3-2.4-1.3
		c-1.7,0-2.6,0.3-2.8,2.7h-6.6c0-4.1,1.2-7.6,9.9-7.6c8.4,0,9.2,4.4,9.2,8.8v9c0,1.2,0.1,1.7,0.9,2.6v0.2L94.2,49.4L94.2,49.4z
		 M93.6,40.4c-2.7,1.3-6.1,1.2-6.1,3.2c0,1.3,0.6,1.9,2.3,1.9C92.2,45.4,93.7,42.7,93.6,40.4L93.6,40.4z"/>
	<path class="st0" d="M175.7,49.4V29.6h-7.3v19.8H175.7L175.7,49.4z M168.4,27.1h7.3v-5.7h-7.3V27.1L168.4,27.1z"/>
	<path class="st0" d="M134,28.9c6.5,0,10.6,4.6,10.6,10.6c0,6.1-4,10.6-10.6,10.6c-6.5,0-10.6-4.5-10.6-10.6
		C123.4,33.5,127.5,28.9,134,28.9L134,28.9z M130.5,39.5c0,2.4,0.8,5.4,3.5,5.5c2.7,0,3.4-3.1,3.4-5.5c0-2.4-0.7-5.4-3.4-5.4
		C131.3,34.1,130.6,37.1,130.5,39.5L130.5,39.5z"/>
	<path class="st0" d="M202.6,45.6c0.5,0,1.2,0.1,1.2-0.6c0-0.6-0.5-0.6-0.9-0.6H202v1.2H202.6L202.6,45.6z M204.2,47.5h-0.5
		l-0.9-1.6H202v1.6h-0.4v-3.4h1.4c0.6,0,1.2,0.2,1.2,0.9c0,0.6-0.4,0.9-1,0.9L204.2,47.5L204.2,47.5z M205.3,45.8
		c0-1.5-1.2-2.7-2.6-2.7c-1.5,0-2.7,1.2-2.7,2.7c0,1.4,1.2,2.6,2.7,2.6C204.1,48.4,205.3,47.3,205.3,45.8L205.3,45.8z M199.7,45.8
		c0-1.7,1.3-3,3-3c1.7,0,3,1.3,3,3c0,1.7-1.3,3-3,3C201,48.8,199.7,47.5,199.7,45.8L199.7,45.8z"/>
</g>
</svg>
